<svg id="Layer_1" data-name="Layer 1" xmlns="http://www.w3.org/2000/svg" viewBox="0 0 500 500"><defs><style>.cls-1{fill:none;stroke:#00ffe6;stroke-miterlimit:10;stroke-width:5px;}.cls-2{fill:#00ffe6;}.cls-3{fill:#00dcdc;}.cls-4{fill:#f0f0f0;}.cls-5{fill:#d8d9dd;}</style></defs><title>bandeiras</title><ellipse class="cls-1" cx="250" cy="250" rx="247.5" ry="247.42"/><polygon class="cls-2" points="170.8 101.5 170.8 220.3 329.2 220.3 329.2 131.4 299.3 101.5 170.8 101.5"/><polygon class="cls-3" points="299.3 131.4 329.2 161.3 329.2 131.4 314.2 116.5 299.3 131.4"/><polygon class="cls-4" points="329.2 131.4 299.3 131.4 299.3 101.5 329.2 131.4"/><rect class="cls-4" x="193.2" y="132.5" width="56.8" height="4.6"/><rect class="cls-4" x="193.2" y="149.9" width="113.6" height="4.6"/><rect class="cls-4" x="193.2" y="167.4" width="113.6" height="4.5"/><rect class="cls-4" x="193.2" y="184.8" width="113.6" height="4.5"/><rect class="cls-4" x="210.4" y="339" width="79.2" height="59.4"/><rect class="cls-4" x="95.6" y="339" width="79.2" height="59.4"/><rect class="cls-4" x="325.2" y="339" width="79.2" height="59.4"/><rect class="cls-3" x="246.4" y="220.3" width="7.3" height="118.7"/><rect class="cls-3" x="131.6" y="275.7" width="7.3" height="63.3"/><rect class="cls-3" x="361.1" y="275.7" width="7.3" height="63.3"/><rect class="cls-3" x="131.3" y="276" width="237.5" height="7.3"/><rect class="cls-5" x="242.1" y="271.7" width="15.8" height="15.8"/><rect class="cls-5" x="127.3" y="271.7" width="15.8" height="15.8"/><rect class="cls-5" x="356.9" y="271.7" width="15.8" height="15.8"/></svg>