<svg id="Layer_1" data-name="Layer 1" xmlns="http://www.w3.org/2000/svg" viewBox="0 0 500 500"><defs><style>.cls-1{fill:none;stroke:#00ffe6;stroke-miterlimit:10;stroke-width:5px;}.cls-2{fill:#00ffe6;}.cls-3{fill:#00dcdc;}.cls-4{fill:#f0f0f0;}</style></defs><title>empresa</title><ellipse class="cls-1" cx="250" cy="250" rx="247.5" ry="247.42"/><path class="cls-2" d="M400.7,166.5V151l-11.4-3.9h0a55.56,55.56,0,0,0-2.7-10.1l7.9-9.1-7.8-13.5-11.8,2.3v.1a44.93,44.93,0,0,0-3.6-3.9q-1.95-1.95-3.9-3.6h.1l2.3-11.8-13.5-7.8-9.1,7.9a57.83,57.83,0,0,0-10.1-2.7h0l-3.9-11.4H317.7l-3.9,11.4h0a65.09,65.09,0,0,0-10.1,2.7l-9.1-7.9-13.5,7.8,2.3,11.8h.1q-2.1,1.8-3.9,3.6a33.28,33.28,0,0,0-3.6,3.9v-.1l-11.8-2.3-7.8,13.5,7.9,9.1a57.83,57.83,0,0,0-2.7,10.1h0L250.2,151v15.5l11.4,3.9h0a55.56,55.56,0,0,0,2.7,10.1l-7.9,9.1,7.8,13.5,11.8-2.3v-.1a44.93,44.93,0,0,0,3.6,3.9q1.95,1.95,3.9,3.6L281.1,220l13.5,7.8,9.1-7.9a57.83,57.83,0,0,0,10.1,2.7h0l3.9,11.4h15.5l3.9-11.4h0a55.56,55.56,0,0,0,10.1-2.7l9.1,7.9,13.5-7.8-2.3-11.8h-.1a33.28,33.28,0,0,0,3.9-3.6,44.93,44.93,0,0,0,3.6-3.9v.1l11.8,2.3,7.8-13.5-7.9-9.1a57.83,57.83,0,0,0,2.7-10.1h0Zm-75.2,24.1a31.9,31.9,0,1,1,31.9-31.9A31.92,31.92,0,0,1,325.5,190.6Z"/><path class="cls-3" d="M325.5,119.1a39.6,39.6,0,1,0,39.6,39.6A39.56,39.56,0,0,0,325.5,119.1Zm0,70a30.4,30.4,0,1,1,30.4-30.4A30.47,30.47,0,0,1,325.5,189.1Z"/><path class="cls-4" d="M315.7,319.4V297l-16.4-5.6a89.68,89.68,0,0,0-3.9-14.6l11.4-13-11.2-19.3-17,3.3c-1.7-1.9-3.4-3.8-5.1-5.5s-3.6-3.5-5.5-5.1l3.4-17L252,209l-13.1,11.4a88.53,88.53,0,0,0-14.5-3.9l-5.6-16.4H196.4l-5.6,16.4a88.52,88.52,0,0,0-14.5,3.9l-13-11.4L144,220.2l3.4,17c-1.9,1.6-3.8,3.4-5.5,5.1s-3.5,3.7-5.2,5.6v-.1l-17-3.3-11.2,19.3,11.4,13a101.14,101.14,0,0,0-3.9,14.6L99.6,297v22.4L116,325a101.14,101.14,0,0,0,3.9,14.6l-11.4,13L119.7,372l17-3.4c1.6,1.9,3.4,3.8,5.1,5.5s3.7,3.5,5.6,5.1l-3.4,17,19.4,11.2,13-11.4a103.38,103.38,0,0,0,14.5,3.9l5.6,16.4h22.4l5.6-16.4a92.48,92.48,0,0,0,14.6-3.9l13,11.5,19.4-11.2-3.4-17c1.9-1.6,3.8-3.4,5.5-5.1s3.5-3.6,5.1-5.5l17,3.4,11.2-19.4-11.4-13a97.8,97.8,0,0,0,3.9-14.6ZM207.6,339.7A31.4,31.4,0,1,1,239,308.3,31.47,31.47,0,0,1,207.6,339.7Z"/><path class="cls-2" d="M207.6,260.5a47.75,47.75,0,1,0,47.7,47.7A47.78,47.78,0,0,0,207.6,260.5Zm0,73a25.3,25.3,0,1,1,25.3-25.3A25.27,25.27,0,0,1,207.6,333.5Z"/><path class="cls-3" d="M207.6,246.1a62.15,62.15,0,1,0,62.1,62.1A62.12,62.12,0,0,0,207.6,246.1Zm0,97.9a35.8,35.8,0,1,1,35.8-35.8A35.76,35.76,0,0,1,207.6,344Z"/></svg>