<svg id="Camada_1" data-name="Camada 1" xmlns="http://www.w3.org/2000/svg" viewBox="0 0 100 100"><defs><style>.cls-1{fill:#1d2c3c;}</style></defs><title>icone-behance</title><path class="cls-1" d="M42.08,41.66c0-3.82-2.61-3.82-2.61-3.82H28.76v8.22h10C40.54,46.05,42.08,45.49,42.08,41.66Z"/><path class="cls-1" d="M66.9,46.05c-5.67,0-6.47,5.66-6.47,5.66H72.51S72.59,46.05,66.9,46.05Z"/><path class="cls-1" d="M39.47,51.72H28.76v9.85H38.93c1.52,0,4.43-.48,4.43-4.79C43.36,51.67,39.47,51.72,39.47,51.72Z"/><path class="cls-1" d="M50,0a50,50,0,1,0,50,50A50.06,50.06,0,0,0,50,0Zm8.85,33.46H74V38H58.85ZM51.16,57.23c0,11.23-11.69,10.87-11.69,10.87H20.33V31.29H39.47c5.82,0,10.42,3.21,10.42,9.81s-5.61,7-5.61,7C51.68,48.1,51.16,57.23,51.16,57.23Zm28.41-.6H60.5C60.5,63.47,67,63,67,63c6.12,0,5.9-4,5.9-4h6.48c0,10.5-12.59,9.79-12.59,9.79-15.1,0-14.14-14.07-14.14-14.07s0-14.14,14.14-14.14C81.66,40.65,79.57,56.63,79.57,56.63Z"/></svg>