<svg id="Camada_1" data-name="Camada 1" xmlns="http://www.w3.org/2000/svg" viewBox="0 0 100 100"><defs><style>.cls-1{fill:#1d2c3c;}</style></defs><title>icone-twitter</title><path class="cls-1" d="M50,0a50,50,0,1,0,50,50A50.06,50.06,0,0,0,50,0ZM72.31,38.56c0,.49,0,1,0,1.5,0,15.2-11.57,32.73-32.74,32.73a32.49,32.49,0,0,1-17.64-5.17,23.14,23.14,0,0,0,17-4.76,11.52,11.52,0,0,1-10.75-8,11.06,11.06,0,0,0,2.16.21,11.37,11.37,0,0,0,3-.4A11.51,11.51,0,0,1,24.2,43.39a.74.74,0,0,1,0-.15,11.36,11.36,0,0,0,5.21,1.43,11.51,11.51,0,0,1-3.57-15.36,32.67,32.67,0,0,0,23.72,12,11.52,11.52,0,0,1,19.61-10.5A22.75,22.75,0,0,0,76.5,28a11.56,11.56,0,0,1-5.07,6.37A22.81,22.81,0,0,0,78,32.61a23.41,23.41,0,0,1-5.73,5.95Zm0,0"/></svg>