<svg id="Camada_1" data-name="Camada 1" xmlns="http://www.w3.org/2000/svg" viewBox="0 0 100 100"><defs><style>.cls-1{fill:#1d2c3c;}</style></defs><title>icone-dribbble</title><path class="cls-1" d="M48.51,41.2a162.8,162.8,0,0,0-10-15.46A26.89,26.89,0,0,0,23.75,44.47,99.26,99.26,0,0,0,48.51,41.2Zm0,0"/><path class="cls-1" d="M43.57,24l-.09,0h.09Zm0,0"/><path class="cls-1" d="M67.71,29.87a26.8,26.8,0,0,0-24-5.93,135,135,0,0,1,10,15.65c10.13-3.8,13.94-9.61,14-9.71Zm0,0"/><path class="cls-1" d="M54.57,54.39c-15.84,5.52-21,16.65-21,16.75A26.77,26.77,0,0,0,60.47,74.7a112,112,0,0,0-5.72-20.37l-.18.06Zm0,0"/><path class="cls-1" d="M51.85,50.21c.35-.12.71-.23,1.06-.32-.68-1.53-1.41-3.06-2.19-4.56A98.08,98.08,0,0,1,23.2,49.15c0,.28,0,.56,0,.85A26.72,26.72,0,0,0,30,67.92h0s7.35-13,21.82-17.7Zm0,0"/><path class="cls-1" d="M50,0a50,50,0,1,0,50,50A50.06,50.06,0,0,0,50,0ZM80.76,56.33a31.66,31.66,0,0,1-1.83,5.9A31.15,31.15,0,0,1,76,67.57a31.58,31.58,0,0,1-3.82,4.64A32.38,32.38,0,0,1,67.56,76a31.35,31.35,0,0,1-5.33,2.89A31.42,31.42,0,0,1,32.43,76a32.3,32.3,0,0,1-4.64-3.83A31,31,0,0,1,24,67.57a31.82,31.82,0,0,1-2.89-5.34,31.12,31.12,0,0,1-1.84-5.9,32.12,32.12,0,0,1,0-12.66A31.52,31.52,0,0,1,32.43,24a31.8,31.8,0,0,1,5.34-2.89,30.22,30.22,0,0,1,5.9-1.83,31.58,31.58,0,0,1,12.65,0,30.1,30.1,0,0,1,5.91,1.83A30.63,30.63,0,0,1,67.56,24a33,33,0,0,1,4.65,3.83A31.15,31.15,0,0,1,76,32.44a30.69,30.69,0,0,1,2.9,5.33,31.55,31.55,0,0,1,1.83,18.56Zm0,0"/><path class="cls-1" d="M59.77,53.09A115.14,115.14,0,0,1,65,72.25a26.82,26.82,0,0,0,11.5-18,38.72,38.72,0,0,0-16.71-1.17Zm0,0"/><path class="cls-1" d="M55.77,43.57c.63,1.28,1.23,2.58,1.78,3.89.21.46.4.92.58,1.39a62.38,62.38,0,0,1,18.68.87A26.71,26.71,0,0,0,70.71,33c-.05.07-4.36,6.29-14.95,10.61Zm0,0"/></svg>