<svg id="Camada_1" data-name="Camada 1" xmlns="http://www.w3.org/2000/svg" viewBox="0 0 100 100"><defs><style>.cls-1{fill:#1d2c3c;}</style></defs><title>icone-instagram</title><path class="cls-1" d="M50,60A10,10,0,1,0,40,50,10,10,0,0,0,50,60Zm0,0"/><path class="cls-1" d="M71.86,37.75V28.11H70.6l-8.39,0,0,9.64Zm0,0"/><path class="cls-1" d="M50,0a50,50,0,1,0,50,50A50.06,50.06,0,0,0,50,0ZM78.43,44.16V67.45a11,11,0,0,1-11,11H32.55a11,11,0,0,1-11-11V32.56a11,11,0,0,1,11-11H67.44a11,11,0,0,1,11,11Zm0,0"/><path class="cls-1" d="M65.55,50a15.55,15.55,0,1,1-30-5.83H27.1V67.45a5.44,5.44,0,0,0,5.45,5.44H67.44a5.44,5.44,0,0,0,5.45-5.44V44.16H64.4A15.57,15.57,0,0,1,65.55,50Zm0,0"/></svg>