<svg id="Camada_1" data-name="Camada 1" xmlns="http://www.w3.org/2000/svg" viewBox="0 0 750 172"><defs><style>.cls-1{fill:#ff0;}.cls-2{fill:#d8d9dd;}</style></defs><title>logo-completa-amarelo</title><path class="cls-1" d="M113.65,22.36C83,29.44,103.07,42.49,98.24,63.56c-1.4,6.29-8.56,21.23-8.56,21.23S95,98.32,96.06,104.13c4,23.12-14.63,37,17.58,45.76l-16,16.83C59,154.14,76.15,131.65,70.86,104.45c-1.24-6.29-9.8-19.66-9.8-19.66S71.48,69.38,73.19,62.31C79.88,35.57,62.61,14.66,97.62,5.7Z"/><path class="cls-2" d="M713.44,5.7c35,9,17.74,29.88,24.43,56.61C739.57,69.38,750,84.79,750,84.79s-8.56,13.37-9.8,19.66c-5.29,27.2,11.83,49.69-26.76,62.27l-16-16.83c32.21-8.81,13.54-22.64,17.58-45.76,1.09-5.82,6.38-19.34,6.38-19.34s-7.16-14.94-8.56-21.23c-4.82-21.07,15.25-34.12-15.4-41.2Z"/><path class="cls-2" d="M38.83,142.3a7.29,7.29,0,0,1,6.29,3.07q2.21,3.07,2.21,8.62,0,5.88-1.84,9.16H41.39a22.27,22.27,0,0,0,1.68-4.57,19.25,19.25,0,0,0,.61-4.7,10.76,10.76,0,0,0-1.11-5.39,3.79,3.79,0,0,0-6.29-.39,23.65,23.65,0,0,0-2.87,5.83,31.77,31.77,0,0,1-2.65,5.86,8,8,0,0,1-2.57,2.59,6.65,6.65,0,0,1-3.44.85,6.54,6.54,0,0,1-5.64-2.94Q17,157.36,17,152.24A23.8,23.8,0,0,1,19,142.92l3.6,1.59a21.6,21.6,0,0,0-1.81,8.06,9.36,9.36,0,0,0,1,4.8A3,3,0,0,0,24.45,159a3.29,3.29,0,0,0,2-.61,6,6,0,0,0,1.57-2,43.87,43.87,0,0,0,2.16-5.17q1.89-5.26,3.81-7.1A6.69,6.69,0,0,1,38.83,142.3Z"/><path class="cls-2" d="M43.68,125.48a16.09,16.09,0,0,0-.53-4h3.39a8.26,8.26,0,0,1,.57,2.14,16.28,16.28,0,0,1,.23,2.55q0,8.57-8.93,8.57H21v4.23H18.88L17,134.7l-6.24-1.89v-2.59h6.77v-8.57H21v8.57h17.2A5.88,5.88,0,0,0,42.27,129,4.43,4.43,0,0,0,43.68,125.48Z"/><path class="cls-2" d="M17.57,111.33h19q3.57,0,5.33-1.64t1.76-5.15q0-4.63-2.51-6.78t-8.19-2.14H17.57V91.15H46.8v3.69l-3.92.65v.24a8.89,8.89,0,0,1,3.31,3.81,12.94,12.94,0,0,1,1.15,5.57q0,5.39-2.53,8.07t-8.11,2.68H17.57Z"/><path class="cls-2" d="M42.88,61.55v.24q4.45,3.1,4.45,9.27a11,11,0,0,1-3.92,9Q39.49,83.3,32.27,83.3T21,80.07a10.93,10.93,0,0,1-4-9,10.78,10.78,0,0,1,4.32-9.22V61.5l-2.11.19-2.05.11H5.31V57.32H46.8V61Zm.75,8.95q0-4.58-2.47-6.64t-8-2.06h-.93q-6.21,0-8.87,2.09t-2.65,6.67a6.87,6.87,0,0,0,3,6q3,2.09,8.55,2.09t8.45-2.08A7.05,7.05,0,0,0,43.63,70.5Z"/><path class="cls-2" d="M9.65,48.21a2.92,2.92,0,0,1-2.23-.75,2.82,2.82,0,0,1,0-3.75,2.87,2.87,0,0,1,2.21-.78,2.92,2.92,0,0,1,2.23.78,2.63,2.63,0,0,1,.73,1.86,2.6,2.6,0,0,1-.73,1.89A3,3,0,0,1,9.65,48.21ZM46.8,43.36v4.47H17.57V43.36Z"/><path class="cls-2" d="M32.16,8.38q7.15,0,11.16,3.64t4,10.05a13.42,13.42,0,0,1-1.84,7,12.18,12.18,0,0,1-5.28,4.74,18.23,18.23,0,0,1-8.05,1.67Q25,35.52,21,31.91t-4-10A12.56,12.56,0,0,1,21.12,12Q25.2,8.38,32.16,8.38Zm0,22.5q5.6,0,8.53-2.26A7.89,7.89,0,0,0,43.63,22a7.94,7.94,0,0,0-2.92-6.67Q37.79,13,32.16,13t-8.47,2.28A8,8,0,0,0,20.8,22a7.91,7.91,0,0,0,2.85,6.63Q26.51,30.88,32.16,30.88Z"/><path class="cls-1" d="M176.12,31.48V52.24h-9.65v68.25h9.65V141.4H124.46V120.49h9.8V52.24h-9.8V31.48Z"/><path class="cls-1" d="M292.81,51.77V141.4H259.36L219.68,81.49v39.63h12V141.4H183.89V121.12h9.18V51.77h-9V31.48H228.7L266.82,89.2V51.77H256.24V31.48h46.83V51.77Z"/><path class="cls-2" d="M310.85,101.78h28.94c0,13.21,13.07,15.41,19.61,15.72,5.45,0,13.23-1.26,13.23-7.86,0-12.27-59.75-7.08-59.75-47.18,0-23.27,21.78-33.81,37-33.81,13.07,0,26.3,4.25,32.52,16L384,31.48h26.76V71H382.58c0-11.64-9-18.24-19.92-18.24-4.51,0-10.74,2.83-10.74,8.33,0,16.2,61.61,12.42,61.61,49.38,0,24.53-22.72,33.34-41.23,33.34-15.71,0-26.61-7.39-32.52-14.47l-1.71,12.11H310.85Z"/><path class="cls-2" d="M473,31.48V52.24h-9.65v68.25H473V141.4H421.32V120.49h9.8V52.24h-9.8V31.48Z"/><path class="cls-2" d="M480.75,120.49h9.65V52.24h-9.65V31.48h47.46c37.65,0,59.13,23.43,59.13,53.46,0,35.85-21.47,56.45-59.75,56.45H480.75Zm47.46,0c16.49-.31,23.34-15.88,23.34-35.54,0-16.83-6.85-32.71-23.34-32.71h-5.91v68.25Z"/><path class="cls-2" d="M686.59,31.48V66.24H659.68v-14h-24.9v21.7h29.56V94.86H634.78v25.63h24.9V105.86h26.92V141.4H592.77V120.49h9.8V52.24h-9.8V31.48Z"/></svg>