<svg id="Camada_1" data-name="Camada 1" xmlns="http://www.w3.org/2000/svg" viewBox="0 0 200 105"><defs><style>.cls-1{fill:#ff0;}</style></defs><title>logo-amarelo</title><path class="cls-1" d="M34.54,10.87C14.41,15.48,27.59,24,24.43,37.73c-.92,4.1-5.62,13.84-5.62,13.84S22.28,60.4,23,64.19C25.65,79.26,13.39,88.29,34.54,94L24,105C-1.33,96.8,9.91,82.13,6.44,64.39,5.62,60.29,0,51.58,0,51.58s6.85-10,8-14.66C12.37,19.48,1,5.84,24,0Z"/><path class="cls-1" d="M175.86,0c23,5.84,11.65,19.48,16,36.91,1.12,4.61,8,14.66,8,14.66s-5.62,8.72-6.44,12.82C190,82.13,201.2,96.8,175.86,105L165.33,94c21.15-5.74,8.89-14.77,11.55-29.84.72-3.79,4.19-12.61,4.19-12.61s-4.7-9.74-5.62-13.84c-3.17-13.74,10-22.25-10.12-26.87Z"/><path class="cls-1" d="M75.62,16.91v13.5H69.28V74.79h6.34v13.6h-34V74.79h6.44V30.41H41.67V16.91Z"/><path class="cls-1" d="M152.32,30.1V88.39h-22l-26.08-39V75.2h7.87V88.39H80.73V75.2h6V30.1H80.84V16.91h29.35l25.05,37.53V30.1h-7V16.91h30.78V30.1Z"/></svg>