<svg xmlns="http://www.w3.org/2000/svg" viewBox="0 0 1000 1080"><defs><style>.cls-1{fill:#f0f3f9;}.cls-2{fill:#3c3b46;}.cls-3{fill:#f7faf9;}.cls-4{fill:#fdfeff;}.cls-5{fill:#cac5c3;}.cls-6{fill:#241b1f;}.cls-7{fill:#584956;}.cls-8{fill:#f1f4f7;}.cls-9{fill:#dedde3;}.cls-10{fill:#686965;}.cls-11{fill:#9c9fa7;}.cls-12{fill:#727073;}.cls-13{fill:#1f2022;}.cls-14{fill:#adadb1;}.cls-15{fill:#1f1d21;}.cls-16{fill:#dbdcda;}.cls-17{fill:#f3f2f3;}.cls-18{fill:#564d4c;}.cls-19{fill:#fff;}.cls-20{fill:#3d4a57;}.cls-21{fill:#989290;}.cls-22{fill:#232426;}.cls-23{fill:#2c2221;}.cls-24{fill:#2a2e35;}.cls-25{fill:#161417;}.cls-26{fill:#352f2f;}.cls-27{fill:#a4a4a4;}.cls-28{fill:#413f44;}.cls-29{fill:#dddde1;}.cls-30{fill:#221e21;}.cls-31{fill:#49474c;}.cls-32{fill:#7b7b85;}.cls-33{fill:#afaeae;}.cls-34{fill:#c2c4c1;}.cls-35{fill:#f0f1f4;}.cls-36{fill:#2b292a;}.cls-37{fill:#a9a9af;}.cls-38{fill:#706c6d;}.cls-39{fill:#d9d1c8;}.cls-40{fill:#e8e7e7;}.cls-41{fill:#453b3a;}.cls-42{fill:#e5e3e5;}.cls-43{fill:#d1d0d4;}.cls-44{fill:#fafbf8;}.cls-45{fill:#e9e9e7;}.cls-46{fill:#bdbbc0;}.cls-47{fill:#423c3c;}.cls-48{fill:#b0afad;}.cls-49{fill:#cfc7c4;}.cls-50{fill:#211d22;}.cls-51{fill:#f4f4f6;}.cls-52{fill:#25191d;}.cls-53{fill:#2c252d;}.cls-54{fill:#cfd2d7;}.cls-55{fill:#201e25;}.cls-56{fill:#f2f2f0;}.cls-57{fill:#ccc9d1;}.cls-58{fill:#3e3339;}.cls-59{fill:#cad3d2;}.cls-60{fill:#4e4d52;}.cls-61{fill:#eeeeef;}.cls-62{fill:#2d323a;}.cls-63{fill:#fffffd;}.cls-64{fill:#2f252d;}.cls-65{fill:#3c343b;}.cls-66{fill:#403b3f;}.cls-67{fill:#4d4348;}.cls-68{fill:#443944;}.cls-69{fill:#f6f7f9;}.cls-70{fill:#1e222d;}.cls-71{fill:#342b2c;}.cls-72{fill:#201a1c;}.cls-73{fill:#958d8b;}.cls-74{fill:#4b4246;}.cls-75{fill:#bbc0c3;}.cls-76{fill:#28242a;}.cls-77{fill:#2f2d2e;}.cls-78{fill:#d4d4d2;}.cls-79{fill:#cfcfcf;}.cls-80{fill:#3d3435;}.cls-81{fill:#403635;}.cls-82{fill:#bdbec3;}.cls-83{fill:#18192b;}.cls-84{fill:#6e696d;}.cls-85{fill:#d7d8da;}.cls-86{fill:#252023;}.cls-87{fill:#697c89;}.cls-88{fill:#2c262a;}.cls-89{fill:#bebdc5;}.cls-90{fill:#f7f8fa;}.cls-91{fill:#e0dfe4;}.cls-92{fill:#9c9da2;}.cls-93{fill:#596375;}.cls-94{fill:#e3e4e8;}.cls-95{fill:#e4e4e2;}.cls-96{fill:#37343f;}.cls-97{fill:#2a1e28;}.cls-98{fill:#e5e5e5;}.cls-99{fill:#3e3b42;}.cls-100{fill:#f7f7f6;}.cls-101{fill:#29333c;}.cls-102{fill:#f3f5f9;}.cls-103{fill:#68656c;}.cls-104{fill:#514c49;}.cls-105{fill:#f3f4f2;}.cls-106{fill:#322f36;}.cls-107{fill:#d4d5d7;}.cls-108{fill:#363135;}.cls-109{fill:#3e404d;}.cls-110{fill:#18171c;}.cls-111{fill:#39343a;}.cls-112{fill:#2d2324;}.cls-113{fill:#14181c;}.cls-114{fill:#7c7c85;}.cls-115{fill:#c6c7cc;}.cls-116{fill:#e4e5df;}.cls-117{fill:#a4a3a8;}.cls-118{fill:#2d282e;}.cls-119{fill:#f6f6ee;}.cls-120{fill:#413c3d;}.cls-121{fill:#4c4648;}.cls-122{fill:#dbd6d3;}.cls-123{fill:#d8d7d5;}.cls-124{fill:#f5f6f6;}.cls-125{fill:#d6d6d6;}.cls-126{fill:#dbdbdd;}.cls-127{fill:#797073;}.cls-128{fill:#d7d7d8;}.cls-129{fill:#e7e6e4;}.cls-130{fill:#413f4c;}.cls-131{fill:#b2b6b9;}.cls-132{fill:#3e3f43;}.cls-133{fill:#131b25;}.cls-134{fill:#272227;}.cls-135{fill:#555157;}.cls-136{fill:#d5d0cc;}.cls-137{fill:#4c4a4f;}.cls-138{fill:#c9c4c2;}.cls-139{fill:#2a252b;}.cls-140{fill:#d9ddde;}.cls-141{fill:#f3f7f6;}.cls-142{fill:#f3f2f7;}.cls-143{fill:#d1d1d2;}.cls-144{fill:#ebede7;}.cls-145{fill:#888b92;}.cls-146{fill:#1f1d24;}.cls-147{fill:#a9abae;}.cls-148{fill:#c8c9cd;}.cls-149{fill:#171c22;}.cls-150{fill:#70707c;}.cls-151{fill:#5c5659;}.cls-152{fill:#323944;}.cls-153{fill:#524e4f;}.cls-154{fill:#4c444c;}.cls-155{fill:#787a7d;}.cls-156{fill:#e8e9ec;}.cls-157{fill:#211c20;}.cls-158{fill:#282c38;}.cls-159{fill:#9a989b;}.cls-160{fill:#4c4d4e;}.cls-161{fill:#929196;}.cls-162{fill:#3e383a;}.cls-163{fill:#dcddda;}.cls-164{fill:#bfb3b3;}.cls-165{fill:#28272d;}.cls-166{fill:#848685;}.cls-167{fill:#918d8c;}.cls-168{fill:#484349;}.cls-169{fill:#504951;}.cls-170{fill:#c5c6ca;}.cls-171{fill:#fffffc;}.cls-172{fill:#6b706f;}.cls-173{fill:#bebec6;}.cls-174{fill:#332826;}.cls-175{fill:#392f30;}.cls-176{fill:#8d8f8c;}.cls-177{fill:#bab9ba;}.cls-178{fill:#eeedeb;}.cls-179{fill:#808281;}.cls-180{fill:#615f60;}.cls-181{fill:#2c2827;}.cls-182{fill:#f2f1ef;}.cls-183{fill:#838483;}.cls-184{fill:#d5d5d0;}.cls-185{fill:#363032;}.cls-186{fill:#aeaeb3;}.cls-187{fill:#5d515b;}.cls-188{fill:#414045;}.cls-189{fill:#231f22;}.cls-190{fill:#b6aaaa;}.cls-191{fill:#7f797d;}.cls-192{fill:#646267;}.cls-193{fill:#cfd0d3;}.cls-194{fill:#373a46;}.cls-195{fill:#91948b;}.cls-196{fill:#474145;}.cls-197{fill:#cacbd0;}.cls-198{fill:#d8d8d6;}.cls-199{fill:#e4e0df;}.cls-200{fill:#2f1f22;}.cls-201{fill:#606266;}.cls-202{fill:#261c1d;}.cls-203{fill:#444450;}.cls-204{fill:#b5b8bc;}.cls-205{fill:#949597;}.cls-206{fill:#e3dfdc;}.cls-207{fill:#2b2227;}.cls-208{fill:#11181e;}.cls-209{fill:#30232a;}.cls-210{fill:#4f4f5b;}.cls-211{fill:#dee3e9;}.cls-212{fill:#cbc9c8;}.cls-213{fill:#ecedf0;}.cls-214{fill:#766b69;}.cls-215{fill:#e1e3e2;}.cls-216{fill:#f4f4f2;}.cls-217{fill:#2b2022;}.cls-218{fill:#e7e2de;}.cls-219{fill:#f6f7f2;}.cls-220{fill:#1f191d;}.cls-221{fill:#f0f0ee;}.cls-222{fill:#8a7f83;}.cls-223{fill:#f9f8f4;}.cls-224{fill:#534d4f;}.cls-225{fill:#b7bcc0;}.cls-226{fill:#fcfcfa;}.cls-227{fill:#dcdee3;}.cls-228{fill:#838582;}.cls-229{fill:#b2b4b3;}.cls-230{fill:#2a2a29;}.cls-231{fill:#8e8d8f;}.cls-232{fill:#fafcfe;}.cls-233{fill:#d8d8d9;}.cls-234{fill:#202022;}.cls-235{fill:#312829;}.cls-236{fill:#493848;}.cls-237{fill:#525752;}.cls-238{fill:#5d6d7d;}.cls-239{fill:#f9f8f6;}.cls-240{fill:#41363a;}.cls-241{fill:#938889;}.cls-242{fill:#bdb3b2;}.cls-243{fill:#615f64;}.cls-244{fill:#353d4a;}.cls-245{fill:#716e71;}.cls-246{fill:#1d181a;}.cls-247{fill:#eaeaec;}.cls-248{fill:#cac8cb;}.cls-249{fill:#e5e3d7;}.cls-250{fill:#797576;}.cls-251{fill:#939798;}.cls-252{fill:#ddddd5;}.cls-253{fill:#4f4e53;}.cls-254{fill:#dadade;}.cls-255{fill:#292526;}.cls-256{fill:#19171a;}.cls-257{fill:silver;}.cls-258{fill:#eeedee;}.cls-259{fill:#d6d7db;}.cls-260{fill:#f6f6f4;}.cls-261{fill:#565459;}.cls-262{fill:#423837;}.cls-263{fill:#393335;}.cls-264{fill:#d3d3d1;}.cls-265{fill:#5c5d60;}.cls-266{fill:#3c3233;}.cls-267{fill:#aba9a9;}.cls-268{fill:#d3d2d5;}.cls-269{fill:#342e30;}.cls-270{fill:#20212b;}.cls-271{fill:#3c3636;}.cls-272{fill:#dcdedd;}.cls-273{fill:#c3c3c3;}.cls-274{fill:#c3c3be;}.cls-275{fill:#463d3e;}.cls-276{fill:#5a4859;}.cls-277{fill:#838287;}.cls-278{fill:#eceaef;}.cls-279{fill:#373135;}.cls-280{fill:#282a39;}.cls-281{fill:#bcbcb7;}.cls-282{fill:#a0a5a8;}.cls-283{fill:#4c4651;}.cls-284{fill:#554c4a;}.cls-285{fill:#d1cfcb;}.cls-286{fill:#2c2b30;}.cls-287{fill:#fafaf8;}.cls-288{fill:#403637;}.cls-289{fill:#36333a;}.cls-290{fill:#b4b1b8;}.cls-291{fill:#625f59;}.cls-292{fill:#211517;}.cls-293{fill:#f5fafd;}.cls-294{fill:#332729;}.cls-295{fill:#a2a7a3;}.cls-296{fill:#211f22;}.cls-297{fill:#1c1a1f;}.cls-298{fill:#ededee;}.cls-299{fill:#7d7071;}.cls-300{fill:#222027;}.cls-301{fill:#353736;}.cls-302{fill:#2f2a2e;}.cls-303{fill:#383745;}.cls-304{fill:#d7d2ce;}.cls-305{fill:#47474f;}.cls-306{fill:#818c9e;}.cls-307{fill:#ede7e7;}.cls-308{fill:#aeadaf;}.cls-309{fill:#45393b;}.cls-310{fill:#e0e0de;}.cls-311{fill:#f3f2ee;}.cls-312{fill:#2a201f;}.cls-313{fill:#bdb9b6;}.cls-314{fill:#a7a8a5;}.cls-315{fill:#212127;}.cls-316{fill:#332a2f;}.cls-317{fill:#939594;}.cls-318{fill:#332a2b;}.cls-319{fill:#9d9ea2;}.cls-320{fill:#e5e8ec;}.cls-321{fill:#aeafac;}.cls-322{fill:#59575c;}.cls-323{fill:#e5e5e7;}.cls-324{fill:#f2f3ef;}.cls-325{fill:#7c7171;}.cls-326{fill:#eeede9;}.cls-327{fill:#b9bbc0;}.cls-328{fill:#2d2d2d;}.cls-329{fill:#726765;}.cls-330{fill:#514e55;}.cls-331{fill:#6c6c6c;}.cls-332{fill:#f3f3f5;}.cls-333{fill:#eeefee;}.cls-334{fill:#90918c;}.cls-335{fill:#f1f0e8;}.cls-336{fill:#777179;}.cls-337{fill:#dfe0e1;}.cls-338{fill:#e6e2df;}.cls-339{fill:#1d181c;}.cls-340{fill:#cfcecc;}.cls-341{fill:#aeb0b5;}.cls-342{fill:#cbcbca;}.cls-343{fill:#a99f9f;}.cls-344{fill:#a8a5a5;}.cls-345{fill:#d4d4d6;}.cls-346{fill:#272526;}.cls-347{fill:#968c82;}.cls-348{fill:#a7a49f;}.cls-349{fill:#f5f7f6;}.cls-350{fill:#32292e;}.cls-351{fill:#60605a;}.cls-352{fill:#9f9b9b;}.cls-353{fill:#332d2f;}.cls-354{fill:#ccccca;}.cls-355{fill:#d9d9d7;}.cls-356{fill:#eeeeec;}.cls-357{fill:#484547;}.cls-358{fill:#353132;}.cls-359{fill:#747372;}.cls-360{fill:#3f3e47;}.cls-361{fill:#d2d3d4;}.cls-362{fill:#2f292b;}.cls-363{fill:#959599;}.cls-364{fill:#282428;}.cls-365{fill:#f2f2f2;}.cls-366{fill:#1c2027;}.cls-367{fill:#a5a29d;}.cls-368{fill:#ded4d5;}.cls-369{fill:#94898a;}</style></defs><title>Artboard 1 cópia 3</title><g id="WT"><polygon class="cls-1" points="481.43 913.23 529.1 910.41 556.25 901.22 528.15 937.21 481.43 913.23"/><polygon class="cls-2" points="511.69 773.28 541.55 783.96 515.46 804.64 511.69 773.28"/><polygon class="cls-3" points="304.54 371.48 287.45 416.02 280.7 326.17 304.54 371.48"/><polygon class="cls-4" points="491.24 559.97 519.22 624.96 492.3 769.64 491.24 559.97"/><polygon class="cls-5" points="646.45 531.23 645.31 564.56 627.22 536.35 646.45 531.23"/><polygon class="cls-6" points="734.75 474.6 702.78 478.99 724.7 463.85 734.75 474.6"/><polygon class="cls-7" points="461.23 887.14 481.43 899.6 431.85 891.37 461.23 887.14"/><polygon class="cls-8" points="130.14 435.29 176.68 429.53 148.82 492.88 130.14 435.29"/><polygon class="cls-9" points="431.85 891.37 481.43 913.23 429.66 903.13 431.85 891.37"/><polygon class="cls-10" points="286.57 759.11 244.21 710.63 292.51 710.28 286.57 759.11"/><polygon class="cls-11" points="619.36 477.77 609.13 491.71 584.33 439.4 619.36 477.77"/><polygon class="cls-12" points="781.97 399.27 822.96 395.42 808.23 429.53 781.97 399.27"/><polygon class="cls-13" points="655.75 790.78 676.71 755.53 684.56 776.79 655.75 790.78"/><polygon class="cls-14" points="105.73 156.42 118.79 177.81 94.91 188.74 105.73 156.42"/><polygon class="cls-15" points="541.55 783.96 550.01 796.42 535.2 813.81 541.55 783.96"/><polygon class="cls-16" points="330.83 225.05 351.85 266.42 319.15 253.96 330.83 225.05"/><polygon class="cls-17" points="585.88 375.27 610.99 366.89 584.33 439.4 585.88 375.27"/><polygon class="cls-18" points="639.25 140.99 607.07 156.42 587.23 148.66 639.25 140.99"/><polygon class="cls-19" points="667.54 186.74 703.04 229.34 616.06 200.27 667.54 186.74"/><polygon class="cls-20" points="658.25 485.44 681.98 493.9 655.78 491.85 658.25 485.44"/><polygon class="cls-21" points="421.14 495.75 434.36 552.69 391.85 536.01 421.14 495.75"/><polygon class="cls-22" points="375.79 491.71 359.75 496.88 359.11 481.09 375.79 491.71"/><polygon class="cls-23" points="434.44 332.65 456.19 349.77 430.88 385.54 434.44 332.65"/><polygon class="cls-24" points="340.47 319.12 365.74 295.68 357.57 346.18 340.47 319.12"/><polygon class="cls-25" points="359.75 496.88 367.87 514.99 352.36 510.19 359.75 496.88"/><polygon class="cls-8" points="663.36 471.91 682.09 474.44 658.25 485.44 663.36 471.91"/><polygon class="cls-26" points="862.41 206.96 833.4 195.79 881.21 184.86 862.41 206.96"/><polygon class="cls-27" points="827.35 801.03 765.65 771.12 787.22 743.42 827.35 801.03"/><polygon class="cls-28" points="300.35 849.19 289.54 796.18 315.02 841.08 300.35 849.19"/><polygon class="cls-29" points="421.14 495.75 491.24 559.97 434.36 552.69 421.14 495.75"/><polygon class="cls-30" points="251.61 611.51 320.9 615.97 291.76 643.3 251.61 611.51"/><polygon class="cls-29" points="560.13 495.96 490.18 458.59 555.19 383.11 560.13 495.96"/><polygon class="cls-31" points="618.57 564.41 598.11 547.11 616.42 536.79 618.57 564.41"/><polygon class="cls-9" points="553.07 891.37 519.45 879.39 565.62 856.82 553.07 891.37"/><polygon class="cls-32" points="693.72 495.66 703.78 518.85 685.53 511.24 693.72 495.66"/><polygon class="cls-33" points="227.14 319.12 274.98 224.58 319.15 253.96 227.14 319.12"/><polygon class="cls-34" points="418.04 777.65 434.9 796.42 395.41 799.95 418.04 777.65"/><polygon class="cls-35" points="395.41 799.95 369.79 809.93 345.83 771.63 395.41 799.95"/><polygon class="cls-36" points="236.98 729.93 268.63 766.29 219.78 771.46 236.98 729.93"/><polygon class="cls-2" points="684.56 776.79 698.35 759.11 695.45 795.92 684.56 776.79"/><polygon class="cls-37" points="386.13 599.23 434.36 552.69 416.1 678.73 386.13 599.23"/><polygon class="cls-38" points="698.35 759.11 684.56 776.79 676.71 755.53 698.35 759.11"/><polygon class="cls-39" points="490.71 420.45 490.18 458.59 430.88 385.54 490.71 420.45"/><polygon class="cls-40" points="319.15 253.96 340.47 319.12 280.7 326.17 319.15 253.96"/><polygon class="cls-41" points="357.57 346.18 345.7 359.02 340.47 319.12 357.57 346.18"/><polygon class="cls-42" points="243.5 497.92 222.52 494 235.04 481.09 243.5 497.92"/><polygon class="cls-8" points="651.5 485.14 647.09 492.08 644.17 485.56 651.5 485.14"/><polygon class="cls-43" points="774.93 355.96 704.22 326.17 725.85 321.06 774.93 355.96"/><polygon class="cls-44" points="889.04 89.91 872.65 58.76 905.44 63.35 889.04 89.91"/><polygon class="cls-45" points="462.9 125.54 499 169.99 456.16 147.08 462.9 125.54"/><polygon class="cls-46" points="679.66 539.25 658.6 546.43 659.08 529.53 679.66 539.25"/><polygon class="cls-47" points="679.66 539.25 700.58 542.73 681.27 562.93 679.66 539.25"/><polygon class="cls-48" points="502.3 361.37 518.04 387.69 490.71 420.45 502.3 361.37"/><polygon class="cls-49" points="456.16 147.08 499 169.99 442.23 164.41 456.16 147.08"/><polygon class="cls-19" points="708 179.46 667.54 186.74 705.98 167 708 179.46"/><polygon class="cls-23" points="550.48 332.65 555.19 383.11 534.74 369.89 550.48 332.65"/><polygon class="cls-50" points="420.56 767.27 426.21 768.92 418.04 777.65 420.56 767.27"/><polygon class="cls-51" points="376.57 694.95 358.63 753.64 337.46 710.46 376.57 694.95"/><polygon class="cls-52" points="445.64 270.88 458.06 285.1 365.74 295.68 445.64 270.88"/><polygon class="cls-29" points="456.64 935.79 492.45 964.24 448.82 977.87 456.64 935.79"/><polygon class="cls-53" points="824.69 263.6 846.64 317.42 781.44 257.13 824.69 263.6"/><polygon class="cls-54" points="359.44 833.38 385.78 861.05 324.89 832.14 327.02 803.71 359.44 833.38"/><polygon class="cls-55" points="412.69 732.84 421.98 754.58 404.11 746.24 412.69 732.84"/><polygon class="cls-56" points="733.3 611.51 710.39 679.26 693.16 643.3 733.3 611.51"/><polygon class="cls-57" points="763.81 529.71 776.68 517.08 784.96 541.76 763.81 529.71"/><polygon class="cls-58" points="745.65 413.61 704.22 326.17 767.89 403.21 745.65 413.61"/><polygon class="cls-29" points="842.44 492.57 906.89 461.33 829.18 564.94 842.44 492.57"/><polygon class="cls-59" points="139.5 231.46 145.46 245.19 134.92 253.34 139.5 231.46"/><polygon class="cls-60" points="416.1 678.73 376.57 694.95 376.79 642.59 416.1 678.73"/><polygon class="cls-61" points="873.21 328.8 822.96 395.42 846.64 317.42 873.21 328.8"/><polygon class="cls-62" points="338.44 478.16 359.11 481.09 340.73 485.56 338.44 478.16"/><polygon class="cls-30" points="568.82 678.73 598.79 599.23 608.13 642.59 568.82 678.73"/><polygon class="cls-63" points="568.17 212.38 616.06 200.27 667.08 258.4 568.17 212.38"/><polygon class="cls-64" points="593.07 536.01 617.04 514.99 616.42 536.79 593.07 536.01"/><polygon class="cls-65" points="766.45 589.45 732.6 591.65 742.47 563.44 766.45 589.45"/><polygon class="cls-66" points="166.62 188.74 214.13 188.74 180.95 235.39 166.62 188.74"/><polygon class="cls-67" points="625.15 496.88 596.8 508.39 609.13 491.71 625.15 496.88"/><polygon class="cls-68" points="208.24 517.08 231.76 451.2 222.52 494 208.24 517.08"/><polygon class="cls-69" points="161.52 395.45 209.99 355.96 202.95 399.27 161.52 395.45"/><polygon class="cls-8" points="906.89 461.33 850.64 603.24 829.18 564.94 906.89 461.33"/><polygon class="cls-70" points="326.67 485.44 329.39 478.45 333.42 485.14 326.67 485.44"/><polygon class="cls-71" points="231.76 451.2 260.21 463.85 250.17 474.6 231.76 451.2"/><polygon class="cls-72" points="664.02 741.66 692.4 710.28 676.71 755.53 664.02 741.66"/><polygon class="cls-73" points="492.65 295.09 526.85 285.1 523.92 312.48 492.65 295.09"/><polygon class="cls-74" points="901.8 120.46 868.15 143.38 845.14 104.01 901.8 120.46"/><polygon class="cls-32" points="291.2 495.66 299.39 511.24 281.13 518.85 291.2 495.66"/><polygon class="cls-75" points="449.71 813.81 468.05 830.73 426.48 827.68 434.9 796.42 449.71 813.81"/><polygon class="cls-76" points="326.31 546.42 339.61 564.56 303.64 562.93 326.31 546.42"/><polygon class="cls-77" points="345.7 359.02 342.22 407.2 333.77 373.24 345.7 359.02"/><polygon class="cls-78" points="221.11 529.71 284.34 542.73 242.44 563.44 221.11 529.71"/><polygon class="cls-52" points="365.74 295.68 458.06 285.1 357.57 346.18 365.74 295.68"/><polygon class="cls-79" points="670.14 841.5 765.65 771.12 765.1 831.44 670.14 841.5"/><polygon class="cls-80" points="785.87 195.79 868.15 143.38 833.4 195.79 785.87 195.79"/><polygon class="cls-81" points="529.56 202.43 499.96 252.35 489.37 184.62 529.56 202.43"/><polygon class="cls-82" points="751.91 646.82 766.45 589.45 767.46 636.83 751.91 646.82"/><polygon class="cls-83" points="332.17 468.56 346 469.5 338.44 478.16 332.17 468.56"/><polygon class="cls-84" points="631.34 527.22 646.45 531.23 627.22 536.35 631.34 527.22"/><polygon class="cls-85" points="489.37 184.62 469.73 208.37 387.96 196.49 489.37 184.62"/><polygon class="cls-86" points="682.09 474.44 702.78 478.99 681.98 493.9 682.09 474.44"/><polygon class="cls-87" points="329.13 491.85 321.22 514.97 309.52 505.88 329.13 491.85"/><polygon class="cls-88" points="442.23 164.41 489.37 184.62 387.96 196.49 442.23 164.41"/><polygon class="cls-48" points="589.51 799.95 558.45 827.68 550.01 796.42 589.51 799.95"/><polygon class="cls-2" points="473.22 773.28 469.46 804.64 443.36 783.96 473.22 773.28"/><polygon class="cls-83" points="652.75 468.56 646.48 478.16 638.91 469.5 652.75 468.56"/><polygon class="cls-12" points="176.68 429.53 161.52 395.45 202.95 399.27 176.68 429.53"/><polygon class="cls-89" points="780.2 434.94 783.73 515.05 784.96 541.76 776.68 517.08 780.2 434.94"/><polygon class="cls-90" points="767.89 403.21 774.93 355.96 781.97 399.27 767.89 403.21"/><polygon class="cls-53" points="175.31 256.55 218.56 250.08 153.29 310.49 175.31 256.55"/><polygon class="cls-91" points="94.56 56.3 110.96 82.86 75.05 116.23 94.56 56.3"/><polygon class="cls-92" points="131.85 136.32 166.62 188.74 118.79 177.81 105.73 156.42 131.85 136.32"/><polygon class="cls-11" points="365.56 477.77 400.59 439.4 375.79 491.71 365.56 477.77"/><polygon class="cls-93" points="663.36 471.91 658.25 485.44 655.53 478.45 663.36 471.91"/><polygon class="cls-60" points="608.13 642.59 598.79 599.23 630.68 607.04 608.13 642.59"/><polygon class="cls-94" points="404.11 746.24 395.41 799.95 358.63 753.64 404.11 746.24"/><polygon class="cls-60" points="710.39 679.26 668.43 679.26 693.16 643.3 710.39 679.26"/><polygon class="cls-95" points="749.87 281.89 711.92 273.64 725.02 231.63 750.05 281.93 749.87 281.89"/><polygon class="cls-9" points="419.3 856.82 461.23 887.14 431.85 891.37 419.3 856.82"/><polygon class="cls-96" points="767.46 636.83 784.96 541.76 801.23 540.7 801.22 540.86 767.46 636.83"/><polygon class="cls-97" points="492.3 769.64 500.65 838.49 484.27 838.49 492.3 769.64"/><polygon class="cls-22" points="609.13 491.71 625.8 481.09 625.15 496.88 609.13 491.71"/><polygon class="cls-93" points="309.52 505.88 302.94 493.9 329.13 491.85 309.52 505.88"/><polygon class="cls-51" points="664.02 615.97 608.13 642.59 630.68 607.04 664.02 615.97"/><polygon class="cls-35" points="780.2 434.94 781.97 399.27 808.23 429.53 780.2 434.94"/><polygon class="cls-98" points="105.26 388.59 130.14 435.29 80.81 459.27 105.26 388.59"/><polygon class="cls-97" points="469.46 804.64 492.26 769.7 469.93 810.29 469.46 804.64"/><polygon class="cls-99" points="742.47 563.44 763.81 529.71 766.45 589.45 742.47 563.44"/><polygon class="cls-100" points="499 169.99 525.8 141.4 537.78 167 537.88 167.25 536.38 167.82 499 169.99"/><polygon class="cls-101" points="302.84 474.44 326.67 485.44 302.94 493.9 302.84 474.44"/><polygon class="cls-102" points="239.27 413.61 231.76 451.2 204.71 434.94 239.27 413.61"/><polygon class="cls-103" points="702.78 478.99 721.3 499.28 693.72 495.66 702.78 478.99"/><polygon class="cls-104" points="583.35 126.81 537.78 167 525.8 141.4 583.35 126.81"/><polygon class="cls-29" points="437.27 719.9 473.22 773.28 439.13 759.29 437.27 719.9"/><polygon class="cls-105" points="584.33 439.4 610.99 366.89 624.79 416.37 584.33 439.4"/><polygon class="cls-106" points="734.75 474.6 728.08 491.5 702.78 478.99 734.75 474.6"/><polygon class="cls-68" points="243.5 497.92 263.6 499.28 281.13 518.85 243.5 497.92"/><polygon class="cls-107" points="789.75 673.38 801.22 540.86 801.27 540.7 829.18 564.94 789.75 673.38"/><polygon class="cls-19" points="499.96 252.35 526.98 222.35 528.15 251.61 499.96 252.35"/><polygon class="cls-41" points="430.88 385.54 421.14 495.75 400.59 439.4 430.88 385.54"/><polygon class="cls-108" points="388.12 508.39 367.87 514.99 359.75 496.88 388.12 508.39"/><polygon class="cls-109" points="672.58 524.56 675.39 505.88 685.53 511.24 672.58 524.56"/><polygon class="cls-110" points="338.44 478.16 340.73 485.56 333.42 485.14 338.44 478.16"/><polygon class="cls-111" points="426.48 827.68 419.3 856.82 369.79 809.93 426.48 827.68"/><polygon class="cls-112" points="550.48 332.65 502.3 361.37 526.39 336.93 550.48 332.65"/><polygon class="cls-113" points="644.17 485.56 646.48 478.16 651.5 485.14 644.17 485.56"/><polygon class="cls-114" points="415.56 953.19 448.82 1025.46 391.09 989.15 415.56 953.19"/><polygon class="cls-115" points="217.46 636.83 199.95 541.76 218.47 589.45 217.46 636.83"/><polygon class="cls-52" points="596.83 173.78 616.06 200.27 541.55 188.15 596.83 173.78"/><polygon class="cls-116" points="442.23 164.41 333.23 179.07 408.38 151.84 442.23 164.41"/><polygon class="cls-117" points="484.27 838.49 448.07 850.01 468.05 830.73 484.27 838.49"/><polygon class="cls-118" points="702.78 478.99 698.75 465.56 724.7 463.85 702.78 478.99"/><polygon class="cls-119" points="357.57 346.18 458.06 285.1 434.44 332.65 357.57 346.18"/><polygon class="cls-120" points="180.95 235.39 253.92 189.34 218.56 250.08 180.95 235.39"/><polygon class="cls-44" points="845.14 104.01 746.08 196.39 752.06 134.21 845.14 104.01"/><polygon class="cls-121" points="253.92 189.34 180.95 235.39 214.13 188.74 253.92 189.34"/><polygon class="cls-57" points="183.71 540.88 196.78 673.03 163.63 564.49 183.64 540.7 183.71 540.88"/><polygon class="cls-122" points="469.73 317.18 486.08 331.05 474.32 334.79 469.73 317.18"/><polygon class="cls-123" points="202.25 820.81 278.75 792.43 300.35 849.19 202.25 820.81"/><polygon class="cls-29" points="664.02 615.97 645.33 646.66 608.13 642.59 664.02 615.97"/><polygon class="cls-124" points="669.43 238.92 711.92 273.64 667.08 258.4 669.43 238.92"/><polygon class="cls-125" points="209.99 355.96 161.52 395.45 145.04 352.6 209.99 355.96"/><polygon class="cls-126" points="783.73 515.05 780.2 434.94 808.23 429.53 784.96 541.76 783.73 515.05"/><polygon class="cls-127" points="295.29 433.76 256.19 432.47 287.45 416.02 295.29 433.76"/><polygon class="cls-128" points="652.75 468.56 669.37 425.3 689.63 433.76 652.75 468.56"/><polygon class="cls-15" points="463.35 815.22 468.05 830.73 449.71 813.81 463.35 815.22"/><polygon class="cls-53" points="822.96 395.42 873.21 328.8 844.02 390.28 822.96 395.42"/><polygon class="cls-51" points="354.23 607.04 376.79 642.59 320.9 615.97 354.23 607.04"/><polygon class="cls-129" points="489.37 184.62 536.38 167.82 529.56 202.43 489.37 184.62"/><polygon class="cls-9" points="365.33 822.27 419.3 856.82 359.44 833.38 365.33 822.27"/><polygon class="cls-130" points="336.45 516.96 353.57 527.21 338.46 531.23 336.45 516.96"/><polygon class="cls-94" points="626.29 753.64 589.51 799.95 580.8 746.24 626.29 753.64"/><polygon class="cls-46" points="305.26 539.25 325.84 529.53 326.31 546.42 305.26 539.25"/><polygon class="cls-131" points="892.99 760.93 847.3 734.73 888.87 667.15 892.99 760.93"/><polygon class="cls-94" points="676.71 755.53 655.75 790.78 639.08 771.63 676.71 755.53"/><polygon class="cls-132" points="184.71 729.93 219.78 771.46 125.48 734.87 184.71 729.93"/><polygon class="cls-133" points="647.09 492.08 651.5 485.14 655.78 491.85 647.09 492.08"/><polygon class="cls-134" points="627.22 536.35 616.42 536.79 617.04 514.99 627.22 536.35"/><polygon class="cls-135" points="391.85 536.01 386.8 547.11 368.5 536.79 391.85 536.01"/><polygon class="cls-136" points="492.65 295.09 469.73 317.18 460.8 303.79 492.65 295.09"/><polygon class="cls-8" points="340.73 485.56 337.83 492.08 333.42 485.14 340.73 485.56"/><polygon class="cls-70" points="655.78 491.85 651.5 485.14 658.25 485.44 655.78 491.85"/><polygon class="cls-9" points="525.33 902.19 481.43 913.23 481.43 899.6 525.33 902.19"/><polygon class="cls-6" points="734.75 474.6 753.14 451.2 762.39 494 749.88 481.09 734.75 474.6"/><polygon class="cls-19" points="387.96 196.49 351.85 266.42 330.83 225.05 387.96 196.49"/><polygon class="cls-46" points="300.35 776.79 327.02 803.71 289.54 796.18 300.35 776.79"/><polygon class="cls-137" points="616.06 200.27 596.83 173.78 667.54 186.74 616.06 200.27"/><polygon class="cls-12" points="175.31 256.55 134.92 253.34 145.46 245.19 175.31 256.55"/><polygon class="cls-15" points="469.93 810.29 484.27 838.49 463.35 815.22 469.93 810.29"/><polygon class="cls-68" points="259.74 522.43 281.13 518.85 293.99 532.04 259.74 522.43"/><polygon class="cls-52" points="529.56 202.43 568.17 212.38 526.98 222.35 529.56 202.43"/><polygon class="cls-138" points="667.08 258.4 644.1 294.44 638.87 267.81 667.08 258.4"/><polygon class="cls-139" points="289.54 796.18 300.35 849.19 278.75 792.43 286.57 759.11 289.54 796.18"/><polygon class="cls-140" points="299.39 511.24 293.99 532.04 281.13 518.85 299.39 511.24"/><polygon class="cls-141" points="763.81 529.71 725.17 522.43 741.41 497.92 763.81 529.71"/><polygon class="cls-29" points="545.78 759.29 511.69 773.28 551.18 720.59 545.78 759.29"/><polygon class="cls-142" points="556.66 901.08 539.2 981.87 528.15 937.21 556.25 901.22 556.66 901.08"/><polygon class="cls-143" points="873.21 328.8 846.64 317.42 889.57 278.9 873.21 328.8"/><polygon class="cls-144" points="469.73 229.28 458.06 285.1 445.64 270.88 469.73 229.28"/><polygon class="cls-145" points="236.98 729.93 219.78 771.46 184.71 729.93 236.98 729.93"/><polygon class="cls-146" points="663.36 471.91 652.75 468.56 678.69 464.08 663.36 471.91"/><polygon class="cls-147" points="565.62 856.82 625.47 833.38 599.14 861.05 565.62 856.82"/><polygon class="cls-148" points="376.57 694.95 404.11 746.24 358.63 753.64 376.57 694.95"/><polygon class="cls-149" points="651.5 485.14 646.48 478.16 655.53 478.45 651.5 485.14"/><polygon class="cls-150" points="312.34 524.56 293.99 532.04 299.39 511.24 312.34 524.56"/><polygon class="cls-80" points="154.85 96.96 253.92 189.34 214.13 188.74 154.85 96.96"/><polygon class="cls-92" points="868.15 143.38 894.27 163.47 881.21 184.86 833.4 195.79 868.15 143.38"/><polygon class="cls-151" points="801.22 540.86 789.75 673.38 767.46 636.83 801.22 540.86"/><polygon class="cls-29" points="492.45 964.24 528.15 937.21 539.2 981.87 492.45 964.24"/><polygon class="cls-152" points="625.8 481.09 644.17 485.56 625.15 496.88 625.8 481.09"/><polygon class="cls-153" points="681.27 562.93 658.6 546.43 679.66 539.25 681.27 562.93"/><polygon class="cls-29" points="303.64 562.93 354.23 607.04 320.9 615.97 303.64 562.93"/><polygon class="cls-154" points="627.22 536.35 617.04 514.99 631.34 527.22 627.22 536.35"/><polygon class="cls-100" points="587.23 148.66 596.83 173.78 536.38 167.82 537.88 167.25 587.23 148.66"/><polygon class="cls-155" points="749.17 730.82 787.22 743.42 765.65 771.12 749.17 730.82"/><polygon class="cls-156" points="765.1 831.44 765.65 771.12 827.35 801.03 765.1 831.44"/><polygon class="cls-1" points="551.18 720.59 511.69 773.28 492.3 769.64 551.18 720.59"/><polygon class="cls-5" points="357.69 536.35 339.61 564.56 338.46 531.23 357.69 536.35"/><polygon class="cls-12" points="154.85 96.96 214.13 188.74 131.85 136.32 154.85 96.96"/><polygon class="cls-157" points="469.46 804.64 469.93 810.29 463.35 815.22 469.46 804.64"/><polygon class="cls-158" points="325.84 529.53 312.34 524.56 321.22 514.97 325.84 529.53"/><polygon class="cls-159" points="763.81 529.71 762.39 494 776.68 517.08 763.81 529.71"/><polygon class="cls-49" points="677.64 155.36 596.83 173.78 607.07 156.42 677.64 155.36"/><polygon class="cls-2" points="492.3 769.64 484.27 838.49 469.93 810.29 492.26 769.7 492.3 769.64"/><polygon class="cls-13" points="599.14 861.05 619.59 885.03 589.51 890.43 599.14 861.05"/><polygon class="cls-59" points="860.51 238.51 865.08 260.39 854.55 252.24 860.51 238.51"/><polygon class="cls-50" points="566.88 777.65 558.72 768.92 564.36 767.27 566.88 777.65"/><polygon class="cls-160" points="627.35 346.18 619.16 295.68 644.45 319.12 627.35 346.18"/><polygon class="cls-161" points="325.84 529.53 305.26 539.25 312.34 524.56 325.84 529.53"/><polygon class="cls-162" points="819.05 242.44 746.08 196.39 785.87 195.79 819.05 242.44"/><polygon class="cls-163" points="218.56 250.08 274.98 224.58 153.29 310.49 218.56 250.08"/><polygon class="cls-76" points="293.99 532.04 305.26 539.25 284.34 542.73 293.99 532.04"/><polygon class="cls-164" points="596.83 173.78 677.64 155.36 667.54 186.74 596.83 173.78"/><polygon class="cls-165" points="580.8 746.24 566.88 777.65 564.36 767.27 562.95 754.58 580.8 746.24"/><polygon class="cls-166" points="862.41 206.96 881.21 184.86 885.34 244.4 862.41 206.96"/><polygon class="cls-150" points="593.07 536.01 598.11 547.11 550.25 553.08 593.07 536.01"/><polygon class="cls-62" points="646.48 478.16 644.17 485.56 625.8 481.09 646.48 478.16"/><polygon class="cls-78" points="742.47 563.44 700.58 542.73 763.81 529.71 742.47 563.44"/><polygon class="cls-98" points="854.57 435.27 889.04 396.63 906.61 460.55 906.36 461.06 854.57 435.27"/><polygon class="cls-30" points="664.02 615.97 733.3 611.51 693.16 643.3 664.02 615.97"/><polygon class="cls-72" points="668.43 679.26 710.39 679.26 692.4 710.28 668.43 679.26"/><polygon class="cls-111" points="358.63 753.64 395.41 799.95 345.83 771.63 358.63 753.64"/><polygon class="cls-52" points="351.85 266.42 469.73 229.28 365.74 295.68 351.85 266.42"/><polygon class="cls-29" points="416.1 678.73 437.27 719.9 412.69 732.84 416.1 678.73"/><polygon class="cls-148" points="580.8 746.24 608.34 694.95 626.29 753.64 580.8 746.24"/><polygon class="cls-167" points="166.62 188.74 180.95 235.39 139.5 231.46 166.62 188.74"/><polygon class="cls-168" points="824.69 263.6 819.05 242.44 854.55 252.24 824.69 263.6"/><polygon class="cls-42" points="749.88 481.09 762.39 494 741.41 497.92 749.88 481.09"/><polygon class="cls-169" points="282.13 478.99 302.94 493.9 291.2 495.66 282.13 478.99"/><polygon class="cls-170" points="905.09 195.79 894.27 163.47 924.95 123.28 905.09 195.79"/><polygon class="cls-171" points="434.44 332.65 399.04 375.26 373.94 366.89 434.44 332.65"/><polygon class="cls-172" points="562.95 754.58 564.36 767.27 558.72 768.92 562.95 754.58"/><polygon class="cls-173" points="94.91 188.74 118.79 177.81 114.66 237.34 94.91 188.74"/><polygon class="cls-174" points="680.38 371.48 669.37 425.3 651.15 373.24 680.38 371.48"/><polygon class="cls-41" points="555.19 383.11 518.04 387.69 534.74 369.89 555.19 383.11"/><polygon class="cls-47" points="303.64 562.93 339.61 564.56 354.23 607.04 303.64 562.93"/><polygon class="cls-175" points="320.9 741.66 336.06 749.41 308.2 755.53 320.9 741.66"/><polygon class="cls-176" points="125.48 734.87 92.09 665.68 144.28 697.3 125.48 734.87"/><polygon class="cls-13" points="539.2 981.87 573.29 951.55 538.09 1027.39 538.09 1027.4 536.97 1028.28 539.2 981.87"/><polygon class="cls-76" points="679.66 539.25 690.93 532.04 700.58 542.73 679.66 539.25"/><polygon class="cls-4" points="519.22 624.96 551.18 720.59 492.3 769.64 519.22 624.96"/><polygon class="cls-106" points="250.17 474.6 282.13 478.99 256.84 491.5 250.17 474.6"/><polygon class="cls-2" points="369.79 809.93 419.3 856.82 365.33 822.27 369.79 809.93"/><polygon class="cls-177" points="624.79 416.37 642.7 407.2 638.91 469.5 624.79 416.37"/><polygon class="cls-140" points="685.53 511.24 703.78 518.85 690.93 532.04 685.53 511.24"/><polygon class="cls-79" points="365.33 885.03 394.54 904.54 367.55 937.33 365.33 885.03"/><polygon class="cls-178" points="667.54 186.74 677.64 155.36 705.98 167 667.54 186.74"/><polygon class="cls-15" points="469.46 804.64 463.35 815.22 443.36 783.96 469.46 804.64"/><polygon class="cls-179" points="894.27 163.47 868.15 143.38 901.8 120.46 894.27 163.47"/><polygon class="cls-154" points="353.57 527.21 367.87 514.99 357.69 536.35 353.57 527.21"/><polygon class="cls-180" points="244.21 710.63 236.98 729.93 196.78 673.03 244.21 710.63"/><polygon class="cls-181" points="217.46 636.83 196.78 673.03 183.71 540.88 217.46 636.83"/><polygon class="cls-182" points="518.04 124.11 525.8 141.4 462.9 125.54 518.04 124.11"/><polygon class="cls-183" points="638.91 469.5 619.36 477.77 624.79 416.37 638.91 469.5"/><polygon class="cls-15" points="514.99 810.29 521.57 815.22 500.65 838.49 514.99 810.29"/><polygon class="cls-184" points="560.13 495.96 596.8 508.39 593.07 536.01 560.13 495.96"/><polygon class="cls-185" points="525.8 141.4 499 169.99 462.9 125.54 525.8 141.4"/><polygon class="cls-72" points="566.88 777.65 550.01 796.42 541.55 783.96 556.6 777.65 566.88 777.65"/><polygon class="cls-53" points="773.04 326.15 725.85 321.06 749.96 282.07 773.04 326.15"/><polygon class="cls-186" points="320.9 615.97 251.61 611.51 252.31 591.65 320.9 615.97"/><polygon class="cls-110" points="658.25 485.44 651.5 485.14 655.53 478.45 658.25 485.44"/><polygon class="cls-44" points="752.06 134.21 708.69 179.34 708 179.46 705.98 167 752.06 134.21"/><polygon class="cls-150" points="685.53 511.24 690.93 532.04 672.58 524.56 685.53 511.24"/><polygon class="cls-187" points="519.45 879.39 525.33 902.19 497.59 890.91 519.45 879.39"/><polygon class="cls-35" points="202.95 399.27 204.71 434.94 176.68 429.53 202.95 399.27"/><polygon class="cls-188" points="860.51 238.51 833.4 195.79 862.41 206.96 860.51 238.51"/><polygon class="cls-37" points="598.79 599.23 568.82 678.73 550.25 553.08 598.79 599.23"/><polygon class="cls-43" points="644.45 319.12 639.22 359.02 627.35 346.18 644.45 319.12"/><polygon class="cls-7" points="497.59 890.91 481.43 899.6 461.23 887.14 497.59 890.91"/><polygon class="cls-189" points="819.05 242.44 824.69 263.6 781.44 257.13 819.05 242.44"/><polygon class="cls-190" points="489.37 184.62 499.96 252.35 469.73 208.37 489.37 184.62"/><polygon class="cls-191" points="689.63 433.76 678.69 464.08 652.75 468.56 689.63 433.76"/><polygon class="cls-192" points="865.08 260.39 846.64 317.42 824.69 263.6 865.08 260.39"/><polygon class="cls-193" points="646.45 531.23 658.6 546.43 645.31 564.56 646.45 531.23"/><polygon class="cls-194" points="659.08 529.53 648.48 516.96 663.68 514.97 659.08 529.53"/><polygon class="cls-195" points="749.17 730.82 698.35 759.11 740.71 710.63 749.17 730.82"/><polygon class="cls-196" points="801.27 540.7 808.23 429.53 842.44 492.57 801.27 540.7"/><polygon class="cls-137" points="749.96 282.07 725.85 321.06 711.92 273.64 749.87 281.89 749.96 282.07"/><polygon class="cls-197" points="766.45 589.45 751.91 646.82 733.3 611.51 766.45 589.45"/><polygon class="cls-112" points="434.44 332.65 460.8 303.79 456.19 349.77 434.44 332.65"/><polygon class="cls-198" points="274.98 224.58 227.14 319.12 153.29 310.49 274.98 224.58"/><polygon class="cls-199" points="541.55 188.15 568.17 212.38 529.56 202.43 541.55 188.15"/><polygon class="cls-200" points="482.31 283.28 492.65 295.09 458.06 285.1 482.31 283.28"/><polygon class="cls-201" points="315.02 841.08 365.33 885.03 300.35 849.19 315.02 841.08"/><polygon class="cls-128" points="315.55 425.3 332.17 468.56 295.29 433.76 315.55 425.3"/><polygon class="cls-202" points="669.37 425.3 680.38 371.48 697.47 416.02 689.63 433.76 669.37 425.3"/><polygon class="cls-203" points="681.98 493.9 685.53 511.24 675.39 505.88 681.98 493.9"/><polygon class="cls-60" points="291.76 643.3 316.49 679.26 274.53 679.26 291.76 643.3"/><polygon class="cls-71" points="256.19 432.47 260.21 463.85 231.76 451.2 256.19 432.47"/><polygon class="cls-4" points="591.38 902.65 612.31 931.68 573.29 951.55 591.38 902.65"/><polygon class="cls-204" points="286.57 759.11 268.63 766.29 236.98 729.93 286.57 759.11"/><polygon class="cls-205" points="657.9 803.71 695.45 795.92 660.03 832.14 657.9 803.71"/><polygon class="cls-68" points="762.39 494 753.14 451.2 776.68 517.08 762.39 494"/><polygon class="cls-206" points="608.34 694.95 580.8 746.24 572.23 732.84 608.34 694.95"/><polygon class="cls-50" points="428.32 777.65 418.04 777.65 426.21 768.92 428.32 777.65"/><polygon class="cls-27" points="278.75 792.43 202.25 820.81 219.78 771.46 278.75 792.43"/><polygon class="cls-56" points="711.92 273.64 703.04 229.34 725.02 231.63 711.92 273.64"/><polygon class="cls-207" points="780.2 434.94 745.65 413.61 767.89 403.21 780.2 434.94"/><polygon class="cls-208" points="333.42 485.14 337.83 492.08 329.13 491.85 333.42 485.14"/><polygon class="cls-209" points="332.17 468.56 321.55 471.91 306.24 464.08 332.17 468.56"/><polygon class="cls-33" points="134.92 253.34 110.43 271.85 114.66 237.34 134.92 253.34"/><polygon class="cls-184" points="388.12 508.39 421.14 495.75 391.85 536.01 388.12 508.39"/><polygon class="cls-71" points="724.7 463.85 728.72 432.47 753.14 451.2 724.7 463.85"/><polygon class="cls-36" points="847.3 734.73 787.22 743.42 815.85 683.92 847.3 734.73"/><polygon class="cls-30" points="386.13 599.23 416.1 678.73 376.79 642.59 386.13 599.23"/><polygon class="cls-145" points="787.22 743.42 789.75 673.38 815.85 683.92 787.22 743.42"/><polygon class="cls-210" points="511.69 773.28 545.78 759.29 546.33 760.2 545.78 760.52 541.55 783.96 511.69 773.28"/><polygon class="cls-52" points="469.73 208.37 469.73 229.28 405.2 219.41 469.73 208.37"/><polygon class="cls-192" points="134.92 253.34 175.31 256.55 153.29 310.49 134.92 253.34"/><polygon class="cls-211" points="528.15 937.21 492.45 964.24 456.64 935.79 528.15 937.21"/><polygon class="cls-32" points="386.8 547.11 434.36 552.69 386.13 599.23 386.8 547.11"/><polygon class="cls-212" points="773.04 326.15 846.64 317.42 822.96 395.42 773.04 326.15"/><polygon class="cls-213" points="589.51 799.95 615.13 809.93 558.45 827.68 589.51 799.95"/><polygon class="cls-214" points="889.04 89.91 901.8 120.46 845.14 104.01 889.04 89.91"/><polygon class="cls-76" points="681.27 562.93 645.31 564.56 658.6 546.43 681.27 562.93"/><polygon class="cls-215" points="340.47 319.12 304.54 371.48 280.7 326.17 340.47 319.12"/><polygon class="cls-156" points="415.56 953.19 391.09 989.15 367.55 937.33 415.56 953.19"/><polygon class="cls-111" points="639.08 771.63 589.51 799.95 626.29 753.64 639.08 771.63"/><polygon class="cls-8" points="117.44 495.39 118.42 641.83 80.81 459.27 117.44 495.39"/><polygon class="cls-176" points="608.34 694.95 572.23 732.84 568.82 678.73 608.34 694.95"/><polygon class="cls-68" points="725.17 522.43 690.93 532.04 703.78 518.85 725.17 522.43"/><polygon class="cls-126" points="156.62 55.94 154.85 96.96 110.96 82.86 127.35 51.71 156.62 55.94"/><polygon class="cls-216" points="499.96 252.35 528.15 251.61 526.85 285.1 499.96 252.35"/><polygon class="cls-217" points="243.5 497.92 256.84 491.5 263.6 499.28 243.5 497.92"/><polygon class="cls-20" points="329.13 491.85 302.94 493.9 326.67 485.44 329.13 491.85"/><polygon class="cls-176" points="572.23 732.84 562.95 754.58 545.78 759.29 572.23 732.84"/><polygon class="cls-218" points="752.06 134.21 746.08 196.39 708.69 179.34 752.06 134.21"/><polygon class="cls-211" points="645.31 564.56 618.57 564.41 627.22 536.35 645.31 564.56"/><polygon class="cls-108" points="219.78 771.46 268.63 766.29 278.75 792.43 219.78 771.46"/><polygon class="cls-219" points="381.71 140.03 408.38 151.84 333.23 179.07 381.71 140.03"/><polygon class="cls-210" points="329.17 790.78 327.02 803.71 300.35 776.79 329.17 790.78"/><polygon class="cls-220" points="627.35 346.18 610.99 366.89 550.48 332.65 627.35 346.18"/><polygon class="cls-220" points="502.3 361.37 490.71 420.45 466.09 391.63 502.3 361.37"/><polygon class="cls-64" points="367.87 514.99 391.85 536.01 368.5 536.79 367.87 514.99"/><polygon class="cls-1" points="630.68 607.04 619.12 566.33 618.57 564.41 645.31 564.56 630.68 607.04"/><polygon class="cls-221" points="644.1 294.44 667.08 258.4 704.22 326.17 644.1 294.44"/><polygon class="cls-175" points="244.21 710.63 274.53 679.26 292.51 710.28 244.21 710.63"/><polygon class="cls-222" points="256.19 432.47 286.17 465.56 260.21 463.85 256.19 432.47"/><polygon class="cls-19" points="644.45 319.12 651.15 373.24 639.22 359.02 644.45 319.12"/><polygon class="cls-223" points="458.06 285.1 460.8 303.79 434.44 332.65 458.06 285.1"/><polygon class="cls-52" points="357.57 346.18 373.94 366.89 345.7 359.02 357.57 346.18"/><polygon class="cls-224" points="176.68 429.53 183.56 539.46 183.64 540.7 148.82 492.88 176.68 429.53"/><polygon class="cls-4" points="557.53 900.78 573.29 951.55 539.2 981.87 556.66 901.08 557.53 900.78"/><polygon class="cls-15" points="541.55 783.96 521.57 815.22 515.46 804.64 541.55 783.96"/><polygon class="cls-47" points="305.26 539.25 303.64 562.93 284.34 542.73 305.26 539.25"/><polygon class="cls-35" points="345.83 771.63 369.79 809.93 329.17 790.78 345.83 771.63"/><polygon class="cls-225" points="92.09 665.68 80.81 459.27 118.42 641.83 92.09 665.68"/><polygon class="cls-46" points="684.56 776.79 695.45 795.92 657.9 803.71 684.56 776.79"/><polygon class="cls-70" points="326.67 485.44 333.42 485.14 329.13 491.85 326.67 485.44"/><polygon class="cls-226" points="499.96 252.35 526.85 285.1 492.65 295.09 499.96 252.35"/><polygon class="cls-227" points="710.39 679.26 733.3 611.51 740.71 710.63 710.39 679.26"/><polygon class="cls-8" points="430.88 385.54 490.18 458.59 421.14 495.75 430.88 385.54"/><polygon class="cls-137" points="616.06 200.27 703.04 229.34 669.43 238.92 616.06 200.27"/><polygon class="cls-207" points="753.14 451.2 728.72 432.47 745.65 413.61 753.14 451.2"/><polygon class="cls-192" points="854.57 435.27 808.23 429.53 822.96 395.42 854.57 435.27"/><polygon class="cls-4" points="529.1 910.41 481.43 913.23 525.33 902.19 529.1 910.41"/><polygon class="cls-228" points="492.45 964.24 493.84 999.96 448.82 977.87 492.45 964.24"/><polygon class="cls-229" points="110.96 82.86 98.21 113.41 75.05 116.23 110.96 82.86"/><polygon class="cls-230" points="515.46 804.64 514.99 810.29 492.3 769.64 515.46 804.64"/><polygon class="cls-231" points="667.08 258.4 725.85 321.06 704.22 326.17 667.08 258.4"/><polygon class="cls-191" points="280.7 326.17 217.03 403.21 209.99 355.96 280.7 326.17"/><polygon class="cls-232" points="217.03 403.21 202.95 399.27 209.99 355.96 217.03 403.21"/><polygon class="cls-233" points="676.71 755.53 692.4 710.28 698.35 759.11 676.71 755.53"/><polygon class="cls-234" points="619.36 477.77 638.91 469.5 625.8 481.09 619.36 477.77"/><polygon class="cls-235" points="482.31 283.28 499.96 252.35 492.65 295.09 482.31 283.28"/><polygon class="cls-236" points="492.45 865.28 519.45 879.39 497.59 890.91 461.23 887.14 492.45 865.28"/><polygon class="cls-158" points="663.68 514.97 672.58 524.56 659.08 529.53 663.68 514.97"/><polygon class="cls-101" points="682.09 474.44 681.98 493.9 658.25 485.44 682.09 474.44"/><polygon class="cls-29" points="244.21 710.63 251.61 611.51 274.53 679.26 244.21 710.63"/><polygon class="cls-15" points="443.36 783.96 449.71 813.81 434.9 796.42 443.36 783.96"/><polygon class="cls-13" points="385.78 861.05 395.41 890.43 365.33 885.03 385.78 861.05"/><polygon class="cls-91" points="247.94 127.16 154.85 96.96 156.62 55.94 247.94 127.16"/><polygon class="cls-157" points="515.46 804.64 521.57 815.22 514.99 810.29 515.46 804.64"/><polygon class="cls-237" points="589.51 890.43 591.38 902.65 553.07 891.37 589.51 890.43"/><polygon class="cls-238" points="337.83 492.08 336.45 516.96 329.13 491.85 337.83 492.08"/><polygon class="cls-239" points="365.74 295.68 340.47 319.12 319.15 253.96 365.74 295.68"/><polygon class="cls-168" points="180.95 235.39 175.31 256.55 145.46 245.19 180.95 235.39"/><polygon class="cls-240" points="291.76 643.3 339.58 646.66 316.49 679.26 291.76 643.3"/><polygon class="cls-241" points="469.73 317.18 474.32 334.79 456.19 349.77 469.73 317.18"/><polygon class="cls-242" points="243.5 497.92 235.04 481.09 250.17 474.6 243.5 497.92"/><polygon class="cls-243" points="690.93 532.04 725.17 522.43 700.58 542.73 690.93 532.04"/><polygon class="cls-182" points="677.64 155.36 607.07 156.42 639.25 140.99 677.64 155.36"/><polygon class="cls-244" points="675.39 505.88 672.58 524.56 663.68 514.97 675.39 505.88"/><polygon class="cls-44" points="291.31 172.28 247.94 127.16 317.76 159.95 291.31 172.28"/><polygon class="cls-245" points="860.51 238.51 854.55 252.24 819.05 242.44 860.51 238.51"/><polygon class="cls-246" points="526.85 285.1 619.16 295.68 627.35 346.18 526.85 285.1"/><polygon class="cls-247" points="286.17 465.56 256.19 432.47 295.29 433.76 286.17 465.56"/><polygon class="cls-248" points="222.52 494 243.5 497.92 221.11 529.71 222.52 494"/><polygon class="cls-249" points="627.35 346.18 550.48 332.65 526.85 285.1 627.35 346.18"/><polygon class="cls-117" points="516.87 830.73 536.85 850.01 500.65 838.49 516.87 830.73"/><polygon class="cls-250" points="395.41 890.43 429.66 903.13 394.54 904.54 395.41 890.43"/><polygon class="cls-251" points="565.62 856.82 589.51 890.43 553.07 891.37 565.62 856.82"/><polygon class="cls-252" points="125.48 734.87 202.25 820.81 91.16 758.14 125.48 734.87"/><polygon class="cls-253" points="426.48 827.68 448.07 850.01 419.3 856.82 426.48 827.68"/><polygon class="cls-91" points="473.38 359.1 466.09 391.63 430.88 385.54 473.38 359.1"/><polygon class="cls-249" points="651.15 373.24 644.45 319.12 680.38 371.48 651.15 373.24"/><polygon class="cls-1" points="339.61 564.56 366.34 564.41 365.8 566.33 354.23 607.04 339.61 564.56"/><polygon class="cls-254" points="286.17 465.56 295.29 433.76 306.24 464.08 286.17 465.56"/><polygon class="cls-255" points="176.68 429.53 199.95 541.76 183.68 540.7 183.56 539.46 176.68 429.53"/><polygon class="cls-256" points="217.46 636.83 233.01 646.82 196.78 673.03 217.46 636.83"/><polygon class="cls-29" points="568.82 678.73 572.23 732.84 551.18 720.59 568.82 678.73"/><polygon class="cls-257" points="395.41 890.43 431.85 891.37 429.66 903.13 395.41 890.43"/><polygon class="cls-29" points="486.08 331.05 473.38 359.1 474.32 334.79 486.08 331.05"/><polygon class="cls-20" points="340.73 485.56 359.75 496.88 337.83 492.08 340.73 485.56"/><polygon class="cls-4" points="490.18 458.59 491.24 559.97 421.14 495.75 490.18 458.59"/><polygon class="cls-147" points="419.3 856.82 385.78 861.05 359.44 833.38 419.3 856.82"/><polygon class="cls-218" points="253.92 189.34 247.94 127.16 291.31 172.28 253.92 189.34"/><polygon class="cls-72" points="429.26 778.04 443.36 783.96 434.9 796.42 418.04 777.65 428.32 777.65 429.26 778.04"/><polygon class="cls-258" points="668.43 679.26 647.46 710.46 608.34 694.95 668.43 679.26"/><polygon class="cls-176" points="847.3 734.73 850.64 603.24 888.87 667.15 847.3 734.73"/><polygon class="cls-259" points="749.17 730.82 789.75 673.38 787.22 743.42 749.17 730.82"/><polygon class="cls-260" points="644.1 294.44 704.22 326.17 644.45 319.12 644.1 294.44"/><polygon class="cls-187" points="525.33 902.19 519.45 879.39 553.07 891.37 525.33 902.19"/><polygon class="cls-261" points="342.22 407.2 346 469.5 315.55 425.3 342.22 407.2"/><polygon class="cls-262" points="583.35 126.81 587.23 148.66 537.88 167.25 537.78 167 583.35 126.81"/><polygon class="cls-263" points="286.17 465.56 302.84 474.44 282.13 478.99 286.17 465.56"/><polygon class="cls-264" points="218.56 250.08 253.92 189.34 291.31 172.28 274.98 224.58 218.56 250.08"/><polygon class="cls-131" points="91.16 758.14 92.09 665.68 125.48 734.87 91.16 758.14"/><polygon class="cls-29" points="630.68 607.04 681.27 562.93 664.02 615.97 630.68 607.04"/><polygon class="cls-207" points="239.27 413.61 204.71 434.94 217.03 403.21 239.27 413.61"/><polygon class="cls-131" points="850.64 603.24 789.75 673.38 829.18 564.94 850.64 603.24"/><polygon class="cls-265" points="619.59 885.03 599.14 861.05 660.03 832.14 619.59 885.03"/><polygon class="cls-8" points="551.18 720.59 519.22 624.96 568.82 678.73 551.18 720.59"/><polygon class="cls-238" points="648.48 516.96 647.09 492.08 655.78 491.85 648.48 516.96"/><polygon class="cls-93" points="337.83 492.08 359.75 496.88 352.36 510.19 337.83 492.08"/><polygon class="cls-199" points="667.54 186.74 708 179.46 708.69 179.34 703.04 229.34 667.54 186.74"/><polygon class="cls-30" points="320.9 615.97 252.31 591.65 242.44 563.44 320.9 615.97"/><polygon class="cls-266" points="405.2 219.41 469.73 229.28 351.85 266.42 405.2 219.41"/><polygon class="cls-115" points="784.96 541.76 767.46 636.83 766.45 589.45 784.96 541.76"/><polygon class="cls-267" points="202.95 399.27 217.03 403.21 204.71 434.94 202.95 399.27"/><polygon class="cls-268" points="118.42 641.83 145.83 611.51 144.28 697.3 118.42 641.83"/><polygon class="cls-9" points="481.43 899.6 481.43 913.23 431.85 891.37 481.43 899.6"/><polygon class="cls-109" points="309.52 505.88 312.34 524.56 299.39 511.24 309.52 505.88"/><polygon class="cls-127" points="728.72 432.47 689.63 433.76 697.47 416.02 728.72 432.47"/><polygon class="cls-269" points="184.71 729.93 144.28 697.3 145.83 611.51 184.71 729.93"/><polygon class="cls-68" points="721.3 499.28 741.41 497.92 703.78 518.85 721.3 499.28"/><polygon class="cls-270" points="332.17 468.56 329.39 478.45 321.55 471.91 332.17 468.56"/><polygon class="cls-87" points="647.09 492.08 648.48 516.96 632.55 510.19 647.09 492.08"/><polygon class="cls-183" points="360.11 416.37 365.56 477.77 346 469.5 360.11 416.37"/><polygon class="cls-250" points="553.07 891.37 591.38 902.65 557.53 900.78 556.98 899.62 553.07 891.37"/><polygon class="cls-271" points="499 169.99 489.37 184.62 442.23 164.41 499 169.99"/><polygon class="cls-210" points="655.75 790.78 684.56 776.79 657.9 803.71 655.75 790.78"/><polygon class="cls-272" points="850.64 603.24 847.3 734.73 815.85 683.92 850.64 603.24"/><polygon class="cls-273" points="80.81 459.27 130.14 435.29 117.44 495.39 80.81 459.27"/><polygon class="cls-175" points="740.71 710.63 692.4 710.28 710.39 679.26 740.71 710.63"/><polygon class="cls-274" points="746.08 196.39 781.44 257.13 725.02 231.63 708.69 179.34 746.08 196.39"/><polygon class="cls-275" points="568.17 212.38 638.87 267.81 526.98 222.35 568.17 212.38"/><polygon class="cls-276" points="497.59 890.91 525.33 902.19 481.43 899.6 497.59 890.91"/><polygon class="cls-277" points="598.79 599.23 598.11 547.11 618.57 564.41 619.12 566.33 617.49 566.79 598.79 599.23"/><polygon class="cls-70" points="329.39 478.45 338.44 478.16 333.42 485.14 329.39 478.45"/><polygon class="cls-53" points="339.58 646.66 376.79 642.59 316.49 679.26 339.58 646.66"/><polygon class="cls-278" points="647.46 710.46 648.86 749.41 626.29 753.64 647.46 710.46"/><polygon class="cls-29" points="320.9 615.97 376.79 642.59 339.58 646.66 320.9 615.97"/><polygon class="cls-91" points="845.14 104.01 752.06 134.21 843.38 62.99 845.14 104.01"/><polygon class="cls-29" points="163.63 564.49 145.83 611.51 117.44 495.39 163.63 564.49"/><polygon class="cls-57" points="208.24 517.08 221.11 529.71 199.95 541.76 208.24 517.08"/><polygon class="cls-279" points="460.8 303.79 469.73 317.18 456.19 349.77 460.8 303.79"/><polygon class="cls-209" points="678.69 464.08 682.09 474.44 663.36 471.91 678.69 464.08"/><polygon class="cls-75" points="565.62 856.82 519.45 879.39 536.85 850.01 565.62 856.82"/><polygon class="cls-135" points="616.42 536.79 598.11 547.11 593.07 536.01 616.42 536.79"/><polygon class="cls-280" points="332.17 468.56 338.44 478.16 329.39 478.45 332.17 468.56"/><polygon class="cls-281" points="690.93 532.04 679.66 539.25 672.58 524.56 690.93 532.04"/><polygon class="cls-282" points="242.44 563.44 303.64 562.93 320.9 615.97 242.44 563.44"/><polygon class="cls-283" points="685.53 511.24 681.98 493.9 693.72 495.66 685.53 511.24"/><polygon class="cls-2" points="429.66 903.13 448.82 977.87 415.56 953.19 429.66 903.13"/><polygon class="cls-78" points="196.78 673.03 145.83 611.51 163.63 564.49 196.78 673.03"/><polygon class="cls-156" points="573.29 951.55 612.31 931.68 589 987.21 573.29 951.55"/><polygon class="cls-258" points="376.57 694.95 337.46 710.46 316.49 679.26 376.57 694.95"/><polygon class="cls-284" points="536.38 167.82 596.83 173.78 541.55 188.15 536.38 167.82"/><polygon class="cls-54" points="448.82 977.87 493.84 999.96 448.82 1025.46 448.82 977.87"/><polygon class="cls-285" points="725.02 231.63 846.64 317.42 750.05 281.93 725.02 231.63"/><polygon class="cls-286" points="725.02 231.63 781.44 257.13 846.64 317.42 725.02 231.63"/><polygon class="cls-251" points="419.3 856.82 431.85 891.37 395.41 890.43 419.3 856.82"/><polygon class="cls-205" points="327.02 803.71 324.89 832.14 289.54 796.18 327.02 803.71"/><polygon class="cls-287" points="616.06 200.27 568.17 212.38 541.55 188.15 616.06 200.27"/><polygon class="cls-288" points="387.96 196.49 330.83 225.05 347.86 198.02 387.96 196.49"/><polygon class="cls-150" points="391.85 536.01 434.36 552.69 386.8 547.11 391.85 536.01"/><polygon class="cls-111" points="546.33 760.2 556.6 777.65 541.55 783.96 545.78 760.52 546.33 760.2"/><polygon class="cls-172" points="420.56 767.27 421.98 754.58 426.21 768.92 420.56 767.27"/><polygon class="cls-283" points="302.94 493.9 299.39 511.24 291.2 495.66 302.94 493.9"/><polygon class="cls-289" points="484.27 838.49 500.65 838.49 492.45 848.36 484.27 838.49"/><polygon class="cls-82" points="218.47 589.45 233.01 646.82 217.46 636.83 218.47 589.45"/><polygon class="cls-240" points="645.33 646.66 693.16 643.3 668.43 679.26 645.33 646.66"/><polygon class="cls-2" points="324.89 832.14 315.02 841.08 289.54 796.18 324.89 832.14"/><polygon class="cls-249" points="523.92 312.48 550.48 332.65 526.39 336.93 523.92 312.48"/><polygon class="cls-174" points="315.55 425.3 304.54 371.48 333.77 373.24 315.55 425.3"/><polygon class="cls-290" points="703.78 518.85 693.72 495.66 721.3 499.28 703.78 518.85"/><polygon class="cls-291" points="278.75 792.43 268.63 766.29 286.57 759.11 278.75 792.43"/><polygon class="cls-4" points="333.23 179.07 347.86 198.02 274.98 224.58 333.23 179.07"/><polygon class="cls-229" points="924.95 123.28 901.8 120.46 889.04 89.91 924.95 123.28"/><polygon class="cls-292" points="642.7 407.2 651.15 373.24 669.37 425.3 642.7 407.2"/><polygon class="cls-293" points="753.14 451.2 780.2 434.94 776.68 517.08 753.14 451.2"/><polygon class="cls-294" points="347.86 198.02 330.83 225.05 274.98 224.58 347.86 198.02"/><polygon class="cls-152" points="359.11 481.09 359.75 496.88 340.73 485.56 359.11 481.09"/><polygon class="cls-197" points="251.61 611.51 233.01 646.82 218.47 589.45 251.61 611.51"/><polygon class="cls-295" points="492.45 964.24 539.2 981.87 493.84 999.96 492.45 964.24"/><polygon class="cls-21" points="560.13 495.96 593.07 536.01 550.25 553.08 560.13 495.96"/><polygon class="cls-296" points="609.13 491.71 619.36 477.77 625.8 481.09 609.13 491.71"/><polygon class="cls-72" points="320.9 741.66 308.2 755.53 292.51 710.28 320.9 741.66"/><polygon class="cls-12" points="785.87 195.79 845.14 104.01 868.15 143.38 785.87 195.79"/><polygon class="cls-6" points="250.17 474.6 235.04 481.09 222.52 494 231.76 451.2 250.17 474.6"/><polygon class="cls-165" points="421.98 754.58 420.56 767.27 418.04 777.65 404.11 746.24 421.98 754.58"/><polygon class="cls-297" points="336.06 749.41 345.83 771.63 308.2 755.53 336.06 749.41"/><polygon class="cls-72" points="535.2 813.81 521.57 815.22 541.55 783.96 535.2 813.81"/><polygon class="cls-298" points="316.49 679.26 337.46 710.46 292.51 710.28 316.49 679.26"/><polygon class="cls-54" points="599.14 861.05 589.51 890.43 565.62 856.82 599.14 861.05"/><polygon class="cls-290" points="281.13 518.85 263.6 499.28 291.2 495.66 281.13 518.85"/><polygon class="cls-299" points="678.69 464.08 698.75 465.56 682.09 474.44 678.69 464.08"/><polygon class="cls-172" points="626.29 753.64 648.86 749.41 639.08 771.63 626.29 753.64"/><polygon class="cls-264" points="860.51 238.51 885.34 244.4 865.08 260.39 860.51 238.51"/><polygon class="cls-19" points="387.96 196.49 405.2 219.41 351.85 266.42 387.96 196.49"/><polygon class="cls-264" points="114.66 237.34 139.5 231.46 134.92 253.34 114.66 237.34"/><polygon class="cls-99" points="218.47 589.45 221.11 529.71 242.44 563.44 218.47 589.45"/><polygon class="cls-300" points="596.8 508.39 617.04 514.99 593.07 536.01 596.8 508.39"/><polygon class="cls-19" points="667.08 258.4 616.06 200.27 669.43 238.92 667.08 258.4"/><polygon class="cls-214" points="607.07 156.42 596.83 173.78 587.23 148.66 607.07 156.42"/><polygon class="cls-1" points="437.27 719.9 492.3 769.64 473.22 773.28 437.27 719.9"/><polygon class="cls-268" points="367.41 566.79 386.13 599.23 354.23 607.04 365.8 566.33 367.41 566.79"/><polygon class="cls-301" points="619.59 885.03 591.38 902.65 589.51 890.43 619.59 885.03"/><polygon class="cls-38" points="286.57 759.11 308.2 755.53 300.35 776.79 286.57 759.11"/><polygon class="cls-302" points="357.69 536.35 368.5 536.79 366.34 564.41 357.69 536.35"/><polygon class="cls-303" points="338.46 531.23 325.84 529.53 336.45 516.96 338.46 531.23"/><polygon class="cls-304" points="400.59 439.4 421.14 495.75 388.12 508.39 400.59 439.4"/><polygon class="cls-305" points="196.78 673.03 233.01 646.82 244.21 710.63 196.78 673.03"/><polygon class="cls-4" points="394.54 904.54 415.56 953.19 367.55 937.33 394.54 904.54"/><polygon class="cls-306" points="663.68 514.97 648.48 516.96 655.78 491.85 663.68 514.97"/><polygon class="cls-180" points="789.75 673.38 749.17 730.82 740.71 710.63 789.75 673.38"/><polygon class="cls-1" points="490.18 458.59 560.13 495.96 491.24 559.97 490.18 458.59"/><polygon class="cls-307" points="317.76 159.95 333.23 179.07 291.31 172.28 317.76 159.95"/><polygon class="cls-308" points="365.33 822.27 359.44 833.38 327.02 803.71 365.33 822.27"/><polygon class="cls-170" points="105.73 156.42 94.91 188.74 75.05 116.23 105.73 156.42"/><polygon class="cls-4" points="550.25 553.08 519.22 624.96 491.24 559.97 550.25 553.08"/><polygon class="cls-282" points="742.47 563.44 664.02 615.97 681.27 562.93 742.47 563.44"/><polygon class="cls-10" points="698.35 759.11 692.4 710.28 740.71 710.63 698.35 759.11"/><polygon class="cls-53" points="145.04 352.6 161.52 395.45 130.14 435.29 145.04 352.6"/><polygon class="cls-309" points="456.16 147.08 442.23 164.41 381.71 140.03 456.16 147.08"/><polygon class="cls-126" points="872.65 58.76 889.04 89.91 845.14 104.01 843.38 62.99 872.65 58.76"/><polygon class="cls-8" points="321.55 471.91 326.67 485.44 302.84 474.44 321.55 471.91"/><polygon class="cls-270" points="338.44 478.16 346 469.5 359.11 481.09 338.44 478.16"/><polygon class="cls-91" points="704.22 326.17 774.93 355.96 767.89 403.21 704.22 326.17"/><polygon class="cls-310" points="287.45 416.02 256.19 432.47 280.7 326.17 287.45 416.02"/><polygon class="cls-311" points="526.98 222.35 619.16 295.68 528.15 251.61 526.98 222.35"/><polygon class="cls-312" points="458.06 285.1 492.65 295.09 460.8 303.79 458.06 285.1"/><polygon class="cls-67" points="375.79 491.71 388.12 508.39 359.75 496.88 375.79 491.71"/><polygon class="cls-310" points="704.22 326.17 728.72 432.47 697.47 416.02 704.22 326.17"/><polygon class="cls-54" points="660.03 832.14 599.14 861.05 625.47 833.38 657.9 803.71 660.03 832.14"/><polygon class="cls-313" points="303.64 562.93 242.44 563.44 284.34 542.73 303.64 562.93"/><polygon class="cls-303" points="659.08 529.53 646.45 531.23 648.48 516.96 659.08 529.53"/><polygon class="cls-1" points="481.43 913.23 456.64 935.79 429.66 903.13 481.43 913.23"/><polygon class="cls-72" points="316.49 679.26 292.51 710.28 274.53 679.26 316.49 679.26"/><polygon class="cls-314" points="426.48 827.68 468.05 830.73 448.07 850.01 426.48 827.68"/><polygon class="cls-171" points="610.99 366.89 585.88 375.27 550.48 332.65 610.99 366.89"/><polygon class="cls-95" points="773.04 326.15 749.96 282.07 750.05 281.93 846.64 317.42 773.04 326.15"/><polygon class="cls-214" points="110.96 82.86 154.85 96.96 98.21 113.41 110.96 82.86"/><polygon class="cls-313" points="536.38 167.82 489.37 184.62 499 169.99 536.38 167.82"/><polygon class="cls-37" points="325.84 529.53 338.46 531.23 326.31 546.42 325.84 529.53"/><polygon class="cls-120" points="746.08 196.39 819.05 242.44 781.44 257.13 746.08 196.39"/><polygon class="cls-4" points="434.36 552.69 491.24 559.97 463.03 629.63 434.36 552.69"/><polygon class="cls-74" points="154.85 96.96 131.85 136.32 98.21 113.41 154.85 96.96"/><polygon class="cls-315" points="352.36 510.19 367.87 514.99 353.57 527.21 352.36 510.19"/><polygon class="cls-314" points="536.85 850.01 519.45 879.39 492.45 865.28 536.85 850.01"/><polygon class="cls-79" points="591.38 902.65 619.59 885.03 612.31 931.68 591.38 902.65"/><polygon class="cls-44" points="247.94 127.16 253.92 189.34 154.85 96.96 247.94 127.16"/><polygon class="cls-246" points="466.09 391.63 490.71 420.45 430.88 385.54 466.09 391.63"/><polygon class="cls-299" points="306.24 464.08 302.84 474.44 286.17 465.56 306.24 464.08"/><polygon class="cls-296" points="365.56 477.77 375.79 491.71 359.11 481.09 365.56 477.77"/><polygon class="cls-55" points="632.55 510.19 648.48 516.96 631.34 527.22 632.55 510.19"/><polygon class="cls-316" points="320.9 615.97 339.58 646.66 291.76 643.3 320.9 615.97"/><polygon class="cls-317" points="526.98 222.35 499.96 252.35 529.56 202.43 526.98 222.35"/><polygon class="cls-32" points="598.11 547.11 598.79 599.23 550.25 553.08 598.11 547.11"/><polygon class="cls-4" points="491.24 559.97 492.3 769.64 463.03 629.63 491.24 559.97"/><polygon class="cls-318" points="745.65 413.61 728.72 432.47 704.22 326.17 745.65 413.61"/><polygon class="cls-319" points="885.34 244.4 860.51 238.51 862.41 206.96 885.34 244.4"/><polygon class="cls-2" points="695.45 795.92 670.14 841.5 660.03 832.14 695.45 795.92"/><polygon class="cls-39" points="490.71 420.45 555.19 383.11 490.18 458.59 490.71 420.45"/><polygon class="cls-102" points="745.65 413.61 780.2 434.94 753.14 451.2 745.65 413.61"/><polygon class="cls-320" points="648.86 749.41 647.46 710.46 664.02 741.66 648.86 749.41"/><polygon class="cls-75" points="558.45 827.68 516.87 830.73 535.2 813.81 550.01 796.42 558.45 827.68"/><polygon class="cls-66" points="819.05 242.44 785.87 195.79 833.4 195.79 819.05 242.44"/><polygon class="cls-188" points="166.62 188.74 139.5 231.46 137.59 199.9 166.62 188.74"/><polygon class="cls-193" points="326.31 546.42 338.46 531.23 339.61 564.56 326.31 546.42"/><polygon class="cls-2" points="565.62 856.82 615.13 809.93 619.59 822.27 565.62 856.82"/><polygon class="cls-167" points="860.51 238.51 819.05 242.44 833.4 195.79 860.51 238.51"/><polygon class="cls-137" points="725.85 321.06 667.08 258.4 711.92 273.64 725.85 321.06"/><polygon class="cls-306" points="329.13 491.85 336.45 516.96 321.22 514.97 329.13 491.85"/><polygon class="cls-321" points="148.82 492.88 183.64 540.7 163.63 564.49 148.82 492.88"/><polygon class="cls-8" points="199.95 541.76 221.11 529.71 218.47 589.45 199.95 541.76"/><polygon class="cls-322" points="536.85 850.01 492.45 865.28 492.45 848.36 536.85 850.01"/><polygon class="cls-318" points="239.27 413.61 280.7 326.17 256.19 432.47 239.27 413.61"/><polygon class="cls-111" points="615.13 809.93 565.62 856.82 558.45 827.68 615.13 809.93"/><polygon class="cls-1" points="434.36 552.69 463.03 629.63 416.1 678.73 434.36 552.69"/><polygon class="cls-292" points="315.55 425.3 333.77 373.24 342.22 407.2 315.55 425.3"/><polygon class="cls-323" points="219.78 771.46 202.25 820.81 125.48 734.87 219.78 771.46"/><polygon class="cls-322" points="492.45 848.36 492.45 865.28 448.07 850.01 492.45 848.36"/><polygon class="cls-13" points="660.03 832.14 670.14 841.5 619.59 885.03 660.03 832.14"/><polygon class="cls-253" points="619.59 822.27 655.75 790.78 657.9 803.71 619.59 822.27"/><polygon class="cls-72" points="740.71 710.63 733.3 611.51 751.91 646.82 740.71 710.63"/><polygon class="cls-13" points="415.56 953.19 448.82 977.87 448.82 1025.46 415.56 953.19"/><polygon class="cls-278" points="336.06 749.41 337.46 710.46 358.63 753.64 336.06 749.41"/><polygon class="cls-320" points="337.46 710.46 336.06 749.41 320.9 741.66 337.46 710.46"/><polygon class="cls-313" points="700.58 542.73 742.47 563.44 681.27 562.93 700.58 542.73"/><polygon class="cls-324" points="499.96 252.35 458.06 285.1 469.73 229.28 499.96 252.35"/><polygon class="cls-325" points="536.38 167.82 541.55 188.15 529.56 202.43 536.38 167.82"/><polygon class="cls-248" points="762.39 494 763.81 529.71 741.41 497.92 762.39 494"/><polygon class="cls-12" points="865.08 260.39 824.69 263.6 854.55 252.24 865.08 260.39"/><polygon class="cls-217" points="728.08 491.5 741.41 497.92 721.3 499.28 728.08 491.5"/><polygon class="cls-53" points="789.75 673.38 850.64 603.24 815.85 683.92 789.75 673.38"/><polygon class="cls-326" points="639.25 140.99 587.23 148.66 583.35 126.81 639.25 140.99"/><polygon class="cls-90" points="502.3 361.37 550.48 332.65 534.74 369.89 502.3 361.37"/><polygon class="cls-134" points="367.87 514.99 368.5 536.79 357.69 536.35 367.87 514.99"/><polygon class="cls-33" points="885.34 244.4 889.57 278.9 865.08 260.39 885.34 244.4"/><polygon class="cls-112" points="585.88 375.27 584.33 439.4 555.19 383.11 585.88 375.27"/><polygon class="cls-192" points="130.14 435.29 161.52 395.45 176.68 429.53 130.14 435.29"/><polygon class="cls-275" points="458.06 285.1 499.96 252.35 482.31 283.28 458.06 285.1"/><polygon class="cls-55" points="352.36 510.19 353.57 527.21 336.45 516.96 352.36 510.19"/><polygon class="cls-292" points="434.44 332.65 430.88 385.54 399.04 375.26 434.44 332.65"/><polygon class="cls-14" points="894.27 163.47 905.09 195.79 881.21 184.86 894.27 163.47"/><polygon class="cls-2" points="426.21 768.92 439.13 759.29 429.42 777.65 429.26 778.04 428.32 777.65 426.21 768.92"/><polygon class="cls-314" points="536.85 850.01 516.87 830.73 558.45 827.68 536.85 850.01"/><polygon class="cls-315" points="617.04 514.99 632.55 510.19 631.34 527.22 617.04 514.99"/><polygon class="cls-52" points="351.85 266.42 365.74 295.68 319.15 253.96 351.85 266.42"/><polygon class="cls-37" points="421.98 754.58 439.13 759.29 426.21 768.92 421.98 754.58"/><polygon class="cls-71" points="734.75 474.6 724.7 463.85 753.14 451.2 734.75 474.6"/><polygon class="cls-2" points="473.22 773.28 492.3 769.64 492.26 769.7 469.46 804.64 473.22 773.28"/><polygon class="cls-277" points="386.8 547.11 386.13 599.23 367.41 566.79 365.8 566.33 366.34 564.41 386.8 547.11"/><polygon class="cls-257" points="404.11 746.24 418.04 777.65 395.41 799.95 404.11 746.24"/><polygon class="cls-327" points="766.45 589.45 733.3 611.51 732.6 591.65 766.45 589.45"/><polygon class="cls-37" points="562.95 754.58 558.72 768.92 545.78 759.29 562.95 754.58"/><polygon class="cls-166" points="118.79 177.81 137.59 199.9 114.66 237.34 118.79 177.81"/><polygon class="cls-185" points="462.9 125.54 456.16 147.08 381.71 140.03 462.9 125.54"/><polygon class="cls-73" points="510.17 325.17 523.92 312.48 526.39 336.93 510.17 325.17"/><polygon class="cls-226" points="704.22 326.17 680.38 371.48 644.45 319.12 704.22 326.17"/><polygon class="cls-206" points="412.69 732.84 404.11 746.24 376.57 694.95 412.69 732.84"/><polygon class="cls-249" points="534.74 369.89 518.04 387.69 502.3 361.37 534.74 369.89"/><polygon class="cls-60" points="608.13 642.59 608.34 694.95 568.82 678.73 608.13 642.59"/><polygon class="cls-169" points="681.98 493.9 702.78 478.99 693.72 495.66 681.98 493.9"/><polygon class="cls-105" points="373.94 366.89 400.59 439.4 360.11 416.37 373.94 366.89"/><polygon class="cls-254" points="678.69 464.08 689.63 433.76 698.75 465.56 678.69 464.08"/><polygon class="cls-50" points="558.72 768.92 566.88 777.65 556.6 777.65 558.72 768.92"/><polygon class="cls-112" points="523.92 312.48 510.17 325.17 492.65 295.09 523.92 312.48"/><polygon class="cls-173" points="885.34 244.4 881.21 184.86 905.09 195.79 885.34 244.4"/><polygon class="cls-328" points="400.59 439.4 388.12 508.39 375.79 491.71 400.59 439.4"/><polygon class="cls-207" points="231.76 451.2 239.27 413.61 256.19 432.47 231.76 451.2"/><polygon class="cls-19" points="387.96 196.49 469.73 208.37 405.2 219.41 387.96 196.49"/><polygon class="cls-26" points="822.96 395.42 774.93 355.96 773.04 326.15 822.96 395.42"/><polygon class="cls-1" points="568.82 678.73 519.22 624.96 550.25 553.08 568.82 678.73"/><polygon class="cls-329" points="256.84 491.5 243.5 497.92 250.17 474.6 256.84 491.5"/><polygon class="cls-86" points="302.94 493.9 282.13 478.99 302.84 474.44 302.94 493.9"/><polygon class="cls-330" points="251.61 611.51 244.21 710.63 233.01 646.82 251.61 611.51"/><polygon class="cls-114" points="500.65 838.49 536.85 850.01 492.45 848.36 500.65 838.49"/><polygon class="cls-331" points="624.79 416.37 619.36 477.77 584.33 439.4 624.79 416.37"/><polygon class="cls-103" points="291.2 495.66 263.6 499.28 282.13 478.99 291.2 495.66"/><polygon class="cls-231" points="469.73 208.37 499.96 252.35 469.73 229.28 469.73 208.37"/><polygon class="cls-29" points="486.08 331.05 502.3 361.37 473.38 359.1 486.08 331.05"/><polygon class="cls-114" points="484.27 838.49 492.45 848.36 448.07 850.01 484.27 838.49"/><polygon class="cls-25" points="632.55 510.19 617.04 514.99 625.15 496.88 632.55 510.19"/><polygon class="cls-108" points="617.04 514.99 596.8 508.39 625.15 496.88 617.04 514.99"/><polygon class="cls-29" points="376.79 642.59 376.57 694.95 316.49 679.26 376.79 642.59"/><polygon class="cls-52" points="434.44 332.65 373.94 366.89 357.57 346.18 434.44 332.65"/><polygon class="cls-26" points="118.79 177.81 166.62 188.74 137.59 199.9 118.79 177.81"/><polygon class="cls-54" points="419.3 856.82 395.41 890.43 385.78 861.05 419.3 856.82"/><polygon class="cls-29" points="550.25 553.08 491.24 559.97 560.13 495.96 550.25 553.08"/><polygon class="cls-80" points="131.85 136.32 214.13 188.74 166.62 188.74 131.85 136.32"/><polygon class="cls-9" points="525.33 902.19 556.72 900.81 556.66 901.08 556.25 901.22 529.1 910.41 525.33 902.19"/><polygon class="cls-31" points="368.5 536.79 386.8 547.11 366.34 564.41 368.5 536.79"/><polygon class="cls-57" points="145.83 611.51 196.78 673.03 184.71 729.93 145.83 611.51"/><polygon class="cls-84" points="353.57 527.21 357.69 536.35 338.46 531.23 353.57 527.21"/><polygon class="cls-211" points="357.69 536.35 366.34 564.41 339.61 564.56 357.69 536.35"/><polygon class="cls-191" points="295.29 433.76 332.17 468.56 306.24 464.08 295.29 433.76"/><polygon class="cls-308" points="625.47 833.38 619.59 822.27 657.9 803.71 625.47 833.38"/><polygon class="cls-332" points="624.79 416.37 639.22 359.02 642.7 407.2 624.79 416.37"/><polygon class="cls-333" points="153.29 310.49 227.14 319.12 209.99 355.96 145.04 352.6 153.29 310.49"/><polygon class="cls-334" points="92.09 665.68 118.42 641.83 144.28 697.3 92.09 665.68"/><polygon class="cls-257" points="566.88 777.65 580.8 746.24 589.51 799.95 566.88 777.65"/><polygon class="cls-243" points="284.34 542.73 259.74 522.43 293.99 532.04 284.34 542.73"/><polygon class="cls-77" points="651.15 373.24 642.7 407.2 639.22 359.02 651.15 373.24"/><polygon class="cls-8" points="456.19 349.77 474.32 334.79 473.38 359.1 456.19 349.77"/><polygon class="cls-204" points="695.45 795.92 749.17 730.82 765.65 771.12 695.45 795.92"/><polygon class="cls-2" points="514.99 810.29 500.65 838.49 492.3 769.64 514.99 810.29"/><polygon class="cls-246" points="490.71 420.45 518.04 387.69 555.19 383.11 490.71 420.45"/><polygon class="cls-114" points="573.29 951.55 589 987.21 538.09 1027.39 573.29 951.55"/><polygon class="cls-293" points="204.71 434.94 231.76 451.2 208.24 517.08 204.71 434.94"/><polygon class="cls-335" points="469.73 229.28 445.64 270.88 365.74 295.68 469.73 229.28"/><polygon class="cls-118" points="282.13 478.99 260.21 463.85 286.17 465.56 282.13 478.99"/><polygon class="cls-336" points="340.47 319.12 345.7 359.02 333.77 373.24 340.47 319.12"/><polygon class="cls-87" points="337.83 492.08 352.36 510.19 336.45 516.96 337.83 492.08"/><polygon class="cls-297" points="648.86 749.41 676.71 755.53 639.08 771.63 648.86 749.41"/><polygon class="cls-242" points="749.88 481.09 741.41 497.92 734.75 474.6 749.88 481.09"/><polygon class="cls-90" points="781.97 399.27 780.2 434.94 767.89 403.21 781.97 399.27"/><polygon class="cls-337" points="337.46 710.46 320.9 741.66 292.51 710.28 337.46 710.46"/><polygon class="cls-55" points="572.23 732.84 580.8 746.24 562.95 754.58 572.23 732.84"/><polygon class="cls-35" points="589.51 799.95 639.08 771.63 615.13 809.93 589.51 799.95"/><polygon class="cls-244" points="312.34 524.56 309.52 505.88 321.22 514.97 312.34 524.56"/><polygon class="cls-58" points="217.03 403.21 280.7 326.17 239.27 413.61 217.03 403.21"/><polygon class="cls-79" points="133.94 320.93 153.29 310.49 145.04 352.6 133.94 320.93"/><polygon class="cls-338" points="703.04 229.34 711.92 273.64 669.43 238.92 703.04 229.34"/><polygon class="cls-339" points="259.74 522.43 243.5 497.92 281.13 518.85 259.74 522.43"/><polygon class="cls-340" points="708.69 179.34 725.02 231.63 703.04 229.34 708.69 179.34"/><polygon class="cls-225" points="850.64 603.24 906.89 461.33 888.87 667.15 850.64 603.24"/><polygon class="cls-323" points="787.22 743.42 847.3 734.73 827.35 801.03 787.22 743.42"/><polygon class="cls-272" points="847.3 734.73 892.99 760.93 827.35 801.03 847.3 734.73"/><polygon class="cls-281" points="293.99 532.04 312.34 524.56 305.26 539.25 293.99 532.04"/><polygon class="cls-2" points="300.35 776.79 289.54 796.18 286.57 759.11 300.35 776.79"/><polygon class="cls-341" points="889.04 396.63 844.02 390.28 873.21 328.8 889.04 396.63"/><polygon class="cls-60" points="354.23 607.04 386.13 599.23 376.79 642.59 354.23 607.04"/><polygon class="cls-80" points="785.87 195.79 746.08 196.39 845.14 104.01 785.87 195.79"/><polygon class="cls-271" points="442.23 164.41 387.96 196.49 333.23 179.07 442.23 164.41"/><polygon class="cls-176" points="412.69 732.84 439.13 759.29 421.98 754.58 412.69 732.84"/><polygon class="cls-210" points="439.13 759.29 473.22 773.28 443.36 783.96 439.13 759.29"/><polygon class="cls-213" points="395.41 799.95 426.48 827.68 369.79 809.93 395.41 799.95"/><polygon class="cls-230" points="369.79 809.93 365.33 822.27 329.17 790.78 369.79 809.93"/><polygon class="cls-289" points="463.35 815.22 484.27 838.49 468.05 830.73 463.35 815.22"/><polygon class="cls-13" points="324.89 832.14 365.33 885.03 315.02 841.08 324.89 832.14"/><polygon class="cls-48" points="434.9 796.42 426.48 827.68 395.41 799.95 434.9 796.42"/><polygon class="cls-87" points="675.39 505.88 663.68 514.97 655.78 491.85 675.39 505.88"/><polygon class="cls-148" points="551.18 720.59 572.23 732.84 545.78 759.29 551.18 720.59"/><polygon class="cls-98" points="842.44 492.57 829.18 564.94 801.27 540.7 842.44 492.57"/><polygon class="cls-342" points="105.26 388.59 145.04 352.6 130.14 435.29 105.26 388.59"/><polygon class="cls-172" points="358.63 753.64 345.83 771.63 336.06 749.41 358.63 753.64"/><polygon class="cls-130" points="648.48 516.96 646.45 531.23 631.34 527.22 648.48 516.96"/><polygon class="cls-343" points="492.65 295.09 502.3 361.37 486.08 331.05 492.65 295.09"/><polygon class="cls-233" points="292.51 710.28 308.2 755.53 286.57 759.11 292.51 710.28"/><polygon class="cls-9" points="591.38 902.65 573.29 951.55 557.53 900.78 591.38 902.65"/><polygon class="cls-247" points="698.75 465.56 689.63 433.76 728.72 432.47 698.75 465.56"/><polygon class="cls-316" points="693.16 643.3 645.33 646.66 664.02 615.97 693.16 643.3"/><polygon class="cls-177" points="342.22 407.2 360.11 416.37 346 469.5 342.22 407.2"/><polygon class="cls-344" points="473.38 359.1 502.3 361.37 466.09 391.63 473.38 359.1"/><polygon class="cls-273" points="906.89 461.33 842.44 492.57 854.57 435.27 906.36 461.06 906.89 461.33"/><polygon class="cls-345" points="381.71 140.03 333.23 179.07 317.76 159.95 381.71 140.03"/><polygon class="cls-346" points="199.95 541.76 217.46 636.83 183.71 540.88 183.68 540.7 199.95 541.76"/><polygon class="cls-57" points="117.44 495.39 130.14 435.29 148.82 492.88 163.63 564.49 117.44 495.39"/><polygon class="cls-347" points="492.65 295.09 486.08 331.05 469.73 317.18 492.65 295.09"/><polygon class="cls-348" points="110.43 271.85 134.92 253.34 153.29 310.49 110.43 271.85"/><polygon class="cls-9" points="556.98 899.62 556.72 900.81 525.33 902.19 553.07 891.37 556.98 899.62"/><polygon class="cls-349" points="304.54 371.48 340.47 319.12 333.77 373.24 304.54 371.48"/><polygon class="cls-37" points="646.45 531.23 659.08 529.53 658.6 546.43 646.45 531.23"/><polygon class="cls-350" points="227.14 319.12 319.15 253.96 280.7 326.17 227.14 319.12"/><polygon class="cls-351" points="236.98 729.93 244.21 710.63 286.57 759.11 236.98 729.93"/><polygon class="cls-51" points="626.29 753.64 608.34 694.95 647.46 710.46 626.29 753.64"/><polygon class="cls-352" points="315.55 425.3 346 469.5 332.17 468.56 315.55 425.3"/><polygon class="cls-192" points="725.85 321.06 773.04 326.15 774.93 355.96 725.85 321.06"/><polygon class="cls-328" points="609.13 491.71 596.8 508.39 584.33 439.4 609.13 491.71"/><polygon class="cls-75" points="448.07 850.01 461.23 887.14 419.3 856.82 448.07 850.01"/><polygon class="cls-74" points="333.23 179.07 387.96 196.49 347.86 198.02 333.23 179.07"/><polygon class="cls-89" points="201.19 515.05 204.71 434.94 208.24 517.08 199.95 541.76 201.19 515.05"/><polygon class="cls-173" points="924.95 123.28 894.27 163.47 901.8 120.46 924.95 123.28"/><polygon class="cls-4" points="463.03 629.63 492.3 769.64 437.27 719.9 463.03 629.63"/><polygon class="cls-126" points="822.96 395.42 781.97 399.27 774.93 355.96 822.96 395.42"/><polygon class="cls-53" points="844.02 390.28 854.57 435.27 822.96 395.42 844.02 390.28"/><polygon class="cls-44" points="127.35 51.71 110.96 82.86 94.56 56.3 127.35 51.71"/><polygon class="cls-353" points="789.75 673.38 751.91 646.82 767.46 636.83 789.75 673.38"/><polygon class="cls-93" points="681.98 493.9 675.39 505.88 655.78 491.85 681.98 493.9"/><polygon class="cls-182" points="725.17 522.43 763.81 529.71 700.58 542.73 725.17 522.43"/><polygon class="cls-354" points="263.6 499.28 256.84 491.5 282.13 478.99 263.6 499.28"/><polygon class="cls-336" points="526.39 336.93 502.3 361.37 510.17 325.17 526.39 336.93"/><polygon class="cls-93" points="647.09 492.08 632.55 510.19 625.15 496.88 647.09 492.08"/><polygon class="cls-8" points="854.57 435.27 842.44 492.57 808.23 429.53 854.57 435.27"/><polygon class="cls-355" points="373.94 366.89 360.11 416.37 345.7 359.02 373.94 366.89"/><polygon class="cls-161" points="672.58 524.56 679.66 539.25 659.08 529.53 672.58 524.56"/><polygon class="cls-91" points="924.95 123.28 889.04 89.91 905.44 63.35 924.95 123.28"/><polygon class="cls-179" points="131.85 136.32 105.73 156.42 98.21 113.41 131.85 136.32"/><polygon class="cls-356" points="399.04 375.26 400.59 439.4 373.94 366.89 399.04 375.26"/><polygon class="cls-300" points="388.12 508.39 391.85 536.01 367.87 514.99 388.12 508.39"/><polygon class="cls-357" points="765.65 771.12 670.14 841.5 695.45 795.92 765.65 771.12"/><polygon class="cls-6" points="260.21 463.85 282.13 478.99 250.17 474.6 260.21 463.85"/><polygon class="cls-329" points="741.41 497.92 728.08 491.5 734.75 474.6 741.41 497.92"/><polygon class="cls-298" points="647.46 710.46 668.43 679.26 692.4 710.28 647.46 710.46"/><polygon class="cls-358" points="145.83 611.51 118.42 641.83 117.44 495.39 145.83 611.51"/><polygon class="cls-250" points="144.28 697.3 184.71 729.93 125.48 734.87 144.28 697.3"/><polygon class="cls-9" points="625.47 833.38 565.62 856.82 619.59 822.27 625.47 833.38"/><polygon class="cls-8" points="463.03 629.63 437.27 719.9 416.1 678.73 463.03 629.63"/><polygon class="cls-29" points="668.43 679.26 608.34 694.95 608.13 642.59 668.43 679.26"/><polygon class="cls-331" points="360.11 416.37 400.59 439.4 365.56 477.77 360.11 416.37"/><polygon class="cls-2" points="558.72 768.92 556.6 777.65 546.33 760.2 545.78 759.29 558.72 768.92"/><polygon class="cls-359" points="555.19 383.11 584.33 439.4 560.13 495.96 555.19 383.11"/><polygon class="cls-111" points="439.13 759.29 443.36 783.96 429.26 778.04 429.42 777.65 439.13 759.29"/><polygon class="cls-3" points="456.19 349.77 473.38 359.1 430.88 385.54 456.19 349.77"/><polygon class="cls-194" points="321.22 514.97 336.45 516.96 325.84 529.53 321.22 514.97"/><polygon class="cls-355" points="624.79 416.37 610.99 366.89 639.22 359.02 624.79 416.37"/><polygon class="cls-245" points="139.5 231.46 180.95 235.39 145.46 245.19 139.5 231.46"/><polygon class="cls-20" points="644.17 485.56 647.09 492.08 625.15 496.88 644.17 485.56"/><polygon class="cls-302" points="627.22 536.35 618.57 564.41 616.42 536.79 627.22 536.35"/><polygon class="cls-41" points="430.88 385.54 400.59 439.4 399.04 375.26 430.88 385.54"/><polygon class="cls-209" points="321.55 471.91 302.84 474.44 306.24 464.08 321.55 471.91"/><polygon class="cls-65" points="242.44 563.44 252.31 591.65 218.47 589.45 242.44 563.44"/><polygon class="cls-360" points="808.23 429.53 801.27 540.7 801.23 540.7 784.96 541.76 808.23 429.53"/><polygon class="cls-234" points="346 469.5 365.56 477.77 359.11 481.09 346 469.5"/><polygon class="cls-361" points="227.14 319.12 280.7 326.17 209.99 355.96 227.14 319.12"/><polygon class="cls-93" points="329.39 478.45 326.67 485.44 321.55 471.91 329.39 478.45"/><polygon class="cls-3" points="680.38 371.48 704.22 326.17 697.47 416.02 680.38 371.48"/><polygon class="cls-148" points="437.27 719.9 439.13 759.29 412.69 732.84 437.27 719.9"/><polygon class="cls-178" points="525.8 141.4 518.04 124.11 583.35 126.81 525.8 141.4"/><polygon class="cls-47" points="681.27 562.93 630.68 607.04 645.31 564.56 681.27 562.93"/><polygon class="cls-261" points="669.37 425.3 638.91 469.5 642.7 407.2 669.37 425.3"/><polygon class="cls-362" points="751.91 646.82 789.75 673.38 740.71 710.63 751.91 646.82"/><polygon class="cls-173" points="105.73 156.42 75.05 116.23 98.21 113.41 105.73 156.42"/><polygon class="cls-186" points="664.02 615.97 732.6 591.65 733.3 611.51 664.02 615.97"/><polygon class="cls-112" points="510.17 325.17 502.3 361.37 492.65 295.09 510.17 325.17"/><polygon class="cls-30" points="742.47 563.44 732.6 591.65 664.02 615.97 742.47 563.44"/><polygon class="cls-304" points="584.33 439.4 596.8 508.39 560.13 495.96 584.33 439.4"/><polygon class="cls-182" points="259.74 522.43 284.34 542.73 221.11 529.71 259.74 522.43"/><polygon class="cls-175" points="676.71 755.53 648.86 749.41 664.02 741.66 676.71 755.53"/><polygon class="cls-272" points="184.71 729.93 196.78 673.03 236.98 729.93 184.71 729.93"/><polygon class="cls-159" points="208.24 517.08 222.52 494 221.11 529.71 208.24 517.08"/><polygon class="cls-352" points="669.37 425.3 652.75 468.56 638.91 469.5 669.37 425.3"/><polygon class="cls-15" points="516.87 830.73 521.57 815.22 535.2 813.81 516.87 830.73"/><polygon class="cls-153" points="326.31 546.42 303.64 562.93 305.26 539.25 326.31 546.42"/><polygon class="cls-13" points="308.2 755.53 329.17 790.78 300.35 776.79 308.2 755.53"/><polygon class="cls-319" points="139.5 231.46 114.66 237.34 137.59 199.9 139.5 231.46"/><polygon class="cls-253" points="558.45 827.68 565.62 856.82 536.85 850.01 558.45 827.68"/><polygon class="cls-35" points="655.75 790.78 615.13 809.93 639.08 771.63 655.75 790.78"/><polygon class="cls-280" points="652.75 468.56 655.53 478.45 646.48 478.16 652.75 468.56"/><polygon class="cls-363" points="749.17 730.82 695.45 795.92 698.35 759.11 749.17 730.82"/><polygon class="cls-126" points="204.71 434.94 201.19 515.05 199.95 541.76 176.68 429.53 204.71 434.94"/><polygon class="cls-94" points="345.83 771.63 329.17 790.78 308.2 755.53 345.83 771.63"/><polygon class="cls-364" points="639.22 359.02 610.99 366.89 627.35 346.18 639.22 359.02"/><polygon class="cls-37" points="365.33 885.03 395.41 890.43 394.54 904.54 365.33 885.03"/><polygon class="cls-29" points="251.61 611.51 291.76 643.3 274.53 679.26 251.61 611.51"/><polygon class="cls-263" points="702.78 478.99 682.09 474.44 698.75 465.56 702.78 478.99"/><polygon class="cls-314" points="448.07 850.01 492.45 865.28 461.23 887.14 448.07 850.01"/><polygon class="cls-270" points="638.91 469.5 646.48 478.16 625.8 481.09 638.91 469.5"/><polygon class="cls-253" points="329.17 790.78 365.33 822.27 327.02 803.71 329.17 790.78"/><polygon class="cls-332" points="342.22 407.2 345.7 359.02 360.11 416.37 342.22 407.2"/><polygon class="cls-365" points="330.83 225.05 319.15 253.96 274.98 224.58 330.83 225.05"/><polygon class="cls-265" points="385.78 861.05 365.33 885.03 324.89 832.14 385.78 861.05"/><polygon class="cls-222" points="728.72 432.47 724.7 463.85 698.75 465.56 728.72 432.47"/><polygon class="cls-327" points="252.31 591.65 251.61 611.51 218.47 589.45 252.31 591.65"/><polygon class="cls-1" points="481.43 913.23 528.15 937.21 456.64 935.79 481.43 913.23"/><polygon class="cls-44" points="333.23 179.07 274.98 224.58 291.31 172.28 333.23 179.07"/><polygon class="cls-342" points="854.57 435.27 844.02 390.28 889.04 396.63 854.57 435.27"/><polygon class="cls-230" points="615.13 809.93 655.75 790.78 619.59 822.27 615.13 809.93"/><polygon class="cls-72" points="463.35 815.22 449.71 813.81 443.36 783.96 463.35 815.22"/><polygon class="cls-176" points="376.57 694.95 416.1 678.73 412.69 732.84 376.57 694.95"/><polygon class="cls-8" points="766.45 589.45 763.81 529.71 784.96 541.76 766.45 589.45"/><polygon class="cls-142" points="456.64 935.79 448.82 977.87 429.66 903.13 456.64 935.79"/><polygon class="cls-366" points="655.53 478.45 652.75 468.56 663.36 471.91 655.53 478.45"/><polygon class="cls-341" points="133.94 320.93 145.04 352.6 105.26 388.59 133.94 320.93"/><polygon class="cls-202" points="304.54 371.48 315.55 425.3 295.29 433.76 287.45 416.02 304.54 371.48"/><polygon class="cls-365" points="644.45 319.12 619.16 295.68 526.98 222.35 644.1 294.44 644.45 319.12"/><polygon class="cls-2" points="511.69 773.28 515.46 804.64 492.3 769.64 511.69 773.28"/><polygon class="cls-190" points="526.98 222.35 638.87 267.81 644.1 294.44 526.98 222.35"/><polygon class="cls-141" points="243.5 497.92 259.74 522.43 221.11 529.71 243.5 497.92"/><polygon class="cls-354" points="702.78 478.99 728.08 491.5 721.3 499.28 702.78 478.99"/><polygon class="cls-367" points="110.43 271.85 153.29 310.49 133.94 320.93 110.43 271.85"/><polygon class="cls-337" points="692.4 710.28 664.02 741.66 647.46 710.46 692.4 710.28"/><polygon class="cls-289" points="521.57 815.22 516.87 830.73 500.65 838.49 521.57 815.22"/><polygon class="cls-368" points="568.17 212.38 667.08 258.4 638.87 267.81 568.17 212.38"/><polygon class="cls-348" points="846.64 317.42 865.08 260.39 889.57 278.9 846.64 317.42"/><polygon class="cls-9" points="429.66 903.13 415.56 953.19 394.54 904.54 429.66 903.13"/><polygon class="cls-41" points="550.48 332.65 585.88 375.27 555.19 383.11 550.48 332.65"/><polygon class="cls-228" points="493.84 999.96 536.97 1028.28 448.82 1025.46 493.84 999.96"/><polygon class="cls-339" points="703.78 518.85 741.41 497.92 725.17 522.43 703.78 518.85"/><polygon class="cls-34" points="566.88 777.65 589.51 799.95 550.01 796.42 566.88 777.65"/><polygon class="cls-189" points="175.31 256.55 180.95 235.39 218.56 250.08 175.31 256.55"/><polygon class="cls-203" points="299.39 511.24 302.94 493.9 309.52 505.88 299.39 511.24"/><polygon class="cls-54" points="536.97 1028.28 493.84 999.96 539.2 981.87 536.97 1028.28"/><polygon class="cls-268" points="630.68 607.04 598.79 599.23 617.49 566.79 619.12 566.33 630.68 607.04"/><polygon class="cls-19" points="526.85 285.1 550.48 332.65 523.92 312.48 526.85 285.1"/><polygon class="cls-369" points="619.16 295.68 526.85 285.1 528.15 251.61 619.16 295.68"/><polygon class="cls-53" points="645.33 646.66 668.43 679.26 608.13 642.59 645.33 646.66"/></g></svg>