<svg xmlns="http://www.w3.org/2000/svg" viewBox="0 0 1000 1080"><defs><style>.cls-1{fill:none;stroke:#f26722;stroke-miterlimit:10;}</style></defs><title>Artboard 1</title><g id="FACE_copy" data-name="FACE copy"><line class="cls-1" x1="337.91" y1="492.11" x2="329.22" y2="491.88"/><line class="cls-1" x1="326.76" y1="485.48" x2="329.22" y2="491.88"/><line class="cls-1" x1="340.82" y1="485.6" x2="337.91" y2="492.11"/><line class="cls-1" x1="338.52" y1="478.2" x2="340.82" y2="485.6"/><line class="cls-1" x1="329.48" y1="478.49" x2="326.76" y2="485.48"/><line class="cls-1" x1="338.52" y1="478.2" x2="329.48" y2="478.49"/><line class="cls-1" x1="346.09" y1="469.55" x2="338.52" y2="478.2"/><line class="cls-1" x1="332.26" y1="468.61" x2="338.52" y2="478.2"/><line class="cls-1" x1="329.48" y1="478.49" x2="332.26" y2="468.61"/><line class="cls-1" x1="321.65" y1="471.96" x2="329.48" y2="478.49"/><line class="cls-1" x1="332.26" y1="468.61" x2="321.65" y2="471.96"/><line class="cls-1" x1="346.09" y1="469.55" x2="332.26" y2="468.61"/><line class="cls-1" x1="359.19" y1="481.13" x2="338.52" y2="478.2"/><line class="cls-1" x1="346.09" y1="469.55" x2="359.19" y2="481.13"/><line class="cls-1" x1="340.82" y1="485.6" x2="359.19" y2="481.13"/><line class="cls-1" x1="359.83" y1="496.91" x2="359.19" y2="481.13"/><line class="cls-1" x1="340.82" y1="485.6" x2="359.83" y2="496.91"/><line class="cls-1" x1="337.91" y1="492.11" x2="359.83" y2="496.91"/><line class="cls-1" x1="352.44" y1="510.21" x2="337.91" y2="492.11"/><line class="cls-1" x1="359.83" y1="496.91" x2="352.44" y2="510.21"/><line class="cls-1" x1="337.91" y1="492.11" x2="336.53" y2="516.98"/><line class="cls-1" x1="352.44" y1="510.21" x2="336.53" y2="516.98"/><line class="cls-1" x1="329.22" y1="491.88" x2="336.53" y2="516.98"/><line class="cls-1" x1="321.32" y1="514.98" x2="336.53" y2="516.98"/><line class="cls-1" x1="329.22" y1="491.88" x2="321.32" y2="514.98"/><line class="cls-1" x1="309.62" y1="505.91" x2="329.22" y2="491.88"/><line class="cls-1" x1="321.32" y1="514.98" x2="309.62" y2="505.91"/><line class="cls-1" x1="329.22" y1="491.88" x2="303.05" y2="493.94"/><line class="cls-1" x1="309.62" y1="505.91" x2="303.05" y2="493.94"/><line class="cls-1" x1="326.76" y1="485.48" x2="303.05" y2="493.94"/><line class="cls-1" x1="326.76" y1="485.48" x2="302.94" y2="474.49"/><line class="cls-1" x1="303.05" y1="493.94" x2="302.94" y2="474.49"/><line class="cls-1" x1="326.76" y1="485.48" x2="321.65" y2="471.96"/><line class="cls-1" x1="302.94" y1="474.49" x2="321.65" y2="471.96"/><line class="cls-1" x1="337.91" y1="492.11" x2="333.51" y2="485.18"/><line class="cls-1" x1="329.22" y1="491.88" x2="333.51" y2="485.18"/><line class="cls-1" x1="340.82" y1="485.6" x2="333.51" y2="485.18"/><line class="cls-1" x1="338.52" y1="478.2" x2="333.51" y2="485.18"/><line class="cls-1" x1="329.48" y1="478.49" x2="333.51" y2="485.18"/><line class="cls-1" x1="326.76" y1="485.48" x2="333.51" y2="485.18"/><line class="cls-1" x1="365.63" y1="477.82" x2="359.19" y2="481.13"/><line class="cls-1" x1="346.09" y1="469.55" x2="365.63" y2="477.82"/><line class="cls-1" x1="375.86" y1="491.75" x2="359.19" y2="481.13"/><line class="cls-1" x1="365.63" y1="477.82" x2="375.86" y2="491.75"/><line class="cls-1" x1="359.83" y1="496.91" x2="375.86" y2="491.75"/><line class="cls-1" x1="388.18" y1="508.41" x2="359.83" y2="496.91"/><line class="cls-1" x1="375.86" y1="491.75" x2="388.18" y2="508.41"/><line class="cls-1" x1="352.44" y1="510.21" x2="367.95" y2="515"/><line class="cls-1" x1="359.83" y1="496.91" x2="367.95" y2="515"/><line class="cls-1" x1="352.44" y1="510.21" x2="353.65" y2="527.23"/><line class="cls-1" x1="336.53" y1="516.98" x2="353.65" y2="527.23"/><line class="cls-1" x1="338.55" y1="531.24" x2="336.53" y2="516.98"/><line class="cls-1" x1="353.65" y1="527.23" x2="338.55" y2="531.24"/><line class="cls-1" x1="367.95" y1="515" x2="353.65" y2="527.23"/><line class="cls-1" x1="367.95" y1="515" x2="388.18" y2="508.41"/><line class="cls-1" x1="336.53" y1="516.98" x2="325.93" y2="529.54"/><line class="cls-1" x1="338.55" y1="531.24" x2="325.93" y2="529.54"/><line class="cls-1" x1="321.32" y1="514.98" x2="325.93" y2="529.54"/><line class="cls-1" x1="312.43" y1="524.57" x2="325.93" y2="529.54"/><line class="cls-1" x1="321.32" y1="514.98" x2="312.43" y2="524.57"/><line class="cls-1" x1="309.62" y1="505.91" x2="312.43" y2="524.57"/><line class="cls-1" x1="299.49" y1="511.27" x2="312.43" y2="524.57"/><line class="cls-1" x1="309.62" y1="505.91" x2="299.49" y2="511.27"/><line class="cls-1" x1="303.05" y1="493.94" x2="299.49" y2="511.27"/><line class="cls-1" x1="291.32" y1="495.7" x2="299.49" y2="511.27"/><line class="cls-1" x1="303.05" y1="493.94" x2="291.32" y2="495.7"/><line class="cls-1" x1="282.25" y1="479.03" x2="303.05" y2="493.94"/><line class="cls-1" x1="291.32" y1="495.7" x2="282.25" y2="479.03"/><line class="cls-1" x1="302.94" y1="474.49" x2="282.25" y2="479.03"/><line class="cls-1" x1="391.9" y1="536.01" x2="367.95" y2="515"/><line class="cls-1" x1="388.18" y1="508.41" x2="391.9" y2="536.01"/><line class="cls-1" x1="338.55" y1="531.24" x2="357.77" y2="536.36"/><line class="cls-1" x1="353.65" y1="527.23" x2="357.77" y2="536.36"/><line class="cls-1" x1="367.95" y1="515" x2="357.77" y2="536.36"/><line class="cls-1" x1="368.57" y1="536.79" x2="366.42" y2="564.39"/><line class="cls-1" x1="357.77" y1="536.36" x2="366.42" y2="564.39"/><line class="cls-1" x1="368.57" y1="536.79" x2="357.77" y2="536.36"/><line class="cls-1" x1="368.57" y1="536.79" x2="367.95" y2="515"/><line class="cls-1" x1="368.57" y1="536.79" x2="391.9" y2="536.01"/><line class="cls-1" x1="368.57" y1="536.79" x2="386.86" y2="547.1"/><line class="cls-1" x1="386.86" y1="547.1" x2="391.9" y2="536.01"/><line class="cls-1" x1="386.86" y1="547.1" x2="366.42" y2="564.39"/><line class="cls-1" x1="305.36" y1="539.25" x2="312.43" y2="524.57"/><line class="cls-1" x1="294.1" y1="532.05" x2="312.43" y2="524.57"/><line class="cls-1" x1="299.49" y1="511.27" x2="294.1" y2="532.05"/><line class="cls-1" x1="281.25" y1="518.87" x2="299.49" y2="511.27"/><line class="cls-1" x1="291.32" y1="495.7" x2="281.25" y2="518.87"/><line class="cls-1" x1="263.73" y1="499.31" x2="291.32" y2="495.7"/><line class="cls-1" x1="281.25" y1="518.87" x2="263.73" y2="499.31"/><line class="cls-1" x1="282.25" y1="479.03" x2="263.73" y2="499.31"/><line class="cls-1" x1="305.36" y1="539.25" x2="325.93" y2="529.54"/><line class="cls-1" x1="326.4" y1="546.42" x2="325.93" y2="529.54"/><line class="cls-1" x1="305.36" y1="539.25" x2="326.4" y2="546.42"/><line class="cls-1" x1="326.4" y1="546.42" x2="338.55" y2="531.24"/><line class="cls-1" x1="338.55" y1="531.24" x2="339.7" y2="564.54"/><line class="cls-1" x1="326.4" y1="546.42" x2="339.7" y2="564.54"/><line class="cls-1" x1="339.7" y1="564.54" x2="357.77" y2="536.36"/><line class="cls-1" x1="339.7" y1="564.54" x2="366.42" y2="564.39"/><line class="cls-1" x1="339.7" y1="564.54" x2="354.31" y2="606.99"/><line class="cls-1" x1="366.42" y1="564.39" x2="354.31" y2="606.99"/><line class="cls-1" x1="354.31" y1="606.99" x2="303.75" y2="562.92"/><line class="cls-1" x1="339.7" y1="564.54" x2="303.75" y2="562.92"/><line class="cls-1" x1="326.4" y1="546.42" x2="303.75" y2="562.92"/><line class="cls-1" x1="305.36" y1="539.25" x2="303.75" y2="562.92"/><line class="cls-1" x1="305.36" y1="539.25" x2="294.1" y2="532.05"/><line class="cls-1" x1="281.25" y1="518.87" x2="294.1" y2="532.05"/><line class="cls-1" x1="256.97" y1="491.53" x2="263.73" y2="499.31"/><line class="cls-1" x1="282.25" y1="479.03" x2="256.97" y2="491.53"/><line class="cls-1" x1="284.45" y1="542.72" x2="303.75" y2="562.92"/><line class="cls-1" x1="259.88" y1="522.45" x2="284.45" y2="542.72"/><line class="cls-1" x1="259.88" y1="522.45" x2="281.25" y2="518.87"/><line class="cls-1" x1="259.88" y1="522.45" x2="243.64" y2="497.95"/><line class="cls-1" x1="281.25" y1="518.87" x2="243.64" y2="497.95"/><line class="cls-1" x1="243.64" y1="497.95" x2="263.73" y2="499.31"/><line class="cls-1" x1="256.97" y1="491.53" x2="243.64" y2="497.95"/><line class="cls-1" x1="259.88" y1="522.45" x2="294.1" y2="532.05"/><line class="cls-1" x1="305.36" y1="539.25" x2="284.45" y2="542.72"/><line class="cls-1" x1="294.1" y1="532.05" x2="284.45" y2="542.72"/><line class="cls-1" x1="303.75" y1="562.92" x2="242.58" y2="563.43"/><line class="cls-1" x1="284.45" y1="542.72" x2="242.58" y2="563.43"/><line class="cls-1" x1="259.88" y1="522.45" x2="221.26" y2="529.72"/><line class="cls-1" x1="284.45" y1="542.72" x2="221.26" y2="529.72"/><line class="cls-1" x1="242.58" y1="563.43" x2="221.26" y2="529.72"/><line class="cls-1" x1="243.64" y1="497.95" x2="221.26" y2="529.72"/><line class="cls-1" x1="222.67" y1="494.04" x2="221.26" y2="529.72"/><line class="cls-1" x1="243.64" y1="497.95" x2="222.67" y2="494.04"/><line class="cls-1" x1="235.18" y1="481.13" x2="243.64" y2="497.95"/><line class="cls-1" x1="222.67" y1="494.04" x2="235.18" y2="481.13"/><line class="cls-1" x1="250.3" y1="474.65" x2="243.64" y2="497.95"/><line class="cls-1" x1="235.18" y1="481.13" x2="250.3" y2="474.65"/><line class="cls-1" x1="256.97" y1="491.53" x2="250.3" y2="474.65"/><line class="cls-1" x1="282.25" y1="479.03" x2="250.3" y2="474.65"/><line class="cls-1" x1="376.85" y1="642.52" x2="354.31" y2="606.99"/><line class="cls-1" x1="367.49" y1="566.77" x2="386.19" y2="599.19"/><line class="cls-1" x1="354.31" y1="606.99" x2="386.19" y2="599.19"/><line class="cls-1" x1="376.85" y1="642.52" x2="386.19" y2="599.19"/><line class="cls-1" x1="386.86" y1="547.1" x2="386.19" y2="599.19"/><line class="cls-1" x1="391.9" y1="536.01" x2="434.39" y2="552.68"/><line class="cls-1" x1="386.86" y1="547.1" x2="434.39" y2="552.68"/><line class="cls-1" x1="386.19" y1="599.19" x2="434.39" y2="552.68"/><line class="cls-1" x1="388.18" y1="508.41" x2="421.18" y2="495.78"/><line class="cls-1" x1="391.9" y1="536.01" x2="421.18" y2="495.78"/><line class="cls-1" x1="434.39" y1="552.68" x2="421.18" y2="495.78"/><line class="cls-1" x1="375.86" y1="491.75" x2="400.63" y2="439.47"/><line class="cls-1" x1="388.18" y1="508.41" x2="400.63" y2="439.47"/><line class="cls-1" x1="421.18" y1="495.78" x2="400.63" y2="439.47"/><line class="cls-1" x1="365.63" y1="477.82" x2="400.63" y2="439.47"/><line class="cls-1" x1="360.2" y1="416.46" x2="400.63" y2="439.47"/><line class="cls-1" x1="365.63" y1="477.82" x2="360.2" y2="416.46"/><line class="cls-1" x1="346.09" y1="469.55" x2="360.2" y2="416.46"/><line class="cls-1" x1="345.78" y1="359.15" x2="360.2" y2="416.46"/><line class="cls-1" x1="342.3" y1="407.3" x2="345.78" y2="359.15"/><line class="cls-1" x1="360.2" y1="416.46" x2="342.3" y2="407.3"/><line class="cls-1" x1="346.09" y1="469.55" x2="342.3" y2="407.3"/><line class="cls-1" x1="315.65" y1="425.38" x2="342.3" y2="407.3"/><line class="cls-1" x1="346.09" y1="469.55" x2="315.65" y2="425.38"/><line class="cls-1" x1="295.41" y1="433.84" x2="315.65" y2="425.38"/><line class="cls-1" x1="332.26" y1="468.61" x2="315.65" y2="425.38"/><line class="cls-1" x1="321.65" y1="471.96" x2="306.34" y2="464.13"/><line class="cls-1" x1="332.26" y1="468.61" x2="295.41" y2="433.84"/><line class="cls-1" x1="302.94" y1="474.49" x2="306.34" y2="464.13"/><line class="cls-1" x1="332.26" y1="468.61" x2="306.34" y2="464.13"/><line class="cls-1" x1="295.41" y1="433.84" x2="306.34" y2="464.13"/><line class="cls-1" x1="302.94" y1="474.49" x2="286.28" y2="465.61"/><line class="cls-1" x1="306.34" y1="464.13" x2="286.28" y2="465.61"/><line class="cls-1" x1="282.25" y1="479.03" x2="286.28" y2="465.61"/><line class="cls-1" x1="295.41" y1="433.84" x2="286.28" y2="465.61"/><line class="cls-1" x1="256.32" y1="432.54" x2="286.28" y2="465.61"/><line class="cls-1" x1="260.35" y1="463.9" x2="256.32" y2="432.54"/><line class="cls-1" x1="286.28" y1="465.61" x2="260.35" y2="463.9"/><line class="cls-1" x1="295.41" y1="433.84" x2="256.32" y2="432.54"/><line class="cls-1" x1="282.25" y1="479.03" x2="260.35" y2="463.9"/><line class="cls-1" x1="250.3" y1="474.65" x2="260.35" y2="463.9"/><line class="cls-1" x1="231.92" y1="451.27" x2="250.3" y2="474.65"/><line class="cls-1" x1="256.32" y1="432.54" x2="231.92" y2="451.27"/><line class="cls-1" x1="260.35" y1="463.9" x2="231.92" y2="451.27"/><line class="cls-1" x1="222.67" y1="494.04" x2="231.92" y2="451.27"/><line class="cls-1" x1="221.26" y1="529.72" x2="208.39" y2="517.1"/><line class="cls-1" x1="222.67" y1="494.04" x2="208.39" y2="517.1"/><line class="cls-1" x1="231.92" y1="451.27" x2="208.39" y2="517.1"/><line class="cls-1" x1="354.31" y1="606.99" x2="320.99" y2="615.92"/><line class="cls-1" x1="303.75" y1="562.92" x2="320.99" y2="615.92"/><line class="cls-1" x1="242.58" y1="563.43" x2="320.99" y2="615.92"/><line class="cls-1" x1="376.85" y1="642.52" x2="320.99" y2="615.92"/><line class="cls-1" x1="242.58" y1="563.43" x2="252.45" y2="591.61"/><line class="cls-1" x1="320.99" y1="615.92" x2="252.45" y2="591.61"/><line class="cls-1" x1="221.26" y1="529.72" x2="218.61" y2="589.42"/><line class="cls-1" x1="242.58" y1="563.43" x2="218.61" y2="589.42"/><line class="cls-1" x1="252.45" y1="591.61" x2="218.61" y2="589.42"/><line class="cls-1" x1="221.26" y1="529.72" x2="200.11" y2="541.76"/><line class="cls-1" x1="208.39" y1="517.1" x2="200.11" y2="541.76"/><line class="cls-1" x1="204.87" y1="435.01" x2="208.39" y2="517.1"/><line class="cls-1" x1="200.11" y1="541.76" x2="201.35" y2="515.07"/><line class="cls-1" x1="218.61" y1="589.42" x2="200.11" y2="541.76"/><line class="cls-1" x1="252.45" y1="591.61" x2="251.74" y2="611.46"/><line class="cls-1" x1="218.61" y1="589.42" x2="251.74" y2="611.46"/><line class="cls-1" x1="251.74" y1="611.46" x2="320.99" y2="615.92"/><line class="cls-1" x1="204.87" y1="435.01" x2="231.92" y2="451.27"/><line class="cls-1" x1="201.35" y1="515.07" x2="204.87" y2="435.01"/><line class="cls-1" x1="231.92" y1="451.27" x2="239.41" y2="413.7"/><line class="cls-1" x1="204.87" y1="435.01" x2="239.41" y2="413.7"/><line class="cls-1" x1="256.32" y1="432.54" x2="239.41" y2="413.7"/><line class="cls-1" x1="280.81" y1="326.32" x2="239.41" y2="413.7"/><line class="cls-1" x1="256.32" y1="432.54" x2="280.81" y2="326.32"/><line class="cls-1" x1="239.41" y1="413.7" x2="217.18" y2="403.3"/><line class="cls-1" x1="280.81" y1="326.32" x2="217.18" y2="403.3"/><line class="cls-1" x1="204.87" y1="435.01" x2="217.18" y2="403.3"/><line class="cls-1" x1="256.32" y1="432.54" x2="287.57" y2="416.1"/><line class="cls-1" x1="295.41" y1="433.84" x2="287.57" y2="416.1"/><line class="cls-1" x1="342.3" y1="407.3" x2="333.85" y2="373.36"/><line class="cls-1" x1="345.78" y1="359.15" x2="333.85" y2="373.36"/><line class="cls-1" x1="315.65" y1="425.38" x2="333.85" y2="373.36"/><line class="cls-1" x1="304.64" y1="371.6" x2="315.65" y2="425.38"/><line class="cls-1" x1="287.57" y1="416.1" x2="304.64" y2="371.6"/><line class="cls-1" x1="280.81" y1="326.32" x2="287.57" y2="416.1"/><line class="cls-1" x1="304.64" y1="371.6" x2="280.81" y2="326.32"/><line class="cls-1" x1="333.85" y1="373.36" x2="304.64" y2="371.6"/><line class="cls-1" x1="340.55" y1="319.28" x2="304.64" y2="371.6"/><line class="cls-1" x1="333.85" y1="373.36" x2="340.55" y2="319.28"/><line class="cls-1" x1="345.78" y1="359.15" x2="340.55" y2="319.28"/><line class="cls-1" x1="280.81" y1="326.32" x2="340.55" y2="319.28"/><line class="cls-1" x1="251.74" y1="611.46" x2="233.15" y2="646.75"/><line class="cls-1" x1="218.61" y1="589.42" x2="233.15" y2="646.75"/><line class="cls-1" x1="204.87" y1="435.01" x2="176.85" y2="429.61"/><line class="cls-1" x1="200.11" y1="541.76" x2="176.85" y2="429.61"/><line class="cls-1" x1="183.81" y1="540.7" x2="176.85" y2="429.61"/><line class="cls-1" x1="200.11" y1="541.76" x2="183.81" y2="540.7"/><line class="cls-1" x1="218.61" y1="589.42" x2="217.62" y2="636.76"/><line class="cls-1" x1="233.15" y1="646.75" x2="217.62" y2="636.76"/><line class="cls-1" x1="183.81" y1="540.7" x2="217.62" y2="636.76"/><line class="cls-1" x1="244.34" y1="710.51" x2="196.94" y2="672.93"/><line class="cls-1" x1="183.72" y1="539.25" x2="196.94" y2="672.93"/><line class="cls-1" x1="217.62" y1="636.76" x2="196.94" y2="672.93"/><line class="cls-1" x1="233.15" y1="646.75" x2="196.94" y2="672.93"/><line class="cls-1" x1="244.34" y1="710.51" x2="233.15" y2="646.75"/><line class="cls-1" x1="251.74" y1="611.46" x2="244.34" y2="710.51"/><line class="cls-1" x1="320.99" y1="615.92" x2="291.87" y2="643.22"/><line class="cls-1" x1="251.74" y1="611.46" x2="291.87" y2="643.22"/><line class="cls-1" x1="244.34" y1="710.51" x2="274.65" y2="679.16"/><line class="cls-1" x1="251.74" y1="611.46" x2="274.65" y2="679.16"/><line class="cls-1" x1="291.87" y1="643.22" x2="274.65" y2="679.16"/><line class="cls-1" x1="376.85" y1="642.52" x2="316.58" y2="679.16"/><line class="cls-1" x1="291.87" y1="643.22" x2="316.58" y2="679.16"/><line class="cls-1" x1="274.65" y1="679.16" x2="316.58" y2="679.16"/><line class="cls-1" x1="292.62" y1="710.16" x2="274.65" y2="679.16"/><line class="cls-1" x1="244.34" y1="710.51" x2="292.62" y2="710.16"/><line class="cls-1" x1="316.58" y1="679.16" x2="292.62" y2="710.16"/><line class="cls-1" x1="176.85" y1="429.61" x2="203.11" y2="399.37"/><line class="cls-1" x1="204.87" y1="435.01" x2="203.11" y2="399.37"/><line class="cls-1" x1="217.18" y1="403.3" x2="203.11" y2="399.37"/><line class="cls-1" x1="280.81" y1="326.32" x2="210.15" y2="356.09"/><line class="cls-1" x1="217.18" y1="403.3" x2="210.15" y2="356.09"/><line class="cls-1" x1="203.11" y1="399.37" x2="210.15" y2="356.09"/><line class="cls-1" x1="161.7" y1="395.55" x2="203.11" y2="399.37"/><line class="cls-1" x1="176.85" y1="429.61" x2="161.7" y2="395.55"/><line class="cls-1" x1="210.15" y1="356.09" x2="161.7" y2="395.55"/><line class="cls-1" x1="345.78" y1="359.15" x2="374" y2="367.02"/><line class="cls-1" x1="360.2" y1="416.46" x2="374" y2="367.02"/><line class="cls-1" x1="400.63" y1="439.47" x2="374" y2="367.02"/><line class="cls-1" x1="345.78" y1="359.15" x2="357.64" y2="346.32"/><line class="cls-1" x1="340.55" y1="319.28" x2="357.64" y2="346.32"/><line class="cls-1" x1="374" y1="367.02" x2="434.47" y2="332.8"/><line class="cls-1" x1="357.64" y1="346.32" x2="374" y2="367.02"/><line class="cls-1" x1="434.47" y1="332.8" x2="357.64" y2="346.32"/><line class="cls-1" x1="400.63" y1="439.47" x2="399.09" y2="375.38"/><line class="cls-1" x1="374" y1="367.02" x2="399.09" y2="375.38"/><line class="cls-1" x1="434.47" y1="332.8" x2="399.09" y2="375.38"/><line class="cls-1" x1="400.63" y1="439.47" x2="430.92" y2="385.65"/><line class="cls-1" x1="434.47" y1="332.8" x2="430.92" y2="385.65"/><line class="cls-1" x1="399.09" y1="375.38" x2="430.92" y2="385.65"/><line class="cls-1" x1="421.18" y1="495.78" x2="430.92" y2="385.65"/><line class="cls-1" x1="386.19" y1="599.19" x2="416.14" y2="678.63"/><line class="cls-1" x1="434.39" y1="552.68" x2="416.14" y2="678.63"/><line class="cls-1" x1="376.85" y1="642.52" x2="416.14" y2="678.63"/><line class="cls-1" x1="412.73" y1="732.71" x2="416.14" y2="678.63"/><line class="cls-1" x1="376.85" y1="642.52" x2="376.64" y2="694.84"/><line class="cls-1" x1="416.14" y1="678.63" x2="376.64" y2="694.84"/><line class="cls-1" x1="412.73" y1="732.71" x2="376.64" y2="694.84"/><line class="cls-1" x1="316.58" y1="679.16" x2="376.64" y2="694.84"/><line class="cls-1" x1="292.62" y1="710.16" x2="337.54" y2="710.34"/><line class="cls-1" x1="316.58" y1="679.16" x2="337.54" y2="710.34"/><line class="cls-1" x1="376.64" y1="694.84" x2="337.54" y2="710.34"/><line class="cls-1" x1="412.73" y1="732.71" x2="404.16" y2="746.1"/><line class="cls-1" x1="376.64" y1="694.84" x2="404.16" y2="746.1"/><line class="cls-1" x1="358.7" y1="753.49" x2="376.64" y2="694.84"/><line class="cls-1" x1="337.54" y1="710.34" x2="358.7" y2="753.49"/><line class="cls-1" x1="292.62" y1="710.16" x2="320.99" y2="741.52"/><line class="cls-1" x1="337.54" y1="710.34" x2="320.99" y2="741.52"/><line class="cls-1" x1="358.7" y1="753.49" x2="345.92" y2="771.46"/><line class="cls-1" x1="337.54" y1="710.34" x2="336.15" y2="749.27"/><line class="cls-1" x1="345.92" y1="771.46" x2="336.15" y2="749.27"/><line class="cls-1" x1="320.99" y1="741.52" x2="336.15" y2="749.27"/><line class="cls-1" x1="404.16" y1="746.1" x2="358.7" y2="753.49"/><line class="cls-1" x1="320.99" y1="615.92" x2="339.67" y2="646.58"/><line class="cls-1" x1="339.67" y1="646.58" x2="291.87" y2="643.22"/><line class="cls-1" x1="376.85" y1="642.52" x2="339.67" y2="646.58"/><line class="cls-1" x1="316.58" y1="679.16" x2="339.67" y2="646.58"/><line class="cls-1" x1="183.81" y1="540.7" x2="163.81" y2="564.47"/><line class="cls-1" x1="196.94" y1="672.93" x2="163.81" y2="564.47"/><line class="cls-1" x1="176.85" y1="429.61" x2="149.01" y2="492.91"/><line class="cls-1" x1="163.81" y1="564.47" x2="149.01" y2="492.91"/><line class="cls-1" x1="161.7" y1="395.55" x2="130.33" y2="435.36"/><line class="cls-1" x1="149.01" y1="492.91" x2="130.33" y2="435.36"/><line class="cls-1" x1="176.85" y1="429.61" x2="130.33" y2="435.36"/><line class="cls-1" x1="183.81" y1="540.7" x2="149.01" y2="492.91"/><line class="cls-1" x1="163.81" y1="564.47" x2="117.65" y2="495.42"/><line class="cls-1" x1="130.33" y1="435.36" x2="117.65" y2="495.42"/><line class="cls-1" x1="217.62" y1="636.76" x2="200.11" y2="541.76"/><line class="cls-1" x1="292.62" y1="710.16" x2="286.69" y2="758.96"/><line class="cls-1" x1="289.65" y1="796.01" x2="286.69" y2="758.96"/><line class="cls-1" x1="315.12" y1="840.87" x2="289.65" y2="796.01"/><line class="cls-1" x1="365.39" y1="884.79" x2="315.12" y2="840.87"/><line class="cls-1" x1="461.25" y1="886.9" x2="492.46" y2="865.06"/><line class="cls-1" x1="431.88" y1="891.13" x2="461.25" y2="886.9"/><line class="cls-1" x1="395.47" y1="890.19" x2="431.88" y2="891.13"/><line class="cls-1" x1="365.39" y1="884.79" x2="395.47" y2="890.19"/><line class="cls-1" x1="492.46" y1="848.15" x2="484.27" y2="838.28"/><line class="cls-1" x1="463.36" y1="815.03" x2="468.06" y2="830.53"/><line class="cls-1" x1="484.27" y1="838.28" x2="468.06" y2="830.53"/><line class="cls-1" x1="469.47" y1="804.46" x2="469.94" y2="810.1"/><line class="cls-1" x1="463.36" y1="815.03" x2="469.94" y2="810.1"/><line class="cls-1" x1="443.39" y1="783.79" x2="469.47" y2="804.46"/><line class="cls-1" x1="428.36" y1="777.48" x2="443.39" y2="783.79"/><line class="cls-1" x1="426.24" y1="768.76" x2="428.36" y2="777.48"/><line class="cls-1" x1="420.6" y1="767.12" x2="426.24" y2="768.76"/><line class="cls-1" x1="412.73" y1="732.71" x2="422.01" y2="754.43"/><line class="cls-1" x1="420.6" y1="767.12" x2="422.01" y2="754.43"/><line class="cls-1" x1="469.47" y1="804.46" x2="463.36" y2="815.03"/><line class="cls-1" x1="428.36" y1="777.48" x2="418.08" y2="777.48"/><line class="cls-1" x1="426.24" y1="768.76" x2="418.08" y2="777.48"/><line class="cls-1" x1="420.6" y1="767.12" x2="418.08" y2="777.48"/><line class="cls-1" x1="404.16" y1="746.1" x2="418.08" y2="777.48"/><line class="cls-1" x1="422.01" y1="754.43" x2="404.16" y2="746.1"/><line class="cls-1" x1="492.46" y1="865.06" x2="448.09" y2="849.79"/><line class="cls-1" x1="492.46" y1="848.15" x2="448.09" y2="849.79"/><line class="cls-1" x1="484.27" y1="838.28" x2="448.09" y2="849.79"/><line class="cls-1" x1="468.06" y1="830.53" x2="448.09" y2="849.79"/><line class="cls-1" x1="463.36" y1="815.03" x2="449.74" y2="813.62"/><line class="cls-1" x1="468.06" y1="830.53" x2="449.74" y2="813.62"/><line class="cls-1" x1="443.39" y1="783.79" x2="463.36" y2="815.03"/><line class="cls-1" x1="449.74" y1="813.62" x2="443.39" y2="783.79"/><line class="cls-1" x1="434.94" y1="796.24" x2="443.39" y2="783.79"/><line class="cls-1" x1="418.08" y1="777.48" x2="434.94" y2="796.24"/><line class="cls-1" x1="449.74" y1="813.62" x2="434.94" y2="796.24"/><line class="cls-1" x1="448.09" y1="849.79" x2="426.51" y2="827.48"/><line class="cls-1" x1="461.25" y1="886.9" x2="419.34" y2="856.6"/><line class="cls-1" x1="431.88" y1="891.13" x2="419.34" y2="856.6"/><line class="cls-1" x1="448.09" y1="849.79" x2="461.25" y2="886.9"/><line class="cls-1" x1="419.34" y1="856.6" x2="448.09" y2="849.79"/><line class="cls-1" x1="426.51" y1="827.48" x2="468.06" y2="830.53"/><line class="cls-1" x1="419.34" y1="856.6" x2="426.51" y2="827.48"/><line class="cls-1" x1="434.94" y1="796.24" x2="426.51" y2="827.48"/><line class="cls-1" x1="418.08" y1="777.48" x2="395.47" y2="799.76"/><line class="cls-1" x1="358.7" y1="753.49" x2="395.47" y2="799.76"/><line class="cls-1" x1="404.16" y1="746.1" x2="395.47" y2="799.76"/><line class="cls-1" x1="434.94" y1="796.24" x2="395.47" y2="799.76"/><line class="cls-1" x1="426.51" y1="827.48" x2="395.47" y2="799.76"/><line class="cls-1" x1="369.86" y1="809.75" x2="426.51" y2="827.48"/><line class="cls-1" x1="395.47" y1="799.76" x2="369.86" y2="809.75"/><line class="cls-1" x1="345.92" y1="771.46" x2="395.47" y2="799.76"/><line class="cls-1" x1="358.7" y1="753.49" x2="336.15" y2="749.27"/><line class="cls-1" x1="286.69" y1="758.96" x2="308.3" y2="755.37"/><line class="cls-1" x1="292.62" y1="710.16" x2="308.3" y2="755.37"/><line class="cls-1" x1="345.92" y1="771.46" x2="308.3" y2="755.37"/><line class="cls-1" x1="320.99" y1="741.52" x2="308.3" y2="755.37"/><line class="cls-1" x1="336.15" y1="749.27" x2="308.3" y2="755.37"/><line class="cls-1" x1="345.92" y1="771.46" x2="369.86" y2="809.75"/><line class="cls-1" x1="329.26" y1="790.6" x2="345.92" y2="771.46"/><line class="cls-1" x1="308.3" y1="755.37" x2="329.26" y2="790.6"/><line class="cls-1" x1="369.86" y1="809.75" x2="329.26" y2="790.6"/><line class="cls-1" x1="286.69" y1="758.96" x2="300.46" y2="776.63"/><line class="cls-1" x1="308.3" y1="755.37" x2="300.46" y2="776.63"/><line class="cls-1" x1="289.65" y1="796.01" x2="300.46" y2="776.63"/><line class="cls-1" x1="419.34" y1="856.6" x2="369.86" y2="809.75"/><line class="cls-1" x1="365.39" y1="822.08" x2="419.34" y2="856.6"/><line class="cls-1" x1="369.86" y1="809.75" x2="365.39" y2="822.08"/><line class="cls-1" x1="329.26" y1="790.6" x2="365.39" y2="822.08"/><line class="cls-1" x1="300.46" y1="776.63" x2="329.26" y2="790.6"/><line class="cls-1" x1="289.65" y1="796.01" x2="327.11" y2="803.52"/><line class="cls-1" x1="300.46" y1="776.63" x2="327.11" y2="803.52"/><line class="cls-1" x1="329.26" y1="790.6" x2="327.11" y2="803.52"/><line class="cls-1" x1="365.39" y1="822.08" x2="359.52" y2="833.17"/><line class="cls-1" x1="327.11" y1="803.52" x2="365.39" y2="822.08"/><line class="cls-1" x1="359.52" y1="833.17" x2="327.11" y2="803.52"/><line class="cls-1" x1="315.12" y1="840.87" x2="324.98" y2="831.94"/><line class="cls-1" x1="327.11" y1="803.52" x2="324.98" y2="831.94"/><line class="cls-1" x1="419.34" y1="856.6" x2="359.52" y2="833.17"/><line class="cls-1" x1="395.47" y1="890.19" x2="419.34" y2="856.6"/><line class="cls-1" x1="385.83" y1="860.83" x2="395.47" y2="890.19"/><line class="cls-1" x1="365.39" y1="884.79" x2="385.83" y2="860.83"/><line class="cls-1" x1="419.34" y1="856.6" x2="385.83" y2="860.83"/><line class="cls-1" x1="359.52" y1="833.17" x2="385.83" y2="860.83"/><line class="cls-1" x1="324.98" y1="831.94" x2="385.83" y2="860.83"/><line class="cls-1" x1="365.39" y1="884.79" x2="324.98" y2="831.94"/><line class="cls-1" x1="289.65" y1="796.01" x2="324.98" y2="831.94"/><line class="cls-1" x1="244.34" y1="710.51" x2="286.69" y2="758.96"/><line class="cls-1" x1="237.12" y1="729.8" x2="286.69" y2="758.96"/><line class="cls-1" x1="244.34" y1="710.51" x2="237.12" y2="729.8"/><line class="cls-1" x1="196.94" y1="672.93" x2="237.12" y2="729.8"/><line class="cls-1" x1="458.08" y1="285.28" x2="357.64" y2="346.32"/><line class="cls-1" x1="434.47" y1="332.8" x2="458.08" y2="285.28"/><line class="cls-1" x1="365.82" y1="295.85" x2="458.08" y2="285.28"/><line class="cls-1" x1="340.55" y1="319.28" x2="365.82" y2="295.85"/><line class="cls-1" x1="357.64" y1="346.32" x2="365.82" y2="295.85"/><line class="cls-1" x1="426.24" y1="768.76" x2="422.01" y2="754.43"/><line class="cls-1" x1="439.16" y1="759.13" x2="412.73" y2="732.71"/><line class="cls-1" x1="422.01" y1="754.43" x2="439.16" y2="759.13"/><line class="cls-1" x1="426.24" y1="768.76" x2="439.16" y2="759.13"/><line class="cls-1" x1="473.23" y1="773.12" x2="439.16" y2="759.13"/><line class="cls-1" x1="492.31" y1="769.48" x2="473.23" y2="773.12"/><line class="cls-1" x1="500.65" y1="838.28" x2="521.56" y2="815.03"/><line class="cls-1" x1="484.27" y1="838.28" x2="463.36" y2="815.03"/><line class="cls-1" x1="500.65" y1="838.28" x2="484.27" y2="838.28"/><line class="cls-1" x1="514.98" y1="810.1" x2="500.65" y2="838.28"/><line class="cls-1" x1="469.94" y1="810.1" x2="484.27" y2="838.28"/><line class="cls-1" x1="492.31" y1="769.48" x2="500.65" y2="838.28"/><line class="cls-1" x1="484.27" y1="838.28" x2="492.31" y2="769.48"/><line class="cls-1" x1="514.98" y1="810.1" x2="492.31" y2="769.48"/><line class="cls-1" x1="469.94" y1="810.1" x2="492.31" y2="769.48"/><line class="cls-1" x1="515.45" y1="804.46" x2="511.69" y2="773.12"/><line class="cls-1" x1="492.31" y1="769.48" x2="515.45" y2="804.46"/><line class="cls-1" x1="469.47" y1="804.46" x2="473.23" y2="773.12"/><line class="cls-1" x1="492.31" y1="769.48" x2="469.47" y2="804.46"/><line class="cls-1" x1="541.53" y1="783.79" x2="545.75" y2="760.36"/><line class="cls-1" x1="511.69" y1="773.12" x2="541.53" y2="783.79"/><line class="cls-1" x1="439.16" y1="759.13" x2="443.39" y2="783.79"/><line class="cls-1" x1="473.23" y1="773.12" x2="443.39" y2="783.79"/><line class="cls-1" x1="429.46" y1="777.48" x2="439.16" y2="759.13"/><line class="cls-1" x1="556.56" y1="777.48" x2="545.75" y2="759.13"/><line class="cls-1" x1="511.69" y1="773.12" x2="551.16" y2="720.47"/><line class="cls-1" x1="545.75" y1="759.13" x2="551.16" y2="720.47"/><line class="cls-1" x1="572.19" y1="732.71" x2="551.16" y2="720.47"/><line class="cls-1" x1="568.78" y1="678.63" x2="551.16" y2="720.47"/><line class="cls-1" x1="550.22" y1="553.07" x2="519.21" y2="624.9"/><line class="cls-1" x1="491.25" y1="559.95" x2="519.21" y2="624.9"/><line class="cls-1" x1="568.78" y1="678.63" x2="519.21" y2="624.9"/><line class="cls-1" x1="551.16" y1="720.47" x2="519.21" y2="624.9"/><line class="cls-1" x1="492.31" y1="769.48" x2="519.21" y2="624.9"/><line class="cls-1" x1="551.16" y1="720.47" x2="492.31" y2="769.48"/><line class="cls-1" x1="491.25" y1="559.95" x2="492.31" y2="769.48"/><line class="cls-1" x1="416.14" y1="678.63" x2="463.06" y2="629.57"/><line class="cls-1" x1="463.06" y1="629.57" x2="434.39" y2="552.68"/><line class="cls-1" x1="491.25" y1="559.95" x2="463.06" y2="629.57"/><line class="cls-1" x1="492.31" y1="769.48" x2="463.06" y2="629.57"/><line class="cls-1" x1="416.14" y1="678.63" x2="437.3" y2="719.78"/><line class="cls-1" x1="439.16" y1="759.13" x2="437.3" y2="719.78"/><line class="cls-1" x1="412.73" y1="732.71" x2="437.3" y2="719.78"/><line class="cls-1" x1="473.23" y1="773.12" x2="437.3" y2="719.78"/><line class="cls-1" x1="492.31" y1="769.48" x2="437.3" y2="719.78"/><line class="cls-1" x1="463.06" y1="629.57" x2="437.3" y2="719.78"/><line class="cls-1" x1="490.72" y1="420.54" x2="555.15" y2="383.22"/><line class="cls-1" x1="502.29" y1="361.5" x2="490.72" y2="420.54"/><line class="cls-1" x1="518.03" y1="387.8" x2="502.29" y2="361.5"/><line class="cls-1" x1="490.72" y1="420.54" x2="518.03" y2="387.8"/><line class="cls-1" x1="550.45" y1="332.8" x2="534.71" y2="370.01"/><line class="cls-1" x1="502.29" y1="361.5" x2="534.71" y2="370.01"/><line class="cls-1" x1="555.15" y1="383.22" x2="518.03" y2="387.8"/><line class="cls-1" x1="534.71" y1="370.01" x2="518.03" y2="387.8"/><line class="cls-1" x1="555.15" y1="383.22" x2="534.71" y2="370.01"/><line class="cls-1" x1="490.19" y1="458.64" x2="490.72" y2="420.54"/><line class="cls-1" x1="430.92" y1="385.65" x2="490.72" y2="420.54"/><line class="cls-1" x1="473.39" y1="359.23" x2="430.92" y2="385.65"/><line class="cls-1" x1="490.72" y1="420.54" x2="466.11" y2="391.74"/><line class="cls-1" x1="473.39" y1="359.23" x2="466.11" y2="391.74"/><line class="cls-1" x1="430.92" y1="385.65" x2="466.11" y2="391.74"/><line class="cls-1" x1="502.29" y1="361.5" x2="466.11" y2="391.74"/><line class="cls-1" x1="473.39" y1="359.23" x2="502.29" y2="361.5"/><line class="cls-1" x1="434.47" y1="332.8" x2="456.21" y2="349.91"/><line class="cls-1" x1="473.39" y1="359.23" x2="456.21" y2="349.91"/><line class="cls-1" x1="430.92" y1="385.65" x2="456.21" y2="349.91"/><line class="cls-1" x1="550.45" y1="332.8" x2="502.29" y2="361.5"/><line class="cls-1" x1="492.66" y1="295.26" x2="502.29" y2="361.5"/><line class="cls-1" x1="526.84" y1="285.28" x2="523.91" y2="312.64"/><line class="cls-1" x1="492.66" y1="295.26" x2="523.91" y2="312.64"/><line class="cls-1" x1="550.45" y1="332.8" x2="523.91" y2="312.64"/><line class="cls-1" x1="502.29" y1="361.5" x2="510.16" y2="325.33"/><line class="cls-1" x1="492.66" y1="295.26" x2="510.16" y2="325.33"/><line class="cls-1" x1="523.91" y1="312.64" x2="510.16" y2="325.33"/><line class="cls-1" x1="550.45" y1="332.8" x2="526.37" y2="337.07"/><line class="cls-1" x1="510.16" y1="325.33" x2="526.37" y2="337.07"/><line class="cls-1" x1="523.91" y1="312.64" x2="526.37" y2="337.07"/><line class="cls-1" x1="502.29" y1="361.5" x2="526.37" y2="337.07"/><line class="cls-1" x1="473.39" y1="359.23" x2="486.08" y2="331.2"/><line class="cls-1" x1="492.66" y1="295.26" x2="486.08" y2="331.2"/><line class="cls-1" x1="502.29" y1="361.5" x2="486.08" y2="331.2"/><line class="cls-1" x1="458.08" y1="285.28" x2="460.82" y2="303.95"/><line class="cls-1" x1="434.47" y1="332.8" x2="460.82" y2="303.95"/><line class="cls-1" x1="492.66" y1="295.26" x2="458.08" y2="285.28"/><line class="cls-1" x1="526.84" y1="285.28" x2="492.66" y2="295.26"/><line class="cls-1" x1="460.82" y1="303.95" x2="492.66" y2="295.26"/><line class="cls-1" x1="456.21" y1="349.91" x2="460.82" y2="303.95"/><line class="cls-1" x1="492.66" y1="295.26" x2="469.75" y2="317.34"/><line class="cls-1" x1="456.21" y1="349.91" x2="469.75" y2="317.34"/><line class="cls-1" x1="460.82" y1="303.95" x2="469.75" y2="317.34"/><line class="cls-1" x1="486.08" y1="331.2" x2="474.33" y2="334.93"/><line class="cls-1" x1="469.75" y1="317.34" x2="474.33" y2="334.93"/><line class="cls-1" x1="473.39" y1="359.23" x2="474.33" y2="334.93"/><line class="cls-1" x1="456.21" y1="349.91" x2="474.33" y2="334.93"/><line class="cls-1" x1="469.75" y1="317.34" x2="486.08" y2="331.2"/><line class="cls-1" x1="461.25" y1="886.9" x2="497.59" y2="890.66"/><line class="cls-1" x1="519.44" y1="879.15" x2="497.59" y2="890.66"/><line class="cls-1" x1="553.04" y1="891.13" x2="525.31" y2="901.93"/><line class="cls-1" x1="497.59" y1="890.66" x2="525.31" y2="901.93"/><line class="cls-1" x1="519.44" y1="879.15" x2="525.31" y2="901.93"/><line class="cls-1" x1="431.88" y1="891.13" x2="481.44" y2="899.35"/><line class="cls-1" x1="497.59" y1="890.66" x2="481.44" y2="899.35"/><line class="cls-1" x1="525.31" y1="901.93" x2="481.44" y2="899.35"/><line class="cls-1" x1="461.25" y1="886.9" x2="481.44" y2="899.35"/><line class="cls-1" x1="619.53" y1="884.79" x2="612.24" y2="931.41"/><line class="cls-1" x1="612.24" y1="931.41" x2="588.95" y2="986.9"/><line class="cls-1" x1="448.85" y1="1025.12" x2="536.94" y2="1027.94"/><line class="cls-1" x1="588.95" y1="986.9" x2="536.94" y2="1027.94"/><line class="cls-1" x1="391.15" y1="988.83" x2="448.85" y2="1025.12"/><line class="cls-1" x1="365.39" y1="884.79" x2="367.63" y2="937.05"/><line class="cls-1" x1="391.15" y1="988.83" x2="367.63" y2="937.05"/><line class="cls-1" x1="481.44" y1="899.35" x2="481.44" y2="912.97"/><line class="cls-1" x1="525.31" y1="901.93" x2="529.07" y2="910.15"/><line class="cls-1" x1="553.04" y1="891.13" x2="557.5" y2="900.52"/><line class="cls-1" x1="589.45" y1="890.19" x2="591.33" y2="902.4"/><line class="cls-1" x1="619.53" y1="884.79" x2="591.33" y2="902.4"/><line class="cls-1" x1="553.04" y1="891.13" x2="591.33" y2="902.4"/><line class="cls-1" x1="557.5" y1="900.52" x2="525.31" y2="901.93"/><line class="cls-1" x1="529.07" y1="910.15" x2="557.5" y2="900.52"/><line class="cls-1" x1="591.33" y1="902.4" x2="557.5" y2="900.52"/><line class="cls-1" x1="525.31" y1="901.93" x2="481.44" y2="912.97"/><line class="cls-1" x1="529.07" y1="910.15" x2="481.44" y2="912.97"/><line class="cls-1" x1="431.88" y1="891.13" x2="481.44" y2="912.97"/><line class="cls-1" x1="395.47" y1="890.19" x2="394.6" y2="904.28"/><line class="cls-1" x1="431.88" y1="891.13" x2="429.69" y2="902.87"/><line class="cls-1" x1="365.39" y1="884.79" x2="394.6" y2="904.28"/><line class="cls-1" x1="395.47" y1="890.19" x2="429.69" y2="902.87"/><line class="cls-1" x1="394.6" y1="904.28" x2="429.69" y2="902.87"/><line class="cls-1" x1="481.44" y1="912.97" x2="429.69" y2="902.87"/><line class="cls-1" x1="394.6" y1="904.28" x2="367.63" y2="937.05"/><line class="cls-1" x1="591.33" y1="902.4" x2="612.24" y2="931.41"/><line class="cls-1" x1="588.95" y1="986.9" x2="573.24" y2="951.26"/><line class="cls-1" x1="536.94" y1="1027.94" x2="539.18" y2="981.55"/><line class="cls-1" x1="448.85" y1="1025.12" x2="448.85" y2="977.56"/><line class="cls-1" x1="391.15" y1="988.83" x2="415.6" y2="952.9"/><line class="cls-1" x1="448.85" y1="1025.12" x2="493.83" y2="999.64"/><line class="cls-1" x1="536.94" y1="1027.94" x2="493.83" y2="999.64"/><line class="cls-1" x1="539.18" y1="981.55" x2="493.83" y2="999.64"/><line class="cls-1" x1="448.85" y1="977.56" x2="493.83" y2="999.64"/><line class="cls-1" x1="573.24" y1="951.26" x2="538.06" y2="1027.06"/><line class="cls-1" x1="612.24" y1="931.41" x2="573.24" y2="951.26"/><line class="cls-1" x1="591.33" y1="902.4" x2="573.24" y2="951.26"/><line class="cls-1" x1="367.63" y1="937.05" x2="415.6" y2="952.9"/><line class="cls-1" x1="394.6" y1="904.28" x2="415.6" y2="952.9"/><line class="cls-1" x1="448.85" y1="1025.12" x2="415.6" y2="952.9"/><line class="cls-1" x1="448.85" y1="977.56" x2="415.6" y2="952.9"/><line class="cls-1" x1="573.24" y1="951.26" x2="539.18" y2="981.55"/><line class="cls-1" x1="557.5" y1="900.52" x2="573.24" y2="951.26"/><line class="cls-1" x1="429.69" y1="902.87" x2="415.6" y2="952.9"/><line class="cls-1" x1="448.85" y1="977.56" x2="429.69" y2="902.87"/><line class="cls-1" x1="539.18" y1="981.55" x2="556.94" y2="899.35"/><line class="cls-1" x1="481.44" y1="912.97" x2="456.66" y2="935.52"/><line class="cls-1" x1="429.69" y1="902.87" x2="456.66" y2="935.52"/><line class="cls-1" x1="556.21" y1="900.96" x2="528.13" y2="936.93"/><line class="cls-1" x1="481.44" y1="912.97" x2="528.13" y2="936.93"/><line class="cls-1" x1="456.66" y1="935.52" x2="528.13" y2="936.93"/><line class="cls-1" x1="539.18" y1="981.55" x2="528.13" y2="936.93"/><line class="cls-1" x1="448.85" y1="977.56" x2="456.66" y2="935.52"/><line class="cls-1" x1="493.83" y1="999.64" x2="492.46" y2="963.94"/><line class="cls-1" x1="528.13" y1="936.93" x2="492.46" y2="963.94"/><line class="cls-1" x1="456.66" y1="935.52" x2="492.46" y2="963.94"/><line class="cls-1" x1="448.85" y1="977.56" x2="492.46" y2="963.94"/><line class="cls-1" x1="539.18" y1="981.55" x2="492.46" y2="963.94"/><line class="cls-1" x1="365.39" y1="884.79" x2="300.46" y2="848.97"/><line class="cls-1" x1="315.12" y1="840.87" x2="300.46" y2="848.97"/><line class="cls-1" x1="289.65" y1="796.01" x2="300.46" y2="848.97"/><line class="cls-1" x1="286.69" y1="758.96" x2="278.86" y2="792.25"/><line class="cls-1" x1="300.46" y1="848.97" x2="278.86" y2="792.25"/><line class="cls-1" x1="237.12" y1="729.8" x2="268.76" y2="766.13"/><line class="cls-1" x1="286.69" y1="758.96" x2="268.76" y2="766.13"/><line class="cls-1" x1="278.86" y1="792.25" x2="268.76" y2="766.13"/><line class="cls-1" x1="163.81" y1="564.47" x2="146.02" y2="611.46"/><line class="cls-1" x1="117.65" y1="495.42" x2="146.02" y2="611.46"/><line class="cls-1" x1="196.94" y1="672.93" x2="146.02" y2="611.46"/><line class="cls-1" x1="237.12" y1="729.8" x2="184.89" y2="729.8"/><line class="cls-1" x1="196.94" y1="672.93" x2="184.89" y2="729.8"/><line class="cls-1" x1="146.02" y1="611.46" x2="184.89" y2="729.8"/><line class="cls-1" x1="268.76" y1="766.13" x2="219.94" y2="771.3"/><line class="cls-1" x1="237.12" y1="729.8" x2="219.94" y2="771.3"/><line class="cls-1" x1="184.89" y1="729.8" x2="219.94" y2="771.3"/><line class="cls-1" x1="144.48" y1="697.19" x2="184.89" y2="729.8"/><line class="cls-1" x1="146.02" y1="611.46" x2="144.48" y2="697.19"/><line class="cls-1" x1="118.63" y1="641.76" x2="144.48" y2="697.19"/><line class="cls-1" x1="146.02" y1="611.46" x2="118.63" y2="641.76"/><line class="cls-1" x1="117.65" y1="495.42" x2="118.63" y2="641.76"/><line class="cls-1" x1="130.33" y1="435.36" x2="81.04" y2="459.32"/><line class="cls-1" x1="117.65" y1="495.42" x2="81.04" y2="459.32"/><line class="cls-1" x1="118.63" y1="641.76" x2="81.04" y2="459.32"/><line class="cls-1" x1="144.48" y1="697.19" x2="92.32" y2="665.59"/><line class="cls-1" x1="118.63" y1="641.76" x2="92.32" y2="665.59"/><line class="cls-1" x1="81.04" y1="459.32" x2="92.32" y2="665.59"/><line class="cls-1" x1="184.89" y1="729.8" x2="125.68" y2="734.73"/><line class="cls-1" x1="144.48" y1="697.19" x2="125.68" y2="734.73"/><line class="cls-1" x1="92.32" y1="665.59" x2="125.68" y2="734.73"/><line class="cls-1" x1="219.94" y1="771.3" x2="125.68" y2="734.73"/><line class="cls-1" x1="300.46" y1="848.97" x2="202.41" y2="820.61"/><line class="cls-1" x1="278.86" y1="792.25" x2="202.41" y2="820.61"/><line class="cls-1" x1="219.94" y1="771.3" x2="278.86" y2="792.25"/><line class="cls-1" x1="202.41" y1="820.61" x2="219.94" y2="771.3"/><line class="cls-1" x1="125.68" y1="734.73" x2="202.41" y2="820.61"/><line class="cls-1" x1="91.38" y1="757.99" x2="202.41" y2="820.61"/><line class="cls-1" x1="92.32" y1="665.59" x2="91.38" y2="757.99"/><line class="cls-1" x1="125.68" y1="734.73" x2="91.38" y2="757.99"/><line class="cls-1" x1="105.48" y1="388.7" x2="81.04" y2="459.32"/><line class="cls-1" x1="130.33" y1="435.36" x2="105.48" y2="388.7"/><line class="cls-1" x1="145.25" y1="352.73" x2="161.7" y2="395.55"/><line class="cls-1" x1="130.33" y1="435.36" x2="145.25" y2="352.73"/><line class="cls-1" x1="105.48" y1="388.7" x2="145.25" y2="352.73"/><line class="cls-1" x1="210.15" y1="356.09" x2="145.25" y2="352.73"/><line class="cls-1" x1="280.81" y1="326.32" x2="227.29" y2="319.28"/><line class="cls-1" x1="210.15" y1="356.09" x2="227.29" y2="319.28"/><line class="cls-1" x1="145.25" y1="352.73" x2="153.47" y2="310.65"/><line class="cls-1" x1="227.29" y1="319.28" x2="153.47" y2="310.65"/><line class="cls-1" x1="280.81" y1="326.32" x2="319.25" y2="254.16"/><line class="cls-1" x1="227.29" y1="319.28" x2="319.25" y2="254.16"/><line class="cls-1" x1="340.55" y1="319.28" x2="319.25" y2="254.16"/><line class="cls-1" x1="365.82" y1="295.85" x2="319.25" y2="254.16"/><line class="cls-1" x1="275.1" y1="224.8" x2="227.29" y2="319.28"/><line class="cls-1" x1="319.25" y1="254.16" x2="275.1" y2="224.8"/><line class="cls-1" x1="153.47" y1="310.65" x2="275.1" y2="224.8"/><line class="cls-1" x1="330.93" y1="225.27" x2="319.25" y2="254.16"/><line class="cls-1" x1="275.1" y1="224.8" x2="330.93" y2="225.27"/><line class="cls-1" x1="365.82" y1="295.85" x2="351.93" y2="266.61"/><line class="cls-1" x1="319.25" y1="254.16" x2="351.93" y2="266.61"/><line class="cls-1" x1="330.93" y1="225.27" x2="351.93" y2="266.61"/><line class="cls-1" x1="469.75" y1="229.5" x2="351.93" y2="266.61"/><line class="cls-1" x1="405.26" y1="219.63" x2="351.93" y2="266.61"/><line class="cls-1" x1="469.75" y1="229.5" x2="405.26" y2="219.63"/><line class="cls-1" x1="469.75" y1="208.6" x2="469.75" y2="229.5"/><line class="cls-1" x1="405.26" y1="219.63" x2="469.75" y2="208.6"/><line class="cls-1" x1="489.37" y1="184.87" x2="469.75" y2="208.6"/><line class="cls-1" x1="499.95" y1="252.55" x2="469.75" y2="229.5"/><line class="cls-1" x1="469.75" y1="208.6" x2="499.95" y2="252.55"/><line class="cls-1" x1="489.37" y1="184.87" x2="499.95" y2="252.55"/><line class="cls-1" x1="330.93" y1="225.27" x2="388.02" y2="196.73"/><line class="cls-1" x1="405.26" y1="219.63" x2="388.02" y2="196.73"/><line class="cls-1" x1="351.93" y1="266.61" x2="388.02" y2="196.73"/><line class="cls-1" x1="469.75" y1="208.6" x2="388.02" y2="196.73"/><line class="cls-1" x1="489.37" y1="184.87" x2="388.02" y2="196.73"/><line class="cls-1" x1="347.93" y1="198.26" x2="275.1" y2="224.8"/><line class="cls-1" x1="330.93" y1="225.27" x2="347.93" y2="198.26"/><line class="cls-1" x1="388.02" y1="196.73" x2="347.93" y2="198.26"/><line class="cls-1" x1="442.26" y1="164.67" x2="388.02" y2="196.73"/><line class="cls-1" x1="489.37" y1="184.87" x2="442.26" y2="164.67"/><line class="cls-1" x1="499" y1="170.25" x2="489.37" y2="184.87"/><line class="cls-1" x1="442.26" y1="164.67" x2="499" y2="170.25"/><line class="cls-1" x1="333.32" y1="179.32" x2="347.93" y2="198.26"/><line class="cls-1" x1="442.26" y1="164.67" x2="333.32" y2="179.32"/><line class="cls-1" x1="388.02" y1="196.73" x2="333.32" y2="179.32"/><line class="cls-1" x1="469.75" y1="229.5" x2="365.82" y2="295.85"/><line class="cls-1" x1="458.08" y1="285.28" x2="445.67" y2="271.07"/><line class="cls-1" x1="469.75" y1="229.5" x2="445.67" y2="271.07"/><line class="cls-1" x1="365.82" y1="295.85" x2="445.67" y2="271.07"/><line class="cls-1" x1="499.95" y1="252.55" x2="458.08" y2="285.28"/><line class="cls-1" x1="469.75" y1="229.5" x2="458.08" y2="285.28"/><line class="cls-1" x1="492.66" y1="295.26" x2="482.32" y2="283.46"/><line class="cls-1" x1="499.95" y1="252.55" x2="482.32" y2="283.46"/><line class="cls-1" x1="458.08" y1="285.28" x2="482.32" y2="283.46"/><line class="cls-1" x1="526.84" y1="285.28" x2="499.95" y2="252.55"/><line class="cls-1" x1="492.66" y1="295.26" x2="499.95" y2="252.55"/><line class="cls-1" x1="528.13" y1="251.81" x2="526.84" y2="285.28"/><line class="cls-1" x1="619.1" y1="295.85" x2="528.13" y2="251.81"/><line class="cls-1" x1="526.96" y1="222.57" x2="528.13" y2="251.81"/><line class="cls-1" x1="499.95" y1="252.55" x2="526.96" y2="222.57"/><line class="cls-1" x1="644.37" y1="319.28" x2="644.02" y2="294.62"/><line class="cls-1" x1="526.96" y1="222.57" x2="619.1" y2="295.85"/><line class="cls-1" x1="499.95" y1="252.55" x2="528.13" y2="251.81"/><line class="cls-1" x1="644.02" y1="294.62" x2="526.96" y2="222.57"/><line class="cls-1" x1="704.11" y1="326.32" x2="644.02" y2="294.62"/><line class="cls-1" x1="666.98" y1="258.59" x2="704.11" y2="326.32"/><line class="cls-1" x1="725.72" y1="321.22" x2="704.11" y2="326.32"/><line class="cls-1" x1="666.98" y1="258.59" x2="725.72" y2="321.22"/><line class="cls-1" x1="774.77" y1="356.09" x2="725.72" y2="321.22"/><line class="cls-1" x1="529.54" y1="202.67" x2="526.96" y2="222.57"/><line class="cls-1" x1="489.37" y1="184.87" x2="529.54" y2="202.67"/><line class="cls-1" x1="499.95" y1="252.55" x2="529.54" y2="202.67"/><line class="cls-1" x1="644.02" y1="294.62" x2="666.98" y2="258.59"/><line class="cls-1" x1="529.54" y1="202.67" x2="568.14" y2="212.62"/><line class="cls-1" x1="644.02" y1="294.62" x2="638.79" y2="268.01"/><line class="cls-1" x1="568.14" y1="212.62" x2="638.79" y2="268.01"/><line class="cls-1" x1="526.96" y1="222.57" x2="568.14" y2="212.62"/><line class="cls-1" x1="638.79" y1="268.01" x2="526.96" y2="222.57"/><line class="cls-1" x1="666.98" y1="258.59" x2="638.79" y2="268.01"/><line class="cls-1" x1="568.14" y1="212.62" x2="666.98" y2="258.59"/><line class="cls-1" x1="536.36" y1="168.08" x2="489.37" y2="184.87"/><line class="cls-1" x1="529.54" y1="202.67" x2="536.36" y2="168.08"/><line class="cls-1" x1="499" y1="170.25" x2="536.36" y2="168.08"/><line class="cls-1" x1="568.14" y1="212.62" x2="541.53" y2="188.4"/><line class="cls-1" x1="536.36" y1="168.08" x2="541.53" y2="188.4"/><line class="cls-1" x1="529.54" y1="202.67" x2="541.53" y2="188.4"/><line class="cls-1" x1="616" y1="200.51" x2="568.14" y2="212.62"/><line class="cls-1" x1="541.53" y1="188.4" x2="616" y2="200.51"/><line class="cls-1" x1="666.98" y1="258.59" x2="616" y2="200.51"/><line class="cls-1" x1="667.45" y1="186.99" x2="616" y2="200.51"/><line class="cls-1" x1="536.36" y1="168.08" x2="596.77" y2="174.04"/><line class="cls-1" x1="616" y1="200.51" x2="596.77" y2="174.04"/><line class="cls-1" x1="541.53" y1="188.4" x2="596.77" y2="174.04"/><line class="cls-1" x1="667.45" y1="186.99" x2="596.77" y2="174.04"/><line class="cls-1" x1="666.98" y1="258.59" x2="669.33" y2="239.13"/><line class="cls-1" x1="616" y1="200.51" x2="669.33" y2="239.13"/><line class="cls-1" x1="702.93" y1="229.55" x2="669.33" y2="239.13"/><line class="cls-1" x1="616" y1="200.51" x2="702.93" y2="229.55"/><line class="cls-1" x1="667.45" y1="186.99" x2="702.93" y2="229.55"/><line class="cls-1" x1="666.98" y1="258.59" x2="711.8" y2="273.83"/><line class="cls-1" x1="725.72" y1="321.22" x2="711.8" y2="273.83"/><line class="cls-1" x1="669.33" y1="239.13" x2="711.8" y2="273.83"/><line class="cls-1" x1="702.93" y1="229.55" x2="711.8" y2="273.83"/><line class="cls-1" x1="275.1" y1="224.8" x2="333.32" y2="179.32"/><line class="cls-1" x1="153.47" y1="310.65" x2="134.14" y2="321.08"/><line class="cls-1" x1="145.25" y1="352.73" x2="134.14" y2="321.08"/><line class="cls-1" x1="110.64" y1="272.04" x2="134.14" y2="321.08"/><line class="cls-1" x1="114.87" y1="237.56" x2="110.64" y2="272.04"/><line class="cls-1" x1="95.14" y1="188.98" x2="114.87" y2="237.56"/><line class="cls-1" x1="75.29" y1="116.53" x2="95.14" y2="188.98"/><line class="cls-1" x1="94.79" y1="56.63" x2="75.29" y2="116.53"/><line class="cls-1" x1="127.56" y1="52.05" x2="94.79" y2="56.63"/><line class="cls-1" x1="156.81" y1="56.28" x2="127.56" y2="52.05"/><line class="cls-1" x1="291.43" y1="172.54" x2="248.08" y2="127.45"/><line class="cls-1" x1="156.81" y1="56.28" x2="248.08" y2="127.45"/><line class="cls-1" x1="333.32" y1="179.32" x2="291.43" y2="172.54"/><line class="cls-1" x1="275.1" y1="224.8" x2="291.43" y2="172.54"/><line class="cls-1" x1="153.47" y1="310.65" x2="110.64" y2="272.04"/><line class="cls-1" x1="114.87" y1="237.56" x2="135.12" y2="253.54"/><line class="cls-1" x1="110.64" y1="272.04" x2="135.12" y2="253.54"/><line class="cls-1" x1="153.47" y1="310.65" x2="218.72" y2="250.29"/><line class="cls-1" x1="275.1" y1="224.8" x2="218.72" y2="250.29"/><line class="cls-1" x1="291.43" y1="172.54" x2="254.05" y2="189.59"/><line class="cls-1" x1="218.72" y1="250.29" x2="254.05" y2="189.59"/><line class="cls-1" x1="248.08" y1="127.45" x2="254.05" y2="189.59"/><line class="cls-1" x1="156.81" y1="56.28" x2="155.05" y2="97.27"/><line class="cls-1" x1="254.05" y1="189.59" x2="155.05" y2="97.27"/><line class="cls-1" x1="248.08" y1="127.45" x2="155.05" y2="97.27"/><line class="cls-1" x1="127.56" y1="52.05" x2="111.17" y2="83.17"/><line class="cls-1" x1="94.79" y1="56.63" x2="111.17" y2="83.17"/><line class="cls-1" x1="155.05" y1="97.27" x2="111.17" y2="83.17"/><line class="cls-1" x1="75.29" y1="116.53" x2="111.17" y2="83.17"/><line class="cls-1" x1="105.95" y1="156.69" x2="95.14" y2="188.98"/><line class="cls-1" x1="75.29" y1="116.53" x2="105.95" y2="156.69"/><line class="cls-1" x1="111.17" y1="83.17" x2="98.43" y2="113.71"/><line class="cls-1" x1="75.29" y1="116.53" x2="98.43" y2="113.71"/><line class="cls-1" x1="105.95" y1="156.69" x2="98.43" y2="113.71"/><line class="cls-1" x1="155.05" y1="97.27" x2="98.43" y2="113.71"/><line class="cls-1" x1="218.72" y1="250.29" x2="181.13" y2="235.61"/><line class="cls-1" x1="254.05" y1="189.59" x2="181.13" y2="235.61"/><line class="cls-1" x1="214.29" y1="188.98" x2="181.13" y2="235.61"/><line class="cls-1" x1="254.05" y1="189.59" x2="214.29" y2="188.98"/><line class="cls-1" x1="155.05" y1="97.27" x2="132.06" y2="136.61"/><line class="cls-1" x1="98.43" y1="113.71" x2="132.06" y2="136.61"/><line class="cls-1" x1="105.95" y1="156.69" x2="132.06" y2="136.61"/><line class="cls-1" x1="214.29" y1="188.98" x2="155.05" y2="97.27"/><line class="cls-1" x1="132.06" y1="136.61" x2="214.29" y2="188.98"/><line class="cls-1" x1="181.13" y1="235.61" x2="166.79" y2="188.98"/><line class="cls-1" x1="214.29" y1="188.98" x2="166.79" y2="188.98"/><line class="cls-1" x1="132.06" y1="136.61" x2="166.79" y2="188.98"/><line class="cls-1" x1="105.95" y1="156.69" x2="119" y2="178.06"/><line class="cls-1" x1="166.79" y1="188.98" x2="119" y2="178.06"/><line class="cls-1" x1="95.14" y1="188.98" x2="119" y2="178.06"/><line class="cls-1" x1="114.87" y1="237.56" x2="119" y2="178.06"/><line class="cls-1" x1="181.13" y1="235.61" x2="139.69" y2="231.67"/><line class="cls-1" x1="166.79" y1="188.98" x2="139.69" y2="231.67"/><line class="cls-1" x1="137.79" y1="200.14" x2="139.69" y2="231.67"/><line class="cls-1" x1="119" y1="178.06" x2="137.79" y2="200.14"/><line class="cls-1" x1="166.79" y1="188.98" x2="137.79" y2="200.14"/><line class="cls-1" x1="114.87" y1="237.56" x2="137.79" y2="200.14"/><line class="cls-1" x1="139.69" y1="231.67" x2="135.12" y2="253.54"/><line class="cls-1" x1="114.87" y1="237.56" x2="139.69" y2="231.67"/><line class="cls-1" x1="153.47" y1="310.65" x2="135.12" y2="253.54"/><line class="cls-1" x1="218.72" y1="250.29" x2="175.49" y2="256.74"/><line class="cls-1" x1="181.13" y1="235.61" x2="175.49" y2="256.74"/><line class="cls-1" x1="153.47" y1="310.65" x2="175.49" y2="256.74"/><line class="cls-1" x1="135.12" y1="253.54" x2="175.49" y2="256.74"/><line class="cls-1" x1="139.69" y1="231.67" x2="145.65" y2="245.39"/><line class="cls-1" x1="175.49" y1="256.74" x2="145.65" y2="245.39"/><line class="cls-1" x1="145.65" y1="245.39" x2="135.12" y2="253.54"/><line class="cls-1" x1="181.13" y1="235.61" x2="145.65" y2="245.39"/><line class="cls-1" x1="846.44" y1="317.58" x2="724.9" y2="231.85"/><line class="cls-1" x1="846.44" y1="317.58" x2="873" y2="328.96"/><line class="cls-1" x1="889.36" y1="279.09" x2="873" y2="328.96"/><line class="cls-1" x1="885.13" y1="244.61" x2="889.36" y2="279.09"/><line class="cls-1" x1="904.86" y1="196.03" x2="885.13" y2="244.61"/><line class="cls-1" x1="924.71" y1="123.57" x2="904.86" y2="196.03"/><line class="cls-1" x1="905.21" y1="63.68" x2="924.71" y2="123.57"/><line class="cls-1" x1="872.44" y1="59.1" x2="905.21" y2="63.68"/><line class="cls-1" x1="843.19" y1="63.33" x2="872.44" y2="59.1"/><line class="cls-1" x1="708.57" y1="179.59" x2="751.92" y2="134.49"/><line class="cls-1" x1="843.19" y1="63.33" x2="751.92" y2="134.49"/><line class="cls-1" x1="667.45" y1="186.99" x2="708.57" y2="179.59"/><line class="cls-1" x1="724.9" y1="231.85" x2="708.57" y2="179.59"/><line class="cls-1" x1="846.44" y1="317.58" x2="889.36" y2="279.09"/><line class="cls-1" x1="885.13" y1="244.61" x2="864.88" y2="260.58"/><line class="cls-1" x1="889.36" y1="279.09" x2="864.88" y2="260.58"/><line class="cls-1" x1="846.44" y1="317.58" x2="781.28" y2="257.33"/><line class="cls-1" x1="724.9" y1="231.85" x2="781.28" y2="257.33"/><line class="cls-1" x1="708.57" y1="179.59" x2="745.95" y2="196.64"/><line class="cls-1" x1="781.28" y1="257.33" x2="745.95" y2="196.64"/><line class="cls-1" x1="751.92" y1="134.49" x2="745.95" y2="196.64"/><line class="cls-1" x1="843.19" y1="63.33" x2="844.95" y2="104.31"/><line class="cls-1" x1="745.95" y1="196.64" x2="844.95" y2="104.31"/><line class="cls-1" x1="751.92" y1="134.49" x2="844.95" y2="104.31"/><line class="cls-1" x1="872.44" y1="59.1" x2="888.83" y2="90.22"/><line class="cls-1" x1="905.21" y1="63.68" x2="888.83" y2="90.22"/><line class="cls-1" x1="844.95" y1="104.31" x2="888.83" y2="90.22"/><line class="cls-1" x1="924.71" y1="123.57" x2="888.83" y2="90.22"/><line class="cls-1" x1="894.05" y1="163.74" x2="904.86" y2="196.03"/><line class="cls-1" x1="924.71" y1="123.57" x2="894.05" y2="163.74"/><line class="cls-1" x1="888.83" y1="90.22" x2="901.57" y2="120.75"/><line class="cls-1" x1="924.71" y1="123.57" x2="901.57" y2="120.75"/><line class="cls-1" x1="894.05" y1="163.74" x2="901.57" y2="120.75"/><line class="cls-1" x1="844.95" y1="104.31" x2="901.57" y2="120.75"/><line class="cls-1" x1="781.28" y1="257.33" x2="818.87" y2="242.65"/><line class="cls-1" x1="745.95" y1="196.64" x2="818.87" y2="242.65"/><line class="cls-1" x1="785.71" y1="196.03" x2="818.87" y2="242.65"/><line class="cls-1" x1="745.95" y1="196.64" x2="785.71" y2="196.03"/><line class="cls-1" x1="844.95" y1="104.31" x2="867.94" y2="143.65"/><line class="cls-1" x1="901.57" y1="120.75" x2="867.94" y2="143.65"/><line class="cls-1" x1="894.05" y1="163.74" x2="867.94" y2="143.65"/><line class="cls-1" x1="785.71" y1="196.03" x2="844.95" y2="104.31"/><line class="cls-1" x1="867.94" y1="143.65" x2="785.71" y2="196.03"/><line class="cls-1" x1="818.87" y1="242.65" x2="833.21" y2="196.03"/><line class="cls-1" x1="785.71" y1="196.03" x2="833.21" y2="196.03"/><line class="cls-1" x1="867.94" y1="143.65" x2="833.21" y2="196.03"/><line class="cls-1" x1="894.05" y1="163.74" x2="881" y2="185.11"/><line class="cls-1" x1="833.21" y1="196.03" x2="881" y2="185.11"/><line class="cls-1" x1="904.86" y1="196.03" x2="881" y2="185.11"/><line class="cls-1" x1="885.13" y1="244.61" x2="881" y2="185.11"/><line class="cls-1" x1="818.87" y1="242.65" x2="860.31" y2="238.72"/><line class="cls-1" x1="833.21" y1="196.03" x2="860.31" y2="238.72"/><line class="cls-1" x1="862.21" y1="207.19" x2="860.31" y2="238.72"/><line class="cls-1" x1="881" y1="185.11" x2="862.21" y2="207.19"/><line class="cls-1" x1="833.21" y1="196.03" x2="862.21" y2="207.19"/><line class="cls-1" x1="885.13" y1="244.61" x2="862.21" y2="207.19"/><line class="cls-1" x1="860.31" y1="238.72" x2="864.88" y2="260.58"/><line class="cls-1" x1="885.13" y1="244.61" x2="860.31" y2="238.72"/><line class="cls-1" x1="846.44" y1="317.58" x2="864.88" y2="260.58"/><line class="cls-1" x1="781.28" y1="257.33" x2="824.51" y2="263.79"/><line class="cls-1" x1="818.87" y1="242.65" x2="824.51" y2="263.79"/><line class="cls-1" x1="846.44" y1="317.58" x2="824.51" y2="263.79"/><line class="cls-1" x1="864.88" y1="260.58" x2="824.51" y2="263.79"/><line class="cls-1" x1="860.31" y1="238.72" x2="854.35" y2="252.44"/><line class="cls-1" x1="824.51" y1="263.79" x2="854.35" y2="252.44"/><line class="cls-1" x1="854.35" y1="252.44" x2="864.88" y2="260.58"/><line class="cls-1" x1="818.87" y1="242.65" x2="854.35" y2="252.44"/><line class="cls-1" x1="134.14" y1="321.08" x2="105.48" y2="388.7"/><line class="cls-1" x1="702.93" y1="229.55" x2="708.57" y2="179.59"/><line class="cls-1" x1="724.9" y1="231.85" x2="702.93" y2="229.55"/><line class="cls-1" x1="725.72" y1="321.22" x2="749.92" y2="282.11"/><line class="cls-1" x1="711.8" y1="273.83" x2="749.92" y2="282.11"/><line class="cls-1" x1="724.9" y1="231.85" x2="711.8" y2="273.83"/><line class="cls-1" x1="724.9" y1="231.85" x2="749.92" y2="282.11"/><line class="cls-1" x1="774.77" y1="356.09" x2="772.88" y2="326.3"/><line class="cls-1" x1="725.72" y1="321.22" x2="772.88" y2="326.3"/><line class="cls-1" x1="749.68" y1="281.99" x2="772.88" y2="326.3"/><line class="cls-1" x1="822.78" y1="395.53" x2="772.88" y2="326.3"/><line class="cls-1" x1="749.92" y1="282.11" x2="846.44" y2="317.58"/><line class="cls-1" x1="772.88" y1="326.3" x2="846.44" y2="317.58"/><line class="cls-1" x1="873" y1="328.96" x2="822.78" y2="395.53"/><line class="cls-1" x1="749.04" y1="730.69" x2="695.34" y2="795.74"/><line class="cls-1" x1="765.5" y1="770.95" x2="695.34" y2="795.74"/><line class="cls-1" x1="749.04" y1="730.69" x2="765.5" y2="770.95"/><line class="cls-1" x1="789.58" y1="673.29" x2="787.06" y2="743.28"/><line class="cls-1" x1="749.04" y1="730.69" x2="787.06" y2="743.28"/><line class="cls-1" x1="787.06" y1="743.28" x2="765.5" y2="770.95"/><line class="cls-1" x1="789.58" y1="673.29" x2="815.67" y2="683.83"/><line class="cls-1" x1="787.06" y1="743.28" x2="815.67" y2="683.83"/><line class="cls-1" x1="789.58" y1="673.29" x2="850.44" y2="603.19"/><line class="cls-1" x1="815.67" y1="683.83" x2="850.44" y2="603.19"/><line class="cls-1" x1="906.67" y1="461.38" x2="850.44" y2="603.19"/><line class="cls-1" x1="906.67" y1="461.38" x2="888.65" y2="667.06"/><line class="cls-1" x1="888.65" y1="667.06" x2="850.44" y2="603.19"/><line class="cls-1" x1="888.65" y1="667.06" x2="847.11" y2="734.59"/><line class="cls-1" x1="850.44" y1="603.19" x2="847.11" y2="734.59"/><line class="cls-1" x1="787.06" y1="743.28" x2="847.11" y2="734.59"/><line class="cls-1" x1="842.25" y1="492.6" x2="906.67" y2="461.38"/><line class="cls-1" x1="847.11" y1="734.59" x2="815.67" y2="683.83"/><line class="cls-1" x1="829" y1="564.92" x2="850.44" y2="603.19"/><line class="cls-1" x1="873" y1="328.96" x2="843.84" y2="390.39"/><line class="cls-1" x1="854.37" y1="435.34" x2="843.84" y2="390.39"/><line class="cls-1" x1="822.78" y1="395.53" x2="843.84" y2="390.39"/><line class="cls-1" x1="906.39" y1="460.61" x2="888.83" y2="396.73"/><line class="cls-1" x1="843.84" y1="390.39" x2="888.83" y2="396.73"/><line class="cls-1" x1="854.37" y1="435.34" x2="888.83" y2="396.73"/><line class="cls-1" x1="765.5" y1="770.95" x2="670.04" y2="841.29"/><line class="cls-1" x1="888.65" y1="667.06" x2="892.76" y2="760.78"/><line class="cls-1" x1="847.11" y1="734.59" x2="892.76" y2="760.78"/><line class="cls-1" x1="787.06" y1="743.28" x2="827.17" y2="800.84"/><line class="cls-1" x1="847.11" y1="734.59" x2="827.17" y2="800.84"/><line class="cls-1" x1="892.76" y1="760.78" x2="827.17" y2="800.84"/><line class="cls-1" x1="670.04" y1="841.29" x2="764.95" y2="831.24"/><line class="cls-1" x1="765.5" y1="770.95" x2="764.95" y2="831.24"/><line class="cls-1" x1="827.17" y1="800.84" x2="764.95" y2="831.24"/><line class="cls-1" x1="765.5" y1="770.95" x2="827.17" y2="800.84"/><line class="cls-1" x1="873" y1="328.96" x2="888.83" y2="396.73"/><line class="cls-1" x1="846.44" y1="317.58" x2="822.78" y2="395.53"/><line class="cls-1" x1="705.87" y1="167.26" x2="751.92" y2="134.49"/><line class="cls-1" x1="707.98" y1="180.29" x2="705.87" y2="167.26"/><line class="cls-1" x1="667.45" y1="186.99" x2="705.87" y2="167.26"/><line class="cls-1" x1="677.53" y1="155.63" x2="667.45" y2="186.99"/><line class="cls-1" x1="705.87" y1="167.26" x2="677.53" y2="155.63"/><line class="cls-1" x1="596.77" y1="174.04" x2="677.53" y2="155.63"/><line class="cls-1" x1="536.36" y1="168.08" x2="587.17" y2="148.94"/><line class="cls-1" x1="596.77" y1="174.04" x2="587.17" y2="148.94"/><line class="cls-1" x1="677.53" y1="155.63" x2="639.17" y2="141.28"/><line class="cls-1" x1="596.77" y1="174.04" x2="607.02" y2="156.69"/><line class="cls-1" x1="677.53" y1="155.63" x2="607.02" y2="156.69"/><line class="cls-1" x1="639.17" y1="141.28" x2="587.17" y2="148.94"/><line class="cls-1" x1="607.02" y1="156.69" x2="587.17" y2="148.94"/><line class="cls-1" x1="639.17" y1="141.28" x2="607.02" y2="156.69"/><line class="cls-1" x1="583.3" y1="127.1" x2="639.17" y2="141.28"/><line class="cls-1" x1="537.77" y1="167.26" x2="583.3" y2="127.1"/><line class="cls-1" x1="587.17" y1="148.94" x2="583.3" y2="127.1"/><line class="cls-1" x1="499" y1="170.25" x2="525.78" y2="141.68"/><line class="cls-1" x1="537.77" y1="167.26" x2="525.78" y2="141.68"/><line class="cls-1" x1="583.3" y1="127.1" x2="525.78" y2="141.68"/><line class="cls-1" x1="518.03" y1="124.39" x2="525.78" y2="141.68"/><line class="cls-1" x1="583.3" y1="127.1" x2="518.03" y2="124.39"/><line class="cls-1" x1="462.91" y1="125.83" x2="518.03" y2="124.39"/><line class="cls-1" x1="499" y1="170.25" x2="462.91" y2="125.83"/><line class="cls-1" x1="525.78" y1="141.68" x2="462.91" y2="125.83"/><line class="cls-1" x1="442.26" y1="164.67" x2="456.18" y2="147.35"/><line class="cls-1" x1="499" y1="170.25" x2="456.18" y2="147.35"/><line class="cls-1" x1="462.91" y1="125.83" x2="456.18" y2="147.35"/><line class="cls-1" x1="381.77" y1="140.31" x2="456.18" y2="147.35"/><line class="cls-1" x1="462.91" y1="125.83" x2="381.77" y2="140.31"/><line class="cls-1" x1="333.32" y1="179.32" x2="381.77" y2="140.31"/><line class="cls-1" x1="442.26" y1="164.67" x2="381.77" y2="140.31"/><line class="cls-1" x1="317.86" y1="160.21" x2="381.77" y2="140.31"/><line class="cls-1" x1="442.26" y1="164.67" x2="408.43" y2="152.11"/><line class="cls-1" x1="381.77" y1="140.31" x2="408.43" y2="152.11"/><line class="cls-1" x1="333.32" y1="179.32" x2="408.43" y2="152.11"/><line class="cls-1" x1="248.08" y1="127.45" x2="317.86" y2="160.21"/><line class="cls-1" x1="291.43" y1="172.54" x2="317.86" y2="160.21"/><line class="cls-1" x1="333.32" y1="179.32" x2="317.86" y2="160.21"/><line class="cls-1" x1="647.01" y1="492.11" x2="655.7" y2="491.88"/><line class="cls-1" x1="658.16" y1="485.48" x2="655.7" y2="491.88"/><line class="cls-1" x1="644.1" y1="485.6" x2="647.01" y2="492.11"/><line class="cls-1" x1="646.4" y1="478.2" x2="644.1" y2="485.6"/><line class="cls-1" x1="655.44" y1="478.49" x2="658.16" y2="485.48"/><line class="cls-1" x1="646.4" y1="478.2" x2="655.44" y2="478.49"/><line class="cls-1" x1="638.83" y1="469.55" x2="646.4" y2="478.2"/><line class="cls-1" x1="652.66" y1="468.61" x2="646.4" y2="478.2"/><line class="cls-1" x1="655.44" y1="478.49" x2="652.66" y2="468.61"/><line class="cls-1" x1="663.27" y1="471.96" x2="655.44" y2="478.49"/><line class="cls-1" x1="652.66" y1="468.61" x2="663.27" y2="471.96"/><line class="cls-1" x1="638.83" y1="469.55" x2="652.66" y2="468.61"/><line class="cls-1" x1="625.73" y1="481.13" x2="646.4" y2="478.2"/><line class="cls-1" x1="638.83" y1="469.55" x2="625.73" y2="481.13"/><line class="cls-1" x1="644.1" y1="485.6" x2="625.73" y2="481.13"/><line class="cls-1" x1="625.09" y1="496.91" x2="625.73" y2="481.13"/><line class="cls-1" x1="644.1" y1="485.6" x2="625.09" y2="496.91"/><line class="cls-1" x1="647.01" y1="492.11" x2="625.09" y2="496.91"/><line class="cls-1" x1="632.48" y1="510.21" x2="647.01" y2="492.11"/><line class="cls-1" x1="625.09" y1="496.91" x2="632.48" y2="510.21"/><line class="cls-1" x1="647.01" y1="492.11" x2="648.39" y2="516.98"/><line class="cls-1" x1="632.48" y1="510.21" x2="648.39" y2="516.98"/><line class="cls-1" x1="655.7" y1="491.88" x2="648.39" y2="516.98"/><line class="cls-1" x1="663.6" y1="514.98" x2="648.39" y2="516.98"/><line class="cls-1" x1="655.7" y1="491.88" x2="663.6" y2="514.98"/><line class="cls-1" x1="675.3" y1="505.91" x2="655.7" y2="491.88"/><line class="cls-1" x1="663.6" y1="514.98" x2="675.3" y2="505.91"/><line class="cls-1" x1="655.7" y1="491.88" x2="681.87" y2="493.94"/><line class="cls-1" x1="675.3" y1="505.91" x2="681.87" y2="493.94"/><line class="cls-1" x1="658.16" y1="485.48" x2="681.87" y2="493.94"/><line class="cls-1" x1="658.16" y1="485.48" x2="681.98" y2="474.49"/><line class="cls-1" x1="681.87" y1="493.94" x2="681.98" y2="474.49"/><line class="cls-1" x1="658.16" y1="485.48" x2="663.27" y2="471.96"/><line class="cls-1" x1="681.98" y1="474.49" x2="663.27" y2="471.96"/><line class="cls-1" x1="647.01" y1="492.11" x2="651.41" y2="485.18"/><line class="cls-1" x1="655.7" y1="491.88" x2="651.41" y2="485.18"/><line class="cls-1" x1="644.1" y1="485.6" x2="651.41" y2="485.18"/><line class="cls-1" x1="646.4" y1="478.2" x2="651.41" y2="485.18"/><line class="cls-1" x1="655.44" y1="478.49" x2="651.41" y2="485.18"/><line class="cls-1" x1="658.16" y1="485.48" x2="651.41" y2="485.18"/><line class="cls-1" x1="619.29" y1="477.82" x2="625.73" y2="481.13"/><line class="cls-1" x1="638.83" y1="469.55" x2="619.29" y2="477.82"/><line class="cls-1" x1="609.06" y1="491.75" x2="625.73" y2="481.13"/><line class="cls-1" x1="619.29" y1="477.82" x2="609.06" y2="491.75"/><line class="cls-1" x1="625.09" y1="496.91" x2="609.06" y2="491.75"/><line class="cls-1" x1="596.74" y1="508.41" x2="625.09" y2="496.91"/><line class="cls-1" x1="609.06" y1="491.75" x2="596.74" y2="508.41"/><line class="cls-1" x1="632.48" y1="510.21" x2="616.97" y2="515"/><line class="cls-1" x1="625.09" y1="496.91" x2="616.97" y2="515"/><line class="cls-1" x1="632.48" y1="510.21" x2="631.27" y2="527.23"/><line class="cls-1" x1="648.39" y1="516.98" x2="631.27" y2="527.23"/><line class="cls-1" x1="646.37" y1="531.24" x2="648.39" y2="516.98"/><line class="cls-1" x1="631.27" y1="527.23" x2="646.37" y2="531.24"/><line class="cls-1" x1="616.97" y1="515" x2="631.27" y2="527.23"/><line class="cls-1" x1="616.97" y1="515" x2="596.74" y2="508.41"/><line class="cls-1" x1="648.39" y1="516.98" x2="658.99" y2="529.54"/><line class="cls-1" x1="646.37" y1="531.24" x2="658.99" y2="529.54"/><line class="cls-1" x1="663.6" y1="514.98" x2="658.99" y2="529.54"/><line class="cls-1" x1="672.49" y1="524.57" x2="658.99" y2="529.54"/><line class="cls-1" x1="663.6" y1="514.98" x2="672.49" y2="524.57"/><line class="cls-1" x1="675.3" y1="505.91" x2="672.49" y2="524.57"/><line class="cls-1" x1="685.43" y1="511.27" x2="672.49" y2="524.57"/><line class="cls-1" x1="675.3" y1="505.91" x2="685.43" y2="511.27"/><line class="cls-1" x1="681.87" y1="493.94" x2="685.43" y2="511.27"/><line class="cls-1" x1="693.6" y1="495.7" x2="685.43" y2="511.27"/><line class="cls-1" x1="681.87" y1="493.94" x2="693.6" y2="495.7"/><line class="cls-1" x1="702.67" y1="479.03" x2="681.87" y2="493.94"/><line class="cls-1" x1="693.6" y1="495.7" x2="702.67" y2="479.03"/><line class="cls-1" x1="681.98" y1="474.49" x2="702.67" y2="479.03"/><line class="cls-1" x1="593.01" y1="536.01" x2="616.97" y2="515"/><line class="cls-1" x1="596.74" y1="508.41" x2="593.01" y2="536.01"/><line class="cls-1" x1="646.37" y1="531.24" x2="627.15" y2="536.36"/><line class="cls-1" x1="631.27" y1="527.23" x2="627.15" y2="536.36"/><line class="cls-1" x1="616.97" y1="515" x2="627.15" y2="536.36"/><line class="cls-1" x1="616.35" y1="536.79" x2="618.5" y2="564.39"/><line class="cls-1" x1="627.15" y1="536.36" x2="618.5" y2="564.39"/><line class="cls-1" x1="616.35" y1="536.79" x2="627.15" y2="536.36"/><line class="cls-1" x1="616.35" y1="536.79" x2="616.97" y2="515"/><line class="cls-1" x1="616.35" y1="536.79" x2="593.01" y2="536.01"/><line class="cls-1" x1="616.35" y1="536.79" x2="598.06" y2="547.1"/><line class="cls-1" x1="598.06" y1="547.1" x2="593.01" y2="536.01"/><line class="cls-1" x1="598.06" y1="547.1" x2="618.5" y2="564.39"/><line class="cls-1" x1="679.56" y1="539.25" x2="672.49" y2="524.57"/><line class="cls-1" x1="690.82" y1="532.05" x2="672.49" y2="524.57"/><line class="cls-1" x1="685.43" y1="511.27" x2="690.82" y2="532.05"/><line class="cls-1" x1="703.67" y1="518.87" x2="685.43" y2="511.27"/><line class="cls-1" x1="693.6" y1="495.7" x2="703.67" y2="518.87"/><line class="cls-1" x1="721.19" y1="499.31" x2="693.6" y2="495.7"/><line class="cls-1" x1="703.67" y1="518.87" x2="721.19" y2="499.31"/><line class="cls-1" x1="702.67" y1="479.03" x2="721.19" y2="499.31"/><line class="cls-1" x1="679.56" y1="539.25" x2="658.99" y2="529.54"/><line class="cls-1" x1="658.52" y1="546.42" x2="658.99" y2="529.54"/><line class="cls-1" x1="679.56" y1="539.25" x2="658.52" y2="546.42"/><line class="cls-1" x1="658.52" y1="546.42" x2="646.37" y2="531.24"/><line class="cls-1" x1="646.37" y1="531.24" x2="645.22" y2="564.54"/><line class="cls-1" x1="658.52" y1="546.42" x2="645.22" y2="564.54"/><line class="cls-1" x1="645.22" y1="564.54" x2="627.15" y2="536.36"/><line class="cls-1" x1="645.22" y1="564.54" x2="618.5" y2="564.39"/><line class="cls-1" x1="645.22" y1="564.54" x2="630.61" y2="606.99"/><line class="cls-1" x1="618.5" y1="564.39" x2="630.61" y2="606.99"/><line class="cls-1" x1="630.61" y1="606.99" x2="681.17" y2="562.92"/><line class="cls-1" x1="645.22" y1="564.54" x2="681.17" y2="562.92"/><line class="cls-1" x1="658.52" y1="546.42" x2="681.17" y2="562.92"/><line class="cls-1" x1="679.56" y1="539.25" x2="681.17" y2="562.92"/><line class="cls-1" x1="679.56" y1="539.25" x2="690.82" y2="532.05"/><line class="cls-1" x1="703.67" y1="518.87" x2="690.82" y2="532.05"/><line class="cls-1" x1="727.95" y1="491.53" x2="721.19" y2="499.31"/><line class="cls-1" x1="702.67" y1="479.03" x2="727.95" y2="491.53"/><line class="cls-1" x1="700.47" y1="542.72" x2="681.17" y2="562.92"/><line class="cls-1" x1="725.04" y1="522.45" x2="700.47" y2="542.72"/><line class="cls-1" x1="725.04" y1="522.45" x2="703.67" y2="518.87"/><line class="cls-1" x1="725.04" y1="522.45" x2="741.28" y2="497.95"/><line class="cls-1" x1="703.67" y1="518.87" x2="741.28" y2="497.95"/><line class="cls-1" x1="741.28" y1="497.95" x2="721.19" y2="499.31"/><line class="cls-1" x1="727.95" y1="491.53" x2="741.28" y2="497.95"/><line class="cls-1" x1="725.04" y1="522.45" x2="690.82" y2="532.05"/><line class="cls-1" x1="679.56" y1="539.25" x2="700.47" y2="542.72"/><line class="cls-1" x1="690.82" y1="532.05" x2="700.47" y2="542.72"/><line class="cls-1" x1="681.17" y1="562.92" x2="742.34" y2="563.43"/><line class="cls-1" x1="700.47" y1="542.72" x2="742.34" y2="563.43"/><line class="cls-1" x1="725.04" y1="522.45" x2="763.66" y2="529.72"/><line class="cls-1" x1="700.47" y1="542.72" x2="763.66" y2="529.72"/><line class="cls-1" x1="742.34" y1="563.43" x2="763.66" y2="529.72"/><line class="cls-1" x1="741.28" y1="497.95" x2="763.66" y2="529.72"/><line class="cls-1" x1="762.25" y1="494.04" x2="763.66" y2="529.72"/><line class="cls-1" x1="741.28" y1="497.95" x2="762.25" y2="494.04"/><line class="cls-1" x1="749.74" y1="481.13" x2="741.28" y2="497.95"/><line class="cls-1" x1="762.25" y1="494.04" x2="749.74" y2="481.13"/><line class="cls-1" x1="734.62" y1="474.65" x2="741.28" y2="497.95"/><line class="cls-1" x1="749.74" y1="481.13" x2="734.62" y2="474.65"/><line class="cls-1" x1="727.95" y1="491.53" x2="734.62" y2="474.65"/><line class="cls-1" x1="702.67" y1="479.03" x2="734.62" y2="474.65"/><line class="cls-1" x1="608.06" y1="642.52" x2="630.61" y2="606.99"/><line class="cls-1" x1="617.43" y1="566.77" x2="598.73" y2="599.19"/><line class="cls-1" x1="630.61" y1="606.99" x2="598.73" y2="599.19"/><line class="cls-1" x1="608.06" y1="642.52" x2="598.73" y2="599.19"/><line class="cls-1" x1="598.06" y1="547.1" x2="598.73" y2="599.19"/><line class="cls-1" x1="593.01" y1="536.01" x2="550.22" y2="553.07"/><line class="cls-1" x1="598.06" y1="547.1" x2="550.22" y2="553.07"/><line class="cls-1" x1="598.73" y1="599.19" x2="550.22" y2="553.07"/><line class="cls-1" x1="596.74" y1="508.41" x2="560.09" y2="495.99"/><line class="cls-1" x1="593.01" y1="536.01" x2="560.09" y2="495.99"/><line class="cls-1" x1="550.22" y1="553.07" x2="560.09" y2="495.99"/><line class="cls-1" x1="609.06" y1="491.75" x2="584.29" y2="439.47"/><line class="cls-1" x1="596.74" y1="508.41" x2="584.29" y2="439.47"/><line class="cls-1" x1="560.09" y1="495.99" x2="584.29" y2="439.47"/><line class="cls-1" x1="619.29" y1="477.82" x2="584.29" y2="439.47"/><line class="cls-1" x1="624.72" y1="416.46" x2="584.29" y2="439.47"/><line class="cls-1" x1="619.29" y1="477.82" x2="624.72" y2="416.46"/><line class="cls-1" x1="638.83" y1="469.55" x2="624.72" y2="416.46"/><line class="cls-1" x1="639.14" y1="359.15" x2="624.72" y2="416.46"/><line class="cls-1" x1="642.62" y1="407.3" x2="639.14" y2="359.15"/><line class="cls-1" x1="624.72" y1="416.46" x2="642.62" y2="407.3"/><line class="cls-1" x1="638.83" y1="469.55" x2="642.62" y2="407.3"/><line class="cls-1" x1="669.27" y1="425.38" x2="642.62" y2="407.3"/><line class="cls-1" x1="638.83" y1="469.55" x2="669.27" y2="425.38"/><line class="cls-1" x1="689.51" y1="433.84" x2="669.27" y2="425.38"/><line class="cls-1" x1="652.66" y1="468.61" x2="669.27" y2="425.38"/><line class="cls-1" x1="663.27" y1="471.96" x2="678.58" y2="464.13"/><line class="cls-1" x1="652.66" y1="468.61" x2="689.51" y2="433.84"/><line class="cls-1" x1="681.98" y1="474.49" x2="678.58" y2="464.13"/><line class="cls-1" x1="652.66" y1="468.61" x2="678.58" y2="464.13"/><line class="cls-1" x1="689.51" y1="433.84" x2="678.58" y2="464.13"/><line class="cls-1" x1="681.98" y1="474.49" x2="698.64" y2="465.61"/><line class="cls-1" x1="678.58" y1="464.13" x2="698.64" y2="465.61"/><line class="cls-1" x1="702.67" y1="479.03" x2="698.64" y2="465.61"/><line class="cls-1" x1="689.51" y1="433.84" x2="698.64" y2="465.61"/><line class="cls-1" x1="728.6" y1="432.54" x2="698.64" y2="465.61"/><line class="cls-1" x1="724.57" y1="463.9" x2="728.6" y2="432.54"/><line class="cls-1" x1="698.64" y1="465.61" x2="724.57" y2="463.9"/><line class="cls-1" x1="689.51" y1="433.84" x2="728.6" y2="432.54"/><line class="cls-1" x1="702.67" y1="479.03" x2="724.57" y2="463.9"/><line class="cls-1" x1="734.62" y1="474.65" x2="724.57" y2="463.9"/><line class="cls-1" x1="753" y1="451.27" x2="734.62" y2="474.65"/><line class="cls-1" x1="728.6" y1="432.54" x2="753" y2="451.27"/><line class="cls-1" x1="724.57" y1="463.9" x2="753" y2="451.27"/><line class="cls-1" x1="762.25" y1="494.04" x2="753" y2="451.27"/><line class="cls-1" x1="763.66" y1="529.72" x2="776.53" y2="517.1"/><line class="cls-1" x1="762.25" y1="494.04" x2="776.53" y2="517.1"/><line class="cls-1" x1="753" y1="451.27" x2="776.53" y2="517.1"/><line class="cls-1" x1="630.61" y1="606.99" x2="663.93" y2="615.92"/><line class="cls-1" x1="681.17" y1="562.92" x2="663.93" y2="615.92"/><line class="cls-1" x1="742.34" y1="563.43" x2="663.93" y2="615.92"/><line class="cls-1" x1="608.06" y1="642.52" x2="663.93" y2="615.92"/><line class="cls-1" x1="742.34" y1="563.43" x2="732.47" y2="591.61"/><line class="cls-1" x1="663.93" y1="615.92" x2="732.47" y2="591.61"/><line class="cls-1" x1="763.66" y1="529.72" x2="766.31" y2="589.42"/><line class="cls-1" x1="742.34" y1="563.43" x2="766.31" y2="589.42"/><line class="cls-1" x1="732.47" y1="591.61" x2="766.31" y2="589.42"/><line class="cls-1" x1="763.66" y1="529.72" x2="784.81" y2="541.76"/><line class="cls-1" x1="776.53" y1="517.1" x2="784.81" y2="541.76"/><line class="cls-1" x1="780.05" y1="435.01" x2="776.53" y2="517.1"/><line class="cls-1" x1="784.81" y1="541.76" x2="783.57" y2="515.07"/><line class="cls-1" x1="766.31" y1="589.42" x2="784.81" y2="541.76"/><line class="cls-1" x1="732.47" y1="591.61" x2="733.18" y2="611.46"/><line class="cls-1" x1="766.31" y1="589.42" x2="733.18" y2="611.46"/><line class="cls-1" x1="733.18" y1="611.46" x2="663.93" y2="615.92"/><line class="cls-1" x1="780.05" y1="435.01" x2="753" y2="451.27"/><line class="cls-1" x1="783.57" y1="515.07" x2="780.05" y2="435.01"/><line class="cls-1" x1="753" y1="451.27" x2="745.51" y2="413.7"/><line class="cls-1" x1="780.05" y1="435.01" x2="745.51" y2="413.7"/><line class="cls-1" x1="728.6" y1="432.54" x2="745.51" y2="413.7"/><line class="cls-1" x1="704.11" y1="326.32" x2="745.51" y2="413.7"/><line class="cls-1" x1="728.6" y1="432.54" x2="704.11" y2="326.32"/><line class="cls-1" x1="745.51" y1="413.7" x2="767.74" y2="403.3"/><line class="cls-1" x1="704.11" y1="326.32" x2="767.74" y2="403.3"/><line class="cls-1" x1="780.05" y1="435.01" x2="767.74" y2="403.3"/><line class="cls-1" x1="728.6" y1="432.54" x2="697.35" y2="416.1"/><line class="cls-1" x1="689.51" y1="433.84" x2="697.35" y2="416.1"/><line class="cls-1" x1="642.62" y1="407.3" x2="651.07" y2="373.36"/><line class="cls-1" x1="639.14" y1="359.15" x2="651.07" y2="373.36"/><line class="cls-1" x1="669.27" y1="425.38" x2="651.07" y2="373.36"/><line class="cls-1" x1="680.28" y1="371.6" x2="669.27" y2="425.38"/><line class="cls-1" x1="697.35" y1="416.1" x2="680.28" y2="371.6"/><line class="cls-1" x1="704.11" y1="326.32" x2="697.35" y2="416.1"/><line class="cls-1" x1="680.28" y1="371.6" x2="704.11" y2="326.32"/><line class="cls-1" x1="651.07" y1="373.36" x2="680.28" y2="371.6"/><line class="cls-1" x1="644.37" y1="319.28" x2="680.28" y2="371.6"/><line class="cls-1" x1="651.07" y1="373.36" x2="644.37" y2="319.28"/><line class="cls-1" x1="639.14" y1="359.15" x2="644.37" y2="319.28"/><line class="cls-1" x1="704.11" y1="326.32" x2="644.37" y2="319.28"/><line class="cls-1" x1="733.18" y1="611.46" x2="751.77" y2="646.75"/><line class="cls-1" x1="766.31" y1="589.42" x2="751.77" y2="646.75"/><line class="cls-1" x1="780.05" y1="435.01" x2="808.07" y2="429.61"/><line class="cls-1" x1="784.81" y1="541.76" x2="808.07" y2="429.61"/><line class="cls-1" x1="801.11" y1="540.7" x2="808.07" y2="429.61"/><line class="cls-1" x1="784.81" y1="541.76" x2="801.11" y2="540.7"/><line class="cls-1" x1="766.31" y1="589.42" x2="767.3" y2="636.76"/><line class="cls-1" x1="751.77" y1="646.75" x2="767.3" y2="636.76"/><line class="cls-1" x1="801.11" y1="540.7" x2="767.3" y2="636.76"/><line class="cls-1" x1="740.58" y1="710.51" x2="789.58" y2="673.29"/><line class="cls-1" x1="801.2" y1="539.25" x2="789.58" y2="673.29"/><line class="cls-1" x1="767.3" y1="636.76" x2="789.58" y2="673.29"/><line class="cls-1" x1="751.77" y1="646.75" x2="789.58" y2="673.29"/><line class="cls-1" x1="740.58" y1="710.51" x2="751.77" y2="646.75"/><line class="cls-1" x1="733.18" y1="611.46" x2="740.58" y2="710.51"/><line class="cls-1" x1="663.93" y1="615.92" x2="693.05" y2="643.22"/><line class="cls-1" x1="733.18" y1="611.46" x2="693.05" y2="643.22"/><line class="cls-1" x1="740.58" y1="710.51" x2="710.27" y2="679.16"/><line class="cls-1" x1="733.18" y1="611.46" x2="710.27" y2="679.16"/><line class="cls-1" x1="693.05" y1="643.22" x2="710.27" y2="679.16"/><line class="cls-1" x1="608.06" y1="642.52" x2="668.34" y2="679.16"/><line class="cls-1" x1="693.05" y1="643.22" x2="668.34" y2="679.16"/><line class="cls-1" x1="710.27" y1="679.16" x2="668.34" y2="679.16"/><line class="cls-1" x1="692.3" y1="710.16" x2="710.27" y2="679.16"/><line class="cls-1" x1="740.58" y1="710.51" x2="692.3" y2="710.16"/><line class="cls-1" x1="668.34" y1="679.16" x2="692.3" y2="710.16"/><line class="cls-1" x1="808.07" y1="429.61" x2="781.81" y2="399.37"/><line class="cls-1" x1="780.05" y1="435.01" x2="781.81" y2="399.37"/><line class="cls-1" x1="767.74" y1="403.3" x2="781.81" y2="399.37"/><line class="cls-1" x1="704.11" y1="326.32" x2="774.77" y2="356.09"/><line class="cls-1" x1="767.74" y1="403.3" x2="774.77" y2="356.09"/><line class="cls-1" x1="781.81" y1="399.37" x2="774.77" y2="356.09"/><line class="cls-1" x1="822.78" y1="395.53" x2="781.81" y2="399.37"/><line class="cls-1" x1="808.07" y1="429.61" x2="822.78" y2="395.53"/><line class="cls-1" x1="774.77" y1="356.09" x2="822.78" y2="395.53"/><line class="cls-1" x1="639.14" y1="359.15" x2="610.92" y2="367.02"/><line class="cls-1" x1="624.72" y1="416.46" x2="610.92" y2="367.02"/><line class="cls-1" x1="584.29" y1="439.47" x2="610.92" y2="367.02"/><line class="cls-1" x1="639.14" y1="359.15" x2="627.28" y2="346.32"/><line class="cls-1" x1="644.37" y1="319.28" x2="627.28" y2="346.32"/><line class="cls-1" x1="610.92" y1="367.02" x2="550.45" y2="332.8"/><line class="cls-1" x1="627.28" y1="346.32" x2="610.92" y2="367.02"/><line class="cls-1" x1="550.45" y1="332.8" x2="627.28" y2="346.32"/><line class="cls-1" x1="584.29" y1="439.47" x2="585.83" y2="375.38"/><line class="cls-1" x1="610.92" y1="367.02" x2="585.83" y2="375.38"/><line class="cls-1" x1="550.45" y1="332.8" x2="585.83" y2="375.38"/><line class="cls-1" x1="584.29" y1="439.47" x2="555.15" y2="383.22"/><line class="cls-1" x1="550.45" y1="332.8" x2="555.15" y2="383.22"/><line class="cls-1" x1="585.83" y1="375.38" x2="555.15" y2="383.22"/><line class="cls-1" x1="560.09" y1="495.99" x2="555.15" y2="383.22"/><line class="cls-1" x1="598.73" y1="599.19" x2="568.78" y2="678.63"/><line class="cls-1" x1="550.22" y1="553.07" x2="568.78" y2="678.63"/><line class="cls-1" x1="608.06" y1="642.52" x2="568.78" y2="678.63"/><line class="cls-1" x1="572.19" y1="732.71" x2="568.78" y2="678.63"/><line class="cls-1" x1="608.06" y1="642.52" x2="608.28" y2="694.84"/><line class="cls-1" x1="568.78" y1="678.63" x2="608.28" y2="694.84"/><line class="cls-1" x1="572.19" y1="732.71" x2="608.28" y2="694.84"/><line class="cls-1" x1="668.34" y1="679.16" x2="608.28" y2="694.84"/><line class="cls-1" x1="692.3" y1="710.16" x2="647.38" y2="710.34"/><line class="cls-1" x1="668.34" y1="679.16" x2="647.38" y2="710.34"/><line class="cls-1" x1="608.28" y1="694.84" x2="647.38" y2="710.34"/><line class="cls-1" x1="572.19" y1="732.71" x2="580.76" y2="746.1"/><line class="cls-1" x1="608.28" y1="694.84" x2="580.76" y2="746.1"/><line class="cls-1" x1="626.22" y1="753.49" x2="608.28" y2="694.84"/><line class="cls-1" x1="647.38" y1="710.34" x2="626.22" y2="753.49"/><line class="cls-1" x1="692.3" y1="710.16" x2="663.93" y2="741.52"/><line class="cls-1" x1="647.38" y1="710.34" x2="663.93" y2="741.52"/><line class="cls-1" x1="626.22" y1="753.49" x2="639" y2="771.46"/><line class="cls-1" x1="647.38" y1="710.34" x2="648.77" y2="749.27"/><line class="cls-1" x1="639" y1="771.46" x2="648.77" y2="749.27"/><line class="cls-1" x1="663.93" y1="741.52" x2="648.77" y2="749.27"/><line class="cls-1" x1="580.76" y1="746.1" x2="626.22" y2="753.49"/><line class="cls-1" x1="663.93" y1="615.92" x2="645.25" y2="646.58"/><line class="cls-1" x1="645.25" y1="646.58" x2="693.05" y2="643.22"/><line class="cls-1" x1="608.06" y1="642.52" x2="645.25" y2="646.58"/><line class="cls-1" x1="668.34" y1="679.16" x2="645.25" y2="646.58"/><line class="cls-1" x1="801.11" y1="540.7" x2="829" y2="564.92"/><line class="cls-1" x1="789.58" y1="673.29" x2="829" y2="564.92"/><line class="cls-1" x1="808.07" y1="429.61" x2="842.25" y2="492.6"/><line class="cls-1" x1="829" y1="564.92" x2="842.25" y2="492.6"/><line class="cls-1" x1="822.78" y1="395.53" x2="854.37" y2="435.34"/><line class="cls-1" x1="842.25" y1="492.6" x2="854.37" y2="435.34"/><line class="cls-1" x1="808.07" y1="429.61" x2="854.37" y2="435.34"/><line class="cls-1" x1="801.11" y1="540.7" x2="842.25" y2="492.6"/><line class="cls-1" x1="829" y1="564.92" x2="906.67" y2="461.38"/><line class="cls-1" x1="854.37" y1="435.34" x2="906.67" y2="461.38"/><line class="cls-1" x1="767.3" y1="636.76" x2="784.81" y2="541.76"/><line class="cls-1" x1="692.3" y1="710.16" x2="698.23" y2="758.96"/><line class="cls-1" x1="695.34" y1="795.74" x2="698.23" y2="758.96"/><line class="cls-1" x1="670.04" y1="841.29" x2="695.34" y2="795.74"/><line class="cls-1" x1="619.53" y1="884.79" x2="670.04" y2="841.29"/><line class="cls-1" x1="492.46" y1="848.15" x2="492.46" y2="865.06"/><line class="cls-1" x1="519.44" y1="879.15" x2="492.46" y2="865.06"/><line class="cls-1" x1="553.04" y1="891.13" x2="519.44" y2="879.15"/><line class="cls-1" x1="589.45" y1="890.19" x2="553.04" y2="891.13"/><line class="cls-1" x1="619.53" y1="884.79" x2="589.45" y2="890.19"/><line class="cls-1" x1="492.46" y1="848.15" x2="500.65" y2="838.28"/><line class="cls-1" x1="521.56" y1="815.03" x2="516.86" y2="830.53"/><line class="cls-1" x1="500.65" y1="838.28" x2="516.86" y2="830.53"/><line class="cls-1" x1="515.45" y1="804.46" x2="514.98" y2="810.1"/><line class="cls-1" x1="521.56" y1="815.03" x2="514.98" y2="810.1"/><line class="cls-1" x1="541.53" y1="783.79" x2="515.45" y2="804.46"/><line class="cls-1" x1="556.56" y1="777.48" x2="541.53" y2="783.79"/><line class="cls-1" x1="558.68" y1="768.76" x2="556.56" y2="777.48"/><line class="cls-1" x1="564.32" y1="767.12" x2="558.68" y2="768.76"/><line class="cls-1" x1="572.19" y1="732.71" x2="562.91" y2="754.43"/><line class="cls-1" x1="564.32" y1="767.12" x2="562.91" y2="754.43"/><line class="cls-1" x1="515.45" y1="804.46" x2="521.56" y2="815.03"/><line class="cls-1" x1="556.56" y1="777.48" x2="566.84" y2="777.48"/><line class="cls-1" x1="558.68" y1="768.76" x2="566.84" y2="777.48"/><line class="cls-1" x1="564.32" y1="767.12" x2="566.84" y2="777.48"/><line class="cls-1" x1="580.76" y1="746.1" x2="566.84" y2="777.48"/><line class="cls-1" x1="562.91" y1="754.43" x2="580.76" y2="746.1"/><line class="cls-1" x1="492.46" y1="865.06" x2="536.83" y2="849.79"/><line class="cls-1" x1="492.46" y1="848.15" x2="536.83" y2="849.79"/><line class="cls-1" x1="500.65" y1="838.28" x2="536.83" y2="849.79"/><line class="cls-1" x1="516.86" y1="830.53" x2="536.83" y2="849.79"/><line class="cls-1" x1="521.56" y1="815.03" x2="535.18" y2="813.62"/><line class="cls-1" x1="516.86" y1="830.53" x2="535.18" y2="813.62"/><line class="cls-1" x1="541.53" y1="783.79" x2="521.56" y2="815.03"/><line class="cls-1" x1="535.18" y1="813.62" x2="541.53" y2="783.79"/><line class="cls-1" x1="549.98" y1="796.24" x2="541.53" y2="783.79"/><line class="cls-1" x1="566.84" y1="777.48" x2="549.98" y2="796.24"/><line class="cls-1" x1="535.18" y1="813.62" x2="549.98" y2="796.24"/><line class="cls-1" x1="536.83" y1="849.79" x2="558.41" y2="827.48"/><line class="cls-1" x1="519.44" y1="879.15" x2="565.58" y2="856.6"/><line class="cls-1" x1="553.04" y1="891.13" x2="565.58" y2="856.6"/><line class="cls-1" x1="536.83" y1="849.79" x2="519.44" y2="879.15"/><line class="cls-1" x1="565.58" y1="856.6" x2="536.83" y2="849.79"/><line class="cls-1" x1="558.41" y1="827.48" x2="516.86" y2="830.53"/><line class="cls-1" x1="565.58" y1="856.6" x2="558.41" y2="827.48"/><line class="cls-1" x1="549.98" y1="796.24" x2="558.41" y2="827.48"/><line class="cls-1" x1="566.84" y1="777.48" x2="589.45" y2="799.76"/><line class="cls-1" x1="626.22" y1="753.49" x2="589.45" y2="799.76"/><line class="cls-1" x1="580.76" y1="746.1" x2="589.45" y2="799.76"/><line class="cls-1" x1="549.98" y1="796.24" x2="589.45" y2="799.76"/><line class="cls-1" x1="558.41" y1="827.48" x2="589.45" y2="799.76"/><line class="cls-1" x1="615.06" y1="809.75" x2="558.41" y2="827.48"/><line class="cls-1" x1="589.45" y1="799.76" x2="615.06" y2="809.75"/><line class="cls-1" x1="639" y1="771.46" x2="589.45" y2="799.76"/><line class="cls-1" x1="626.22" y1="753.49" x2="648.77" y2="749.27"/><line class="cls-1" x1="698.23" y1="758.96" x2="676.62" y2="755.37"/><line class="cls-1" x1="692.3" y1="710.16" x2="676.62" y2="755.37"/><line class="cls-1" x1="639" y1="771.46" x2="676.62" y2="755.37"/><line class="cls-1" x1="663.93" y1="741.52" x2="676.62" y2="755.37"/><line class="cls-1" x1="648.77" y1="749.27" x2="676.62" y2="755.37"/><line class="cls-1" x1="639" y1="771.46" x2="615.06" y2="809.75"/><line class="cls-1" x1="655.65" y1="790.6" x2="639" y2="771.46"/><line class="cls-1" x1="676.62" y1="755.37" x2="655.65" y2="790.6"/><line class="cls-1" x1="615.06" y1="809.75" x2="655.65" y2="790.6"/><line class="cls-1" x1="698.23" y1="758.96" x2="684.46" y2="776.63"/><line class="cls-1" x1="676.62" y1="755.37" x2="684.46" y2="776.63"/><line class="cls-1" x1="695.34" y1="795.74" x2="684.46" y2="776.63"/><line class="cls-1" x1="565.58" y1="856.6" x2="615.06" y2="809.75"/><line class="cls-1" x1="619.53" y1="822.08" x2="565.58" y2="856.6"/><line class="cls-1" x1="615.06" y1="809.75" x2="619.53" y2="822.08"/><line class="cls-1" x1="655.65" y1="790.6" x2="619.53" y2="822.08"/><line class="cls-1" x1="684.46" y1="776.63" x2="655.65" y2="790.6"/><line class="cls-1" x1="695.34" y1="795.74" x2="657.81" y2="803.52"/><line class="cls-1" x1="684.46" y1="776.63" x2="657.81" y2="803.52"/><line class="cls-1" x1="655.65" y1="790.6" x2="657.81" y2="803.52"/><line class="cls-1" x1="619.53" y1="822.08" x2="625.4" y2="833.17"/><line class="cls-1" x1="657.81" y1="803.52" x2="619.53" y2="822.08"/><line class="cls-1" x1="625.4" y1="833.17" x2="657.81" y2="803.52"/><line class="cls-1" x1="670.04" y1="841.29" x2="659.94" y2="831.94"/><line class="cls-1" x1="657.81" y1="803.52" x2="659.94" y2="831.94"/><line class="cls-1" x1="565.58" y1="856.6" x2="625.4" y2="833.17"/><line class="cls-1" x1="589.45" y1="890.19" x2="565.58" y2="856.6"/><line class="cls-1" x1="599.09" y1="860.83" x2="589.45" y2="890.19"/><line class="cls-1" x1="619.53" y1="884.79" x2="599.09" y2="860.83"/><line class="cls-1" x1="565.58" y1="856.6" x2="599.09" y2="860.83"/><line class="cls-1" x1="625.4" y1="833.17" x2="599.09" y2="860.83"/><line class="cls-1" x1="659.94" y1="831.94" x2="599.09" y2="860.83"/><line class="cls-1" x1="619.53" y1="884.79" x2="659.94" y2="831.94"/><line class="cls-1" x1="695.34" y1="795.74" x2="659.94" y2="831.94"/><line class="cls-1" x1="740.58" y1="710.51" x2="698.23" y2="758.96"/><line class="cls-1" x1="749.04" y1="730.69" x2="698.23" y2="758.96"/><line class="cls-1" x1="740.58" y1="710.51" x2="749.04" y2="730.69"/><line class="cls-1" x1="789.58" y1="673.29" x2="749.04" y2="730.69"/><line class="cls-1" x1="526.84" y1="285.28" x2="627.28" y2="346.32"/><line class="cls-1" x1="550.45" y1="332.8" x2="526.84" y2="285.28"/><line class="cls-1" x1="619.1" y1="295.85" x2="526.84" y2="285.28"/><line class="cls-1" x1="644.37" y1="319.28" x2="619.1" y2="295.85"/><line class="cls-1" x1="627.28" y1="346.32" x2="619.1" y2="295.85"/><line class="cls-1" x1="555.15" y1="383.22" x2="490.19" y2="458.64"/><line class="cls-1" x1="430.92" y1="385.65" x2="490.19" y2="458.64"/><line class="cls-1" x1="560.09" y1="495.99" x2="490.19" y2="458.64"/><line class="cls-1" x1="421.18" y1="495.78" x2="490.19" y2="458.64"/><line class="cls-1" x1="491.25" y1="559.95" x2="560.09" y2="495.99"/><line class="cls-1" x1="421.18" y1="495.78" x2="491.25" y2="559.95"/><line class="cls-1" x1="490.19" y1="458.64" x2="491.25" y2="559.95"/><line class="cls-1" x1="550.22" y1="553.07" x2="491.25" y2="559.95"/><line class="cls-1" x1="434.39" y1="552.68" x2="491.25" y2="559.95"/><line class="cls-1" x1="558.68" y1="768.76" x2="562.91" y2="754.43"/><line class="cls-1" x1="545.75" y1="759.13" x2="572.19" y2="732.71"/><line class="cls-1" x1="562.91" y1="754.43" x2="545.75" y2="759.13"/><line class="cls-1" x1="558.68" y1="768.76" x2="545.75" y2="759.13"/><line class="cls-1" x1="511.69" y1="773.12" x2="545.75" y2="759.13"/><line class="cls-1" x1="492.31" y1="769.48" x2="511.69" y2="773.12"/></g></svg>