<svg id="Layer_1" data-name="Layer 1" xmlns="http://www.w3.org/2000/svg" viewBox="0 0 500 500"><defs><style>.cls-1{fill:none;stroke:#00ffe6;stroke-miterlimit:10;stroke-width:5px;}.cls-2{fill:#f0f0f0;}.cls-3{fill:#00ffe6;}.cls-4{fill:#d8d9dd;}.cls-5{fill:#00dcdc;}.cls-6{fill:#fff;}</style></defs><title>xp</title><path class="cls-1" d="M497.5,250c0,136.66-110.79,247.42-247.5,247.42S2.5,386.66,2.5,250,113.29,2.58,250,2.58,497.5,113.34,497.5,250Z"/><path class="cls-2" d="M299.2,150.8a8.81,8.81,0,0,1-8.8,8.8H209.7a8.81,8.81,0,0,1-8.8-8.8h0a8.88,8.88,0,0,1,8.8-8.8h80.7a8.88,8.88,0,0,1,8.8,8.8Z"/><path class="cls-2" d="M156.7,412.9a19,19,0,0,1-16.4-28.4L250,194.5l109.7,190a19,19,0,0,1-16.4,28.4Z"/><path class="cls-3" d="M352.1,388.9l-38.5-66.8H285.5a9.91,9.91,0,0,0-16.2,0H251.8a19.88,19.88,0,0,0-16.9-9.4,20.13,20.13,0,0,0-16.9,9.4H186.5L148,388.9a10,10,0,0,0,8.7,15.1H343.4a10,10,0,0,0,8.7-15.1Z"/><rect class="cls-4" x="209" y="159.6" width="81.9" height="105.8"/><circle class="cls-5" cx="242.4" cy="75.3" r="10.1"/><path class="cls-3" d="M240.6,68.8c1,1,.7,2.8-.5,4.1s-3.1,1.5-4.1.5-.7-2.8.5-4.1S239.6,67.8,240.6,68.8Z"/><path class="cls-5" d="M283.7,101.2a14,14,0,1,1-14-14A14,14,0,0,1,283.7,101.2Z"/><path class="cls-3" d="M267.4,92.2c1.4,1.4,1.1,4.1-.8,6s-4.5,2.2-6,.8-1.1-4.1.8-6S266,90.8,267.4,92.2Z"/><path class="cls-5" d="M250.7,126a6.4,6.4,0,1,1-12.8,0,6.38,6.38,0,0,1,6.4-6.4A6.51,6.51,0,0,1,250.7,126Z"/><path class="cls-3" d="M243.3,122a2,2,0,0,1-.3,2.7c-.9.8-2.1,1-2.7.3a1.93,1.93,0,0,1,.3-2.7C241.4,121.5,242.7,121.3,243.3,122Z"/><path class="cls-5" d="M281,327.9a3.69,3.69,0,0,1-3.7,3.7,3.65,3.65,0,1,1,3.7-3.7Z"/><path class="cls-6" d="M276.8,325.6a1.31,1.31,0,0,1-1.8,1.8,1,1,0,0,1,.2-1.5C275.7,325.3,276.4,325.2,276.8,325.6Z"/><path class="cls-5" d="M243.2,332.6a8.4,8.4,0,1,1-8.4-8.4A8.39,8.39,0,0,1,243.2,332.6Z"/><path class="cls-6" d="M233.5,327.3a2.46,2.46,0,0,1-.4,3.5,2.71,2.71,0,0,1-3.6.5c-.8-.8-.7-2.4.5-3.6S232.7,326.4,233.5,327.3Z"/><path class="cls-5" d="M222.7,371.4A11.35,11.35,0,1,1,211.4,360,11.37,11.37,0,0,1,222.7,371.4Z"/><path class="cls-6" d="M209.5,364.1c1.2,1.2.9,3.3-.6,4.8s-3.6,1.8-4.8.6-.9-3.3.6-4.8S208.4,362.9,209.5,364.1Z"/><path class="cls-5" d="M285.1,357.5a17.4,17.4,0,1,1-17.4-17.4A17.41,17.41,0,0,1,285.1,357.5Z"/><path class="cls-6" d="M264.9,346.4c1.8,1.8,1.4,5.1-.9,7.4s-5.6,2.7-7.4.9-1.4-5.1.9-7.4S263.1,344.6,264.9,346.4Z"/><circle class="cls-5" cx="297.3" cy="386.5" r="5"/><path class="cls-6" d="M296.5,383.2a1.49,1.49,0,0,1-.3,2.1,1.61,1.61,0,0,1-2.2.3,1.49,1.49,0,0,1,.3-2.1A1.62,1.62,0,0,1,296.5,383.2Z"/></svg>